<?xml version="1.0"?>
<svg xmlns="http://www.w3.org/2000/svg" xmlns:xlink="http://www.w3.org/1999/xlink" width="192.857147" height="239.285721">
	<defs />
	<rect x="-0" y="-0" width="192.857147" height="239.285721" stroke="none" fill="#FFFFFF" />
	<path d="M -137.441 0 L 137.44 0" fill="none" stroke="#000000" stroke-width="1.39999998" stroke-linecap="round" stroke-linejoin="round" transform="matrix(0.714286 0 0 0.714286 109.84 -112.13)" />
	<path d="M -119.24 88.2 L 119.24 -88.2001" fill="none" stroke="#000000" stroke-width="1.39999998" stroke-linecap="round" stroke-linejoin="round" transform="matrix(0.714286 0 0 0.714286 109.84 -123.53)" />
	<g transform="matrix(1 0 -0 1 198.712 -200.9)">
		<svg width="27.0496273" height="29.9858208">
			<defs />
			<path d="M 7.00329 2.48313 L 6.37872 9.12556 C 6.34633 9.43618, 6.33014 9.64008, 6.33014 9.73798, 6.33014 9.8955, 6.36069 10.0151, 6.42105 10.0972, 6.49797 10.2113, 6.60212 10.2959, 6.73351 10.3508, 6.86491 10.406, 7.0861 10.4332, 7.39746 10.4328 L 7.33085 10.6507, 4.09208 10.6507, 4.15869 10.4328, 4.29818 10.4328 C 4.56096 10.4332, 4.77553 10.3784, 4.94115 10.268, 5.05856 10.1936, 5.14946 10.07, 5.21387 9.89697, 5.25877 9.77552, 5.3011 9.48918, 5.34121 9.03722 L 5.43837 8.02437, 3.08511 8.02437, 2.24819 9.12556 C 2.05828 9.37325, 1.93903 9.55101, 1.89045 9.65885, 1.84187 9.76705, 1.81758 9.8679, 1.81758 9.96175, 1.81758 10.0876, 1.87021 10.1958, 1.97547 10.286, 2.08073 10.3765, 2.25444 10.4255, 2.49662 10.4328 L 2.43 10.6507, -0.00202161 10.6507, 0.064594 10.4328 C 0.36418 10.4214, 0.627698 10.3243, 0.856252 10.1417, 1.08481 9.95917, 1.42525 9.56941, 1.87794 8.97245 L 6.79093 2.48313 Z M 5.80237 4.44406 L 3.41856 7.5945, 5.48696 7.5945 Z" stroke="none" fill="#000000" />
			<rect />
		</svg>
	</g>
	<g transform="matrix(1 0 -0 1 215.603 -119.3)">
		<svg width="27.0496273" height="29.9858208">
			<defs />
			<path d="M 2.12269 2.88356 L 2.2077 2.66568, 5.14321 2.66568 C 5.63675 2.66605, 6.07656 2.74076, 6.46264 2.88982, 6.84871 3.03924, 7.13763 3.24719, 7.32974 3.51402, 7.52186 3.78122, 7.61792 4.06351, 7.61792 4.36162, 7.61792 4.8213, 7.44715 5.23646, 7.10561 5.60744, 6.76406 5.97843, 6.20685 6.25225, 5.43433 6.42854, 5.93192 6.60962, 6.29775 6.84922, 6.5322 7.14733, 6.76701 7.44581, 6.88404 7.77337, 6.88404 8.13037, 6.88404 8.52712, 6.77915 8.9062, 6.56863 9.26725, 6.35848 9.62867, 6.08871 9.90912, 5.75894 10.1093, 5.42954 10.3095, 5.03206 10.4568, 4.56685 10.5506, 4.23561 10.6176, 3.71815 10.6507, 3.01445 10.6507 L -0.000180542 10.6507, 0.0785805 10.4328 C 0.39436 10.4255, 0.608561 10.396, 0.72155 10.3445, 0.883488 10.2783, 0.998685 10.1899, 1.06751 10.0795, 1.16467 9.93083, 1.29386 9.58929, 1.45543 9.05489 L 2.92943 4.22029 C 3.05494 3.8125, 3.1175 3.5258, 3.1175 3.36055, 3.1175 3.21554, 3.06193 3.10108, 2.95078 3.01643, 2.83963 2.93214, 2.62801 2.88982, 2.31664 2.88945, 2.24819 2.88982, 2.18341 2.88798, 2.12269 2.88356 Z M 3.35379 6.19889 C 3.61694 6.20698, 3.80721 6.21103, 3.92425 6.21066, 4.76523 6.21103, 5.3909 6.03363, 5.80127 5.67811, 6.212 5.32295, 6.417 4.87835, 6.417 4.34395, 6.417 3.93984, 6.29187 3.62517, 6.04086 3.39919, 5.79022 3.17358, 5.38979 3.06059, 4.83994 3.06022, 4.69456 3.06059, 4.5087 3.08415, 4.28199 3.13089 Z M 2.15912 10.1325 C 2.59599 10.1877, 2.93753 10.2153, 3.18412 10.215, 3.81494 10.2153, 4.374 10.0309, 4.86129 9.66179, 5.34857 9.29301, 5.59222 8.79211, 5.59222 8.15981, 5.59222 7.67731, 5.44169 7.30044, 5.14026 7.02956, 4.8392 6.75868, 4.35265 6.62324, 3.68134 6.62287, 3.55216 6.62324, 3.39464 6.62913, 3.20841 6.64054 Z" stroke="none" fill="#000000" />
			<rect />
		</svg>
	</g>
	<g transform="matrix(1 0 -0 1 13.2603 -56.4998)">
		<svg width="27.0496273" height="29.9858208">
			<defs />
			<path d="M 7.89947 2.48313 L 7.28705 5.06826, 7.0688 5.06826, 7.04451 4.42051 C 7.02427 4.18533, 6.97789 3.97554, 6.90502 3.79079, 6.83215 3.6064, 6.72321 3.4463, 6.57746 3.31086, 6.43172 3.17542, 6.2477 3.06942, 6.0254 2.99287, 5.8031 2.91632, 5.55652 2.87804, 5.28527 2.87767, 4.5617 2.87804, 3.92867 3.07053, 3.38691 3.45476, 2.69573 3.94573, 2.15397 4.63876, 1.76164 5.53347, 1.43813 6.27176, 1.27619 7.01962, 1.27619 7.77705, 1.27619 8.55067, 1.50879 9.16825, 1.974 9.6294, 2.4392 10.0909, 3.04353 10.3213, 3.78734 10.321, 4.34971 10.3213, 4.84988 10.1999, 5.28858 9.95623, 5.72729 9.71295, 6.13471 9.33792, 6.51048 8.83112 L 6.79571 8.83112 C 6.35112 9.51862, 5.85757 10.0239, 5.31582 10.3478, 4.77406 10.6717, 4.12483 10.8333, 3.36887 10.8333, 2.69757 10.8333, 2.10318 10.6971, 1.58571 10.4244, 1.06824 10.1517, 0.673703 9.76779, 0.402824 9.27314, 0.131945 8.77849, -0.00349414 8.24667, -0.00349414 7.67694, -0.00349414 6.80579, 0.237205 5.95782, 0.718236 5.1334, 1.19964 4.30899, 1.85953 3.66124, 2.69867 3.19014, 3.53781 2.71905, 4.38393 2.4835, 5.23706 2.48313, 5.63749 2.4835, 6.08613 2.57588, 6.58335 2.7599, 6.80197 2.83866, 6.95949 2.87804, 7.05666 2.87767, 7.15382 2.87804, 7.23847 2.85854, 7.31134 2.81916, 7.38421 2.78014, 7.5053 2.66789, 7.67533 2.48313 Z" stroke="none" fill="#000000" />
			<rect />
		</svg>
	</g>
	<g transform="matrix(1 0 -0 1 -7.54917 -119.3)">
		<svg width="32.9485931" height="29.9858208">
			<defs />
			<path d="M 2.18875 2.88356 L 2.26125 2.66568, 4.8876 2.66568 C 5.99982 2.66605, 6.8235 2.78971, 7.35937 3.03704, 7.89524 3.28436, 8.32254 3.67412, 8.642 4.20594, 8.96146 4.73813, 9.12119 5.30822, 9.12119 5.91623, 9.12119 6.43885, 9.02955 6.94638, 8.84552 7.43882, 8.6615 7.93163, 8.45319 8.32617, 8.22059 8.62244, 7.98799 8.91908, 7.63135 9.2459, 7.14996 9.60291, 6.66892 9.96027, 6.14741 10.2242, 5.58541 10.3949, 5.02341 10.5657, 4.32192 10.6507, 3.48058 10.6507 L -0.0010998 10.6507, 0.0780292 10.4328 C 0.39749 10.4255, 0.61169 10.3979, 0.720631 10.3504, 0.882569 10.2842, 1.00218 10.1936, 1.07874 10.0795, 1.19614 9.915, 1.32753 9.5834, 1.47291 9.08433 L 2.92851 4.25562 C 3.04187 3.87507, 3.09855 3.57695, 3.09855 3.36055, 3.09855 3.20781, 3.04629 3.09003, 2.94103 3.00759, 2.83577 2.92515, 2.62966 2.88393, 2.32198 2.88356 Z M 4.3418 3.10733 L 2.55863 9.08433 C 2.4254 9.53224, 2.35842 9.80901, 2.35842 9.91464, 2.35842 9.97794, 2.37976 10.0387, 2.42209 10.0976, 2.46478 10.1564, 2.5222 10.1958, 2.59507 10.215, 2.70033 10.2507, 2.87 10.2683, 3.10444 10.268, 3.73931 10.2683, 4.32855 10.2047, 4.87251 10.0769, 5.41648 9.9496, 5.86255 9.76006, 6.20998 9.50832, 6.70315 9.14359, 7.09733 8.64121, 7.3925 8.00119, 7.68766 7.36153, 7.83525 6.63317, 7.83525 5.81612, 7.83525 4.89381, 7.6089 4.20815, 7.15621 3.7584, 6.70352 3.30902, 6.04215 3.08415, 5.17283 3.08378, 4.95863 3.08415, 4.6815 3.09187, 4.3418 3.10733 Z" stroke="none" fill="#000000" />
			<rect />
		</svg>
	</g>
	<g transform="matrix(1 0 -0 1 90.3238 -130.7)">
		<svg width="29.9991093" height="29.9858208">
			<defs />
			<path d="M 5.37912 2.48313 C 5.9253 2.4835, 6.40853 2.59833, 6.82884 2.82799, 7.24951 3.05765, 7.57891 3.39735, 7.8174 3.84673, 8.05589 4.29648, 8.17514 4.76242, 8.17514 5.24492, 8.17514 6.10099, 7.91971 6.99938, 7.40814 7.93936, 6.89656 8.8797, 6.22856 9.59702, 5.40341 10.0917, 4.57863 10.5863, 3.72551 10.8333, 2.84368 10.8333, 2.20918 10.8333, 1.67846 10.6971, 1.2519 10.4244, 0.825338 10.1517, 0.509926 9.79134, 0.305662 9.3438, 0.101399 8.89627, -0.0009166 8.46234, -0.0009166 8.04204, -0.0009166 7.29639, 0.184209 6.55957, 0.554091 5.83121, 0.924341 5.10322, 1.36599 4.49448, 1.87941 4.00572, 2.3932 3.51696, 2.94084 3.14119, 3.52309 2.87804, 4.10533 2.61526, 4.72401 2.4835, 5.37912 2.48313 Z M 5.17302 2.86001 C 4.76891 2.86038, 4.37363 2.95754, 3.98719 3.15187, 3.60111 3.34619, 3.21798 3.66418, 2.83779 4.10583, 2.45797 4.54748, 2.11606 5.12567, 1.81279 5.83968, 1.44107 6.7193, 1.25484 7.5496, 1.25484 8.33058, 1.25484 8.88854, 1.40243 9.38208, 1.6976 9.81195, 1.99277 10.2418, 2.44583 10.4568, 3.05604 10.4564, 3.42408 10.4568, 3.78513 10.3684, 4.13882 10.1918, 4.49288 10.0151, 4.86165 9.71295, 5.24552 9.28455, 5.72692 8.74721, 6.13103 8.06118, 6.45859 7.22683, 6.78615 6.39284, 6.94992 5.61443, 6.94992 4.8916, 6.94992 4.35794, 6.80234 3.88611, 6.50717 3.47574, 6.212 3.06574, 5.76741 2.86038, 5.17302 2.86001 Z" stroke="none" fill="#000000" />
			<rect />
		</svg>
	</g>
	<path d="M 34.1794 -25.2779 C 39.5907 -17.9609, 42.5112 -9.10058, 42.5112 -2.50763e-005" fill="none" stroke="#000000" stroke-width="1.04999995" stroke-linecap="round" stroke-linejoin="round" transform="matrix(0.714286 0 -0 0.714286 94.4118 -112.13)" />
	<path d="M 0 0 L 140.84 -104.16" fill="none" stroke="#000000" stroke-width="0.699999988" stroke-linecap="round" stroke-linejoin="round" stroke-dasharray="3.8535, 1.7465, 0.007, 2.093" transform="matrix(0.714286 0 -0 0.714286 94.4118 -112.13)" />
	<path d="M 0 0 L 89.2735 0" fill="none" stroke="#000000" stroke-width="0.699999988" stroke-linecap="round" stroke-linejoin="round" stroke-dasharray="3.8535, 1.7465, 0.007, 2.093" transform="matrix(0.714286 0 -0 0.714286 94.4118 -112.13)" />
	<ellipse cx="646.42652606964111" cy="495.31937885284424" rx="3.6750001907348633" ry="3.6750001907348633" stroke="none" fill="#000000" transform="matrix(0.714286 0 0 0.714286 -373.571 -227.857)" />
	<path d="M 35.2603 73.3397 L -35.2606 -73.3398" fill="none" stroke="#000000" stroke-width="1.39999998" stroke-linecap="round" stroke-linejoin="round" transform="matrix(0.714286 0 0 0.714286 62.9759 73.5569)" />
	<path d="M -17.9159 73.3397 L 17.9155 -73.3398" fill="none" stroke="#000000" stroke-width="1.39999998" stroke-linecap="round" stroke-linejoin="round" transform="matrix(0.714286 0 0 0.714286 100.959 73.5569)" />
	<path d="M -64.9779 8.73331 L 64.9779 -8.73334" fill="none" stroke="#000000" stroke-width="1.39999998" stroke-linecap="round" stroke-linejoin="round" transform="matrix(0.714286 0 0 0.714286 134.575 119.704)" />
	<path d="M 0 -64.9146 L 0 64.9149" fill="none" stroke="#000000" stroke-width="1.39999998" stroke-linecap="round" stroke-linejoin="round" transform="matrix(0.714286 0 0 0.714286 88.1618 173.371)" />
	<g transform="matrix(1 0 -0 1 72.8979 126.056)">
		<svg width="29.9991093" height="29.9858208">
			<defs />
			<path d="M 5.37912 2.48313 C 5.9253 2.4835, 6.40853 2.59833, 6.82884 2.82799, 7.24951 3.05765, 7.57891 3.39735, 7.8174 3.84673, 8.05589 4.29648, 8.17514 4.76242, 8.17514 5.24492, 8.17514 6.10099, 7.91971 6.99938, 7.40814 7.93936, 6.89656 8.8797, 6.22856 9.59702, 5.40341 10.0917, 4.57863 10.5863, 3.72551 10.8333, 2.84368 10.8333, 2.20918 10.8333, 1.67846 10.6971, 1.2519 10.4244, 0.825338 10.1517, 0.509926 9.79134, 0.305662 9.3438, 0.101399 8.89627, -0.0009166 8.46234, -0.0009166 8.04204, -0.0009166 7.29639, 0.184209 6.55957, 0.554091 5.83121, 0.924341 5.10322, 1.36599 4.49448, 1.87941 4.00572, 2.3932 3.51696, 2.94084 3.14119, 3.52309 2.87804, 4.10533 2.61526, 4.72401 2.4835, 5.37912 2.48313 Z M 5.17302 2.86001 C 4.76891 2.86038, 4.37363 2.95754, 3.98719 3.15187, 3.60111 3.34619, 3.21798 3.66418, 2.83779 4.10583, 2.45797 4.54748, 2.11606 5.12567, 1.81279 5.83968, 1.44107 6.7193, 1.25484 7.5496, 1.25484 8.33058, 1.25484 8.88854, 1.40243 9.38208, 1.6976 9.81195, 1.99277 10.2418, 2.44583 10.4568, 3.05604 10.4564, 3.42408 10.4568, 3.78513 10.3684, 4.13882 10.1918, 4.49288 10.0151, 4.86165 9.71295, 5.24552 9.28455, 5.72692 8.74721, 6.13103 8.06118, 6.45859 7.22683, 6.78615 6.39284, 6.94992 5.61443, 6.94992 4.8916, 6.94992 4.35794, 6.80234 3.88611, 6.50717 3.47574, 6.212 3.06574, 5.76741 2.86038, 5.17302 2.86001 Z" stroke="none" fill="#000000" />
			<rect />
		</svg>
	</g>
	<path d="M -25.541 -53.6615 C -13.2313 -59.5205, 0.718545 -60.9692, 13.9695 -57.7646" fill="none" stroke="#000000" stroke-width="1.04999995" stroke-linecap="round" stroke-linejoin="round" transform="matrix(0.714286 0 -0 0.714286 88.1618 125.942)" />
	<path d="M 9.99261 -41.3201 C 27.0338 -37.199, 39.797 -23.0389, 42.1325 -5.66283" fill="none" stroke="#000000" stroke-width="1.04999995" stroke-linecap="round" stroke-linejoin="round" transform="matrix(0.714286 0 -0 0.714286 88.1618 125.942)" />
	<path d="M 0 0 L 35.8315 -148.165" fill="none" stroke="#000000" stroke-width="0.699999988" stroke-linecap="round" stroke-linejoin="round" stroke-dasharray="3.8535, 1.7465, 0.007, 2.093" transform="matrix(0.714286 0 -0 0.714286 88.1618 125.942)" />
	<path d="M 0 0 L 129.956 -17.4666" fill="none" stroke="#000000" stroke-width="0.699999988" stroke-linecap="round" stroke-linejoin="round" stroke-dasharray="3.8535, 1.7465, 0.007, 2.093" transform="matrix(0.714286 0 -0 0.714286 88.1618 125.942)" />
	<path d="M 53.9702 -7.25388 C 57.9764 22.5531, 37.0608 49.964, 7.25389 53.9702, 4.84945 54.2934, 2.42609 54.4555, 3.03531e-005 54.4555" fill="none" stroke="#000000" stroke-width="1.04999995" stroke-linecap="round" stroke-linejoin="round" transform="matrix(0.714286 0 -0 0.714286 88.1618 125.942)" />
	<path d="M 0 0 L 129.956 -17.4666" fill="none" stroke="#000000" stroke-width="0.699999988" stroke-linecap="round" stroke-linejoin="round" stroke-dasharray="3.8535, 1.7465, 0.007, 2.093" transform="matrix(0.714286 0 -0 0.714286 88.1618 125.942)" />
	<path d="M 0 0 L -3.05176e-005 131.315" fill="none" stroke="#000000" stroke-width="0.699999988" stroke-linecap="round" stroke-linejoin="round" stroke-dasharray="3.8535, 1.7465, 0.007, 2.093" transform="matrix(0.714286 0 -0 0.714286 88.1618 125.942)" />
	<path d="M 1.93248e-005 42.5112 C -23.4783 42.5112, -42.5113 23.4783, -42.5113 3.25518e-005, -42.5113 -16.3997, -33.078 -31.337, -18.27 -38.3851" fill="none" stroke="#000000" stroke-width="1.04999995" stroke-linecap="round" stroke-linejoin="round" transform="matrix(0.714286 0 -0 0.714286 88.1618 127.003)" />
	<path d="M 0 0 L 3.05177e-005 129.83" fill="none" stroke="#000000" stroke-width="0.699999988" stroke-linecap="round" stroke-linejoin="round" stroke-dasharray="3.8535, 1.7465, 0.007, 2.093" transform="matrix(0.714286 0 -0 0.714286 88.1618 127.003)" />
	<path d="M 0 0 L -70.521 -148.165" fill="none" stroke="#000000" stroke-width="0.699999988" stroke-linecap="round" stroke-linejoin="round" stroke-dasharray="3.8535, 1.7465, 0.007, 2.093" transform="matrix(0.714286 0 -0 0.714286 88.1618 127.003)" />
	<g transform="matrix(1 0 -0 1 83.3381 66.3874)">
		<svg width="21.03722" height="21.0283432">
			<defs />
			<path d="M 2.58642 5.32147 C 2.78479 5.5261, 2.93458 5.73, 3.03543 5.9339, 3.1083 6.07559, 3.22755 6.44658, 3.39316 7.04685 L 3.92683 6.26955 C 4.06852 6.08148, 4.2404 5.90188, 4.44245 5.7311, 4.64488 5.56033, 4.82264 5.44366, 4.97611 5.38036, 5.07328 5.34135, 5.18074 5.32184, 5.29778 5.32147, 5.4715 5.32184, 5.61025 5.36711, 5.7133 5.45728, 5.81635 5.54782, 5.86788 5.6575, 5.86788 5.78668, 5.86788 5.9361, 5.8377 6.03842, 5.7766 6.09289, 5.66362 6.19152, 5.53443 6.24047, 5.38869 6.24011, 5.30404 6.24047, 5.21276 6.22281, 5.1156 6.18711, 4.92569 6.12454, 4.79835 6.09326, 4.73357 6.09289, 4.63641 6.09326, 4.52121 6.1481, 4.38798 6.25777, 4.13735 6.4624, 3.83813 6.85694, 3.49033 7.44139 L 3.98755 9.4671 C 4.06447 9.77773, 4.12925 9.96322, 4.18151 10.0239, 4.23414 10.085, 4.28677 10.1152, 4.3394 10.1149, 4.42442 10.1152, 4.52342 10.07, 4.63641 9.97941, 4.85908 9.79907, 5.04899 9.56353, 5.20651 9.27277 L 5.41887 9.37877 C 5.16418 9.8425, 4.84067 10.2271, 4.44834 10.5329, 4.22604 10.7059, 4.03834 10.792, 3.8845 10.792, 3.65815 10.792, 3.47818 10.6684, 3.34458 10.4211, 3.25993 10.2683, 3.08401 9.60879, 2.81681 8.44247, 2.18599 9.50685, 1.68067 10.1918, 1.30048 10.4976, 1.05389 10.6941, 0.815399 10.792, 0.585004 10.792, 0.423434 10.792, 0.275849 10.7354, 0.14225 10.6213, 0.0454547 10.5352, -0.00312686 10.4196, -0.00349489 10.2738, -0.00312686 10.1447, 0.0414062 10.0368, 0.130104 9.95034, 0.219171 9.86421, 0.328479 9.82079, 0.457662 9.82042, 0.587213 9.82079, 0.724492 9.88372, 0.869869 10.0089, 0.975129 10.0994, 1.0561 10.1447, 1.11241 10.1443, 1.16099 10.1447, 1.22393 10.1134, 1.30048 10.0501, 1.49076 9.90139, 1.74949 9.57935, 2.07705 9.0847, 2.4046 8.59005, 2.61917 8.23269, 2.72002 8.0126, 2.46938 7.059, 2.33394 6.55441, 2.31333 6.49921, 2.22058 6.24452, 2.09913 6.06381, 1.9497 5.95782, 1.80028 5.85182, 1.57982 5.79882, 1.28833 5.79846, 1.19559 5.79882, 1.08849 5.80287, 0.967032 5.81023 L 0.967032 5.59824 Z" stroke="none" fill="#000000" />
			<rect />
		</svg>
	</g>
	<g transform="matrix(1 0 -0 1 113.856 89.4686)">
		<svg width="38.9609985" height="29.9858208">
			<defs />
			<path d="M 5.37246 9.11048 L 4.808 10.6167, 0.0527782 10.6167, 0.0527782 10.4032 C 1.4515 9.16458, 2.43616 8.15287, 3.00676 7.36803, 3.57735 6.58319, 3.86265 5.86579, 3.86265 5.21512, 3.86265 4.71919, 3.70648 4.31162, 3.39341 3.99205, 3.08034 3.67285, 2.70595 3.51307, 2.26989 3.51271, 1.87386 3.51307, 1.51823 3.6256, 1.20299 3.85067, 0.887755 4.07573, 0.655116 4.40576, 0.504351 4.84002 L 0.284335 4.84002 C 0.383523 4.12875, 0.638164 3.58232, 1.04826 3.20144, 1.45871 2.82056, 1.97088 2.63012, 2.58476 2.62976, 3.23867 2.63012, 3.78439 2.83427, 4.22225 3.24184, 4.66012 3.64977, 4.87905 4.13056, 4.87905 4.6842, 4.87905 5.08095, 4.78419 5.47698, 4.59375 5.87301, 4.30088 6.49662, 3.82514 7.15631, 3.16726 7.85243, 2.1808 8.89912, 1.56475 9.53031, 1.31877 9.74528 L 3.42298 9.74528 C 3.85111 9.74564, 4.1512 9.73049, 4.3236 9.69947, 4.49601 9.66882, 4.65146 9.60642, 4.78996 9.51192, 4.92883 9.41778, 5.04965 9.28397, 5.15281 9.11048 Z" stroke="none" fill="#000000" />
			<path d="M 8.31547 5.32147 C 8.51384 5.5261, 8.66364 5.73, 8.76448 5.9339, 8.83735 6.07559, 8.9566 6.44658, 9.12222 7.04685 L 9.65588 6.26955 C 9.79757 6.08148, 9.96945 5.90188, 10.1715 5.7311, 10.3739 5.56033, 10.5517 5.44366, 10.7052 5.38036, 10.8023 5.34135, 10.9098 5.32184, 11.0268 5.32147, 11.2005 5.32184, 11.3393 5.36711, 11.4424 5.45728, 11.5454 5.54782, 11.5969 5.6575, 11.5969 5.78668, 11.5969 5.9361, 11.5668 6.03842, 11.5057 6.09289, 11.3927 6.19152, 11.2635 6.24047, 11.1177 6.24011, 11.0331 6.24047, 10.9418 6.22281, 10.8447 6.18711, 10.6547 6.12454, 10.5274 6.09326, 10.4626 6.09289, 10.3655 6.09326, 10.2503 6.1481, 10.117 6.25777, 9.8664 6.4624, 9.56718 6.85694, 9.21938 7.44139 L 9.7166 9.4671 C 9.79352 9.77773, 9.8583 9.96322, 9.91056 10.0239, 9.96319 10.085, 10.0158 10.1152, 10.0685 10.1149, 10.1535 10.1152, 10.2525 10.07, 10.3655 9.97941, 10.5881 9.79907, 10.778 9.56353, 10.9356 9.27277 L 11.1479 9.37877 C 10.8932 9.8425, 10.5697 10.2271, 10.1774 10.5329, 9.95509 10.7059, 9.76739 10.792, 9.61355 10.792, 9.38721 10.792, 9.20723 10.6684, 9.07363 10.4211, 8.98898 10.2683, 8.81306 9.60879, 8.54586 8.44247, 7.91504 9.50685, 7.40972 10.1918, 7.02953 10.4976, 6.78294 10.6941, 6.54445 10.792, 6.31406 10.792, 6.15248 10.792, 6.0049 10.7354, 5.8713 10.6213, 5.77451 10.5352, 5.72592 10.4196, 5.72556 10.2738, 5.72592 10.1447, 5.77046 10.0368, 5.85916 9.95034, 5.94822 9.86421, 6.05753 9.82079, 6.18671 9.82042, 6.31626 9.82079, 6.45354 9.88372, 6.59892 10.0089, 6.70418 10.0994, 6.78515 10.1447, 6.84146 10.1443, 6.89004 10.1447, 6.95298 10.1134, 7.02953 10.0501, 7.21981 9.90139, 7.47854 9.57935, 7.8061 9.0847, 8.13365 8.59005, 8.34822 8.23269, 8.44907 8.0126, 8.19843 7.059, 8.06299 6.55441, 8.04238 6.49921, 7.94963 6.24452, 7.82818 6.06381, 7.67875 5.95782, 7.52933 5.85182, 7.30887 5.79882, 7.01738 5.79846, 6.92464 5.79882, 6.81754 5.80287, 6.69608 5.81023 L 6.69608 5.59824 Z" stroke="none" fill="#000000" />
			<rect />
		</svg>
	</g>
	<g transform="matrix(1 0 -0 1 121.421 149.138)">
		<svg width="38.9609985" height="29.9858208">
			<defs />
			<path d="M 0.175248 4.28024 C 0.405363 3.75364, 0.69535 3.3468, 1.04593 3.06005, 1.39651 2.77367, 1.8333 2.63012, 2.35629 2.62976, 3.00227 2.63012, 3.49748 2.83391, 3.84193 3.24148, 4.10379 3.54589, 4.23435 3.87087, 4.23435 4.21676, 4.23435 4.78663, 3.8661 5.37527, 3.12887 5.98265, 3.62444 6.17165, 3.99883 6.44108, 4.25239 6.79094, 4.50595 7.14116, 4.63255 7.5527, 4.63255 8.02555, 4.63255 8.70291, 4.41073 9.28974, 3.96673 9.78568, 3.38856 10.4324, 2.55069 10.7552, 1.45314 10.7552, 0.910316 10.7552, 0.540979 10.6899, 0.344768 10.5593, 0.148558 10.4288, 0.0504523 10.2881, 0.0504523 10.1377, 0.0504523 10.0266, 0.0973408 9.92851, 0.190397 9.84375, 0.283452 9.75935, 0.395263 9.71679, 0.52583 9.71642, 0.625017 9.71679, 0.726008 9.7323, 0.829163 9.76259, 0.89661 9.78207, 1.04918 9.8524, 1.28687 9.97359, 1.52456 10.0948, 1.68903 10.1669, 1.77992 10.1896, 1.92636 10.2322, 2.08289 10.2535, 2.24953 10.2531, 2.65349 10.2535, 3.00515 10.1016, 3.30416 9.79758, 3.60352 9.49389, 3.75284 9.13393, 3.75284 8.71806, 3.75284 8.41437, 3.68359 8.11825, 3.54473 7.82934, 3.44194 7.61438, 3.32904 7.45063, 3.20605 7.33882, 3.03581 7.18516, 2.80209 7.04594, 2.50489 6.92079, 2.20769 6.79599, 1.90471 6.73323, 1.59561 6.73287 L 1.40553 6.73287, 1.40553 6.55974 C 1.7186 6.52151, 2.0324 6.41223, 2.34727 6.23116, 2.66251 6.05046, 2.89118 5.83297, 3.03401 5.57905, 3.17684 5.32513, 3.24789 5.04633, 3.24789 4.74191, 3.24789 4.34588, 3.12021 4.02596, 2.86449 3.78142, 2.60912 3.53724, 2.291 3.41496, 1.91048 3.4146, 1.29661 3.41496, 0.783356 3.73417, 0.371459 4.37257 Z" stroke="none" fill="#000000" />
			<path d="M 8.07918 5.32147 C 8.27756 5.5261, 8.42735 5.73, 8.5282 5.9339, 8.60107 6.07559, 8.72031 6.44658, 8.88593 7.04685 L 9.41959 6.26955 C 9.56129 6.08148, 9.73317 5.90188, 9.93522 5.7311, 10.1376 5.56033, 10.3154 5.44366, 10.4689 5.38036, 10.566 5.34135, 10.6735 5.32184, 10.7906 5.32147, 10.9643 5.32184, 11.103 5.36711, 11.2061 5.45728, 11.3091 5.54782, 11.3606 5.6575, 11.3606 5.78668, 11.3606 5.9361, 11.3305 6.03842, 11.2694 6.09289, 11.1564 6.19152, 11.0272 6.24047, 10.8815 6.24011, 10.7968 6.24047, 10.7055 6.22281, 10.6084 6.18711, 10.4185 6.12454, 10.2911 6.09326, 10.2263 6.09289, 10.1292 6.09326, 10.014 6.1481, 9.88075 6.25777, 9.63011 6.4624, 9.3309 6.85694, 8.9831 7.44139 L 9.48032 9.4671 C 9.55724 9.77773, 9.62202 9.96322, 9.67428 10.0239, 9.72691 10.085, 9.77954 10.1152, 9.83217 10.1149, 9.91719 10.1152, 10.0162 10.07, 10.1292 9.97941, 10.3518 9.79907, 10.5418 9.56353, 10.6993 9.27277 L 10.9116 9.37877 C 10.657 9.8425, 10.3334 10.2271, 9.94111 10.5329, 9.71881 10.7059, 9.53111 10.792, 9.37727 10.792, 9.15092 10.792, 8.97095 10.6684, 8.83735 10.4211, 8.7527 10.2683, 8.57678 9.60879, 8.30958 8.44247, 7.67876 9.50685, 7.17343 10.1918, 6.79325 10.4976, 6.54666 10.6941, 6.30817 10.792, 6.07777 10.792, 5.9162 10.792, 5.76862 10.7354, 5.63502 10.6213, 5.53822 10.5352, 5.48964 10.4196, 5.48927 10.2738, 5.48964 10.1447, 5.53417 10.0368, 5.62287 9.95034, 5.71194 9.86421, 5.82125 9.82079, 5.95043 9.82042, 6.07998 9.82079, 6.21726 9.88372, 6.36264 10.0089, 6.4679 10.0994, 6.54887 10.1447, 6.60518 10.1443, 6.65376 10.1447, 6.71669 10.1134, 6.79325 10.0501, 6.98352 9.90139, 7.24226 9.57935, 7.56981 9.0847, 7.89737 8.59005, 8.11194 8.23269, 8.21278 8.0126, 7.96215 7.059, 7.82671 6.55441, 7.8061 6.49921, 7.71335 6.24452, 7.5919 6.06381, 7.44247 5.95782, 7.29305 5.85182, 7.07259 5.79882, 6.7811 5.79846, 6.68835 5.79882, 6.58125 5.80287, 6.4598 5.81023 L 6.4598 5.59824 Z" stroke="none" fill="#000000" />
			<rect />
		</svg>
	</g>
	<g transform="matrix(1 0 -0 1 43.4726 135.269)">
		<svg width="38.9609985" height="29.9858208">
			<defs />
			<path d="M 5.52791 7.73124 L 5.52791 8.5507, 4.44623 8.5507, 4.44623 10.6167, 3.46554 10.6167, 3.46554 8.5507, 0.0545738 8.5507, 0.0545738 7.81203, 3.79267 2.62976, 4.44623 2.62976, 4.44623 7.73124 Z M 3.46554 7.73124 L 3.46554 3.84742, 0.637074 7.73124 Z" stroke="none" fill="#000000" />
			<path d="M 8.38834 5.32147 C 8.58671 5.5261, 8.73651 5.73, 8.83735 5.9339, 8.91022 6.07559, 9.02947 6.44658, 9.19509 7.04685 L 9.72875 6.26955 C 9.87045 6.08148, 10.0423 5.90188, 10.2444 5.7311, 10.4468 5.56033, 10.6246 5.44366, 10.778 5.38036, 10.8752 5.34135, 10.9827 5.32184, 11.0997 5.32147, 11.2734 5.32184, 11.4122 5.36711, 11.5152 5.45728, 11.6183 5.54782, 11.6698 5.6575, 11.6698 5.78668, 11.6698 5.9361, 11.6396 6.03842, 11.5785 6.09289, 11.4655 6.19152, 11.3364 6.24047, 11.1906 6.24011, 11.106 6.24047, 11.0147 6.22281, 10.9175 6.18711, 10.7276 6.12454, 10.6003 6.09326, 10.5355 6.09289, 10.4383 6.09326, 10.3231 6.1481, 10.1899 6.25777, 9.93927 6.4624, 9.64005 6.85694, 9.29225 7.44139 L 9.78948 9.4671 C 9.8664 9.77773, 9.93117 9.96322, 9.98343 10.0239, 10.0361 10.085, 10.0887 10.1152, 10.1413 10.1149, 10.2263 10.1152, 10.3253 10.07, 10.4383 9.97941, 10.661 9.79907, 10.8509 9.56353, 11.0084 9.27277 L 11.2208 9.37877 C 10.9661 9.8425, 10.6426 10.2271, 10.2503 10.5329, 10.028 10.7059, 9.84027 10.792, 9.68642 10.792, 9.46008 10.792, 9.28011 10.6684, 9.14651 10.4211, 9.06186 10.2683, 8.88593 9.60879, 8.61873 8.44247, 7.98791 9.50685, 7.48259 10.1918, 7.1024 10.4976, 6.85581 10.6941, 6.61732 10.792, 6.38693 10.792, 6.22536 10.792, 6.07777 10.7354, 5.94417 10.6213, 5.84738 10.5352, 5.7988 10.4196, 5.79843 10.2738, 5.7988 10.1447, 5.84333 10.0368, 5.93203 9.95034, 6.02109 9.86421, 6.1304 9.82079, 6.25959 9.82042, 6.38914 9.82079, 6.52642 9.88372, 6.67179 10.0089, 6.77705 10.0994, 6.85802 10.1447, 6.91433 10.1443, 6.96291 10.1447, 7.02585 10.1134, 7.1024 10.0501, 7.29268 9.90139, 7.55141 9.57935, 7.87897 9.0847, 8.20653 8.59005, 8.4211 8.23269, 8.52194 8.0126, 8.2713 7.059, 8.13586 6.55441, 8.11525 6.49921, 8.02251 6.24452, 7.90105 6.06381, 7.75163 5.95782, 7.6022 5.85182, 7.38175 5.79882, 7.09026 5.79846, 6.99751 5.79882, 6.89041 5.80287, 6.76896 5.81023 L 6.76896 5.59824 Z" stroke="none" fill="#000000" />
			<rect />
		</svg>
	</g>
</svg>
