<?xml version="1.0"?>
<svg xmlns="http://www.w3.org/2000/svg" xmlns:xlink="http://www.w3.org/1999/xlink" width="246.270218" height="174.238922">
	<defs />
	<rect x="-0" y="-0" width="246.270218" height="174.238922" stroke="none" fill="#FFFFFF" />
	<path d="M -245.429 0 L 245.429 0" fill="none" stroke="#000000" stroke-width="2.5" stroke-linecap="round" stroke-linejoin="round" transform="matrix(0.4 0 0 0.4 125.139 96.5195)" />
	<path d="M -212.929 157.5 L 212.929 -157.5" fill="none" stroke="#000000" stroke-width="2.5" stroke-linecap="round" stroke-linejoin="round" transform="matrix(0.4 0 0 0.4 125.139 85.1195)" />
	<g transform="matrix(1 0 -0 1 214.011 7.75)">
		<svg width="27.0496273" height="29.9858208">
			<defs />
			<path d="M 7.00329 2.48313 L 6.37872 9.12556 C 6.34633 9.43618, 6.33014 9.64008, 6.33014 9.73798, 6.33014 9.8955, 6.36069 10.0151, 6.42105 10.0972, 6.49797 10.2113, 6.60212 10.2959, 6.73351 10.3508, 6.86491 10.406, 7.0861 10.4332, 7.39746 10.4328 L 7.33085 10.6507, 4.09208 10.6507, 4.15869 10.4328, 4.29818 10.4328 C 4.56096 10.4332, 4.77553 10.3784, 4.94115 10.268, 5.05856 10.1936, 5.14946 10.07, 5.21387 9.89697, 5.25877 9.77552, 5.3011 9.48918, 5.34121 9.03722 L 5.43837 8.02437, 3.08511 8.02437, 2.24819 9.12556 C 2.05828 9.37325, 1.93903 9.55101, 1.89045 9.65885, 1.84187 9.76705, 1.81758 9.8679, 1.81758 9.96175, 1.81758 10.0876, 1.87021 10.1958, 1.97547 10.286, 2.08073 10.3765, 2.25444 10.4255, 2.49662 10.4328 L 2.43 10.6507, -0.00202161 10.6507, 0.064594 10.4328 C 0.36418 10.4214, 0.627698 10.3243, 0.856252 10.1417, 1.08481 9.95917, 1.42525 9.56941, 1.87794 8.97245 L 6.79093 2.48313 Z M 5.80237 4.44406 L 3.41856 7.5945, 5.48696 7.5945 Z" stroke="none" fill="#000000" />
			<rect />
		</svg>
	</g>
	<g transform="matrix(1 0 -0 1 230.902 89.35)">
		<svg width="27.0496273" height="29.9858208">
			<defs />
			<path d="M 2.12269 2.88356 L 2.2077 2.66568, 5.14321 2.66568 C 5.63675 2.66605, 6.07656 2.74076, 6.46264 2.88982, 6.84871 3.03924, 7.13763 3.24719, 7.32974 3.51402, 7.52186 3.78122, 7.61792 4.06351, 7.61792 4.36162, 7.61792 4.8213, 7.44715 5.23646, 7.10561 5.60744, 6.76406 5.97843, 6.20685 6.25225, 5.43433 6.42854, 5.93192 6.60962, 6.29775 6.84922, 6.5322 7.14733, 6.76701 7.44581, 6.88404 7.77337, 6.88404 8.13037, 6.88404 8.52712, 6.77915 8.9062, 6.56863 9.26725, 6.35848 9.62867, 6.08871 9.90912, 5.75894 10.1093, 5.42954 10.3095, 5.03206 10.4568, 4.56685 10.5506, 4.23561 10.6176, 3.71815 10.6507, 3.01445 10.6507 L -0.000180542 10.6507, 0.0785805 10.4328 C 0.39436 10.4255, 0.608561 10.396, 0.72155 10.3445, 0.883488 10.2783, 0.998685 10.1899, 1.06751 10.0795, 1.16467 9.93083, 1.29386 9.58929, 1.45543 9.05489 L 2.92943 4.22029 C 3.05494 3.8125, 3.1175 3.5258, 3.1175 3.36055, 3.1175 3.21554, 3.06193 3.10108, 2.95078 3.01643, 2.83963 2.93214, 2.62801 2.88982, 2.31664 2.88945, 2.24819 2.88982, 2.18341 2.88798, 2.12269 2.88356 Z M 3.35379 6.19889 C 3.61694 6.20698, 3.80721 6.21103, 3.92425 6.21066, 4.76523 6.21103, 5.3909 6.03363, 5.80127 5.67811, 6.212 5.32295, 6.417 4.87835, 6.417 4.34395, 6.417 3.93984, 6.29187 3.62517, 6.04086 3.39919, 5.79022 3.17358, 5.38979 3.06059, 4.83994 3.06022, 4.69456 3.06059, 4.5087 3.08415, 4.28199 3.13089 Z M 2.15912 10.1325 C 2.59599 10.1877, 2.93753 10.2153, 3.18412 10.215, 3.81494 10.2153, 4.374 10.0309, 4.86129 9.66179, 5.34857 9.29301, 5.59222 8.79211, 5.59222 8.15981, 5.59222 7.67731, 5.44169 7.30044, 5.14026 7.02956, 4.8392 6.75868, 4.35265 6.62324, 3.68134 6.62287, 3.55216 6.62324, 3.39464 6.62913, 3.20841 6.64054 Z" stroke="none" fill="#000000" />
			<rect />
		</svg>
	</g>
	<g transform="matrix(1 0 -0 1 28.5597 152.15)">
		<svg width="27.0496273" height="29.9858208">
			<defs />
			<path d="M 7.89947 2.48313 L 7.28705 5.06826, 7.0688 5.06826, 7.04451 4.42051 C 7.02427 4.18533, 6.97789 3.97554, 6.90502 3.79079, 6.83215 3.6064, 6.72321 3.4463, 6.57746 3.31086, 6.43172 3.17542, 6.2477 3.06942, 6.0254 2.99287, 5.8031 2.91632, 5.55652 2.87804, 5.28527 2.87767, 4.5617 2.87804, 3.92867 3.07053, 3.38691 3.45476, 2.69573 3.94573, 2.15397 4.63876, 1.76164 5.53347, 1.43813 6.27176, 1.27619 7.01962, 1.27619 7.77705, 1.27619 8.55067, 1.50879 9.16825, 1.974 9.6294, 2.4392 10.0909, 3.04353 10.3213, 3.78734 10.321, 4.34971 10.3213, 4.84988 10.1999, 5.28858 9.95623, 5.72729 9.71295, 6.13471 9.33792, 6.51048 8.83112 L 6.79571 8.83112 C 6.35112 9.51862, 5.85757 10.0239, 5.31582 10.3478, 4.77406 10.6717, 4.12483 10.8333, 3.36887 10.8333, 2.69757 10.8333, 2.10318 10.6971, 1.58571 10.4244, 1.06824 10.1517, 0.673703 9.76779, 0.402824 9.27314, 0.131945 8.77849, -0.00349414 8.24667, -0.00349414 7.67694, -0.00349414 6.80579, 0.237205 5.95782, 0.718236 5.1334, 1.19964 4.30899, 1.85953 3.66124, 2.69867 3.19014, 3.53781 2.71905, 4.38393 2.4835, 5.23706 2.48313, 5.63749 2.4835, 6.08613 2.57588, 6.58335 2.7599, 6.80197 2.83866, 6.95949 2.87804, 7.05666 2.87767, 7.15382 2.87804, 7.23847 2.85854, 7.31134 2.81916, 7.38421 2.78014, 7.5053 2.66789, 7.67533 2.48313 Z" stroke="none" fill="#000000" />
			<rect />
		</svg>
	</g>
	<g transform="matrix(1 0 -0 1 7.75 89.35)">
		<svg width="32.9485931" height="29.9858208">
			<defs />
			<path d="M 2.18875 2.88356 L 2.26125 2.66568, 4.8876 2.66568 C 5.99982 2.66605, 6.8235 2.78971, 7.35937 3.03704, 7.89524 3.28436, 8.32254 3.67412, 8.642 4.20594, 8.96146 4.73813, 9.12119 5.30822, 9.12119 5.91623, 9.12119 6.43885, 9.02955 6.94638, 8.84552 7.43882, 8.6615 7.93163, 8.45319 8.32617, 8.22059 8.62244, 7.98799 8.91908, 7.63135 9.2459, 7.14996 9.60291, 6.66892 9.96027, 6.14741 10.2242, 5.58541 10.3949, 5.02341 10.5657, 4.32192 10.6507, 3.48058 10.6507 L -0.0010998 10.6507, 0.0780292 10.4328 C 0.39749 10.4255, 0.61169 10.3979, 0.720631 10.3504, 0.882569 10.2842, 1.00218 10.1936, 1.07874 10.0795, 1.19614 9.915, 1.32753 9.5834, 1.47291 9.08433 L 2.92851 4.25562 C 3.04187 3.87507, 3.09855 3.57695, 3.09855 3.36055, 3.09855 3.20781, 3.04629 3.09003, 2.94103 3.00759, 2.83577 2.92515, 2.62966 2.88393, 2.32198 2.88356 Z M 4.3418 3.10733 L 2.55863 9.08433 C 2.4254 9.53224, 2.35842 9.80901, 2.35842 9.91464, 2.35842 9.97794, 2.37976 10.0387, 2.42209 10.0976, 2.46478 10.1564, 2.5222 10.1958, 2.59507 10.215, 2.70033 10.2507, 2.87 10.2683, 3.10444 10.268, 3.73931 10.2683, 4.32855 10.2047, 4.87251 10.0769, 5.41648 9.9496, 5.86255 9.76006, 6.20998 9.50832, 6.70315 9.14359, 7.09733 8.64121, 7.3925 8.00119, 7.68766 7.36153, 7.83525 6.63317, 7.83525 5.81612, 7.83525 4.89381, 7.6089 4.20815, 7.15621 3.7584, 6.70352 3.30902, 6.04215 3.08415, 5.17283 3.08378, 4.95863 3.08415, 4.6815 3.09187, 4.3418 3.10733 Z" stroke="none" fill="#000000" />
			<rect />
		</svg>
	</g>
	<g transform="matrix(1 0 -0 1 105.623 77.95)">
		<svg width="29.9991093" height="29.9858208">
			<defs />
			<path d="M 5.37912 2.48313 C 5.9253 2.4835, 6.40853 2.59833, 6.82884 2.82799, 7.24951 3.05765, 7.57891 3.39735, 7.8174 3.84673, 8.05589 4.29648, 8.17514 4.76242, 8.17514 5.24492, 8.17514 6.10099, 7.91971 6.99938, 7.40814 7.93936, 6.89656 8.8797, 6.22856 9.59702, 5.40341 10.0917, 4.57863 10.5863, 3.72551 10.8333, 2.84368 10.8333, 2.20918 10.8333, 1.67846 10.6971, 1.2519 10.4244, 0.825338 10.1517, 0.509926 9.79134, 0.305662 9.3438, 0.101399 8.89627, -0.0009166 8.46234, -0.0009166 8.04204, -0.0009166 7.29639, 0.184209 6.55957, 0.554091 5.83121, 0.924341 5.10322, 1.36599 4.49448, 1.87941 4.00572, 2.3932 3.51696, 2.94084 3.14119, 3.52309 2.87804, 4.10533 2.61526, 4.72401 2.4835, 5.37912 2.48313 Z M 5.17302 2.86001 C 4.76891 2.86038, 4.37363 2.95754, 3.98719 3.15187, 3.60111 3.34619, 3.21798 3.66418, 2.83779 4.10583, 2.45797 4.54748, 2.11606 5.12567, 1.81279 5.83968, 1.44107 6.7193, 1.25484 7.5496, 1.25484 8.33058, 1.25484 8.88854, 1.40243 9.38208, 1.6976 9.81195, 1.99277 10.2418, 2.44583 10.4568, 3.05604 10.4564, 3.42408 10.4568, 3.78513 10.3684, 4.13882 10.1918, 4.49288 10.0151, 4.86165 9.71295, 5.24552 9.28455, 5.72692 8.74721, 6.13103 8.06118, 6.45859 7.22683, 6.78615 6.39284, 6.94992 5.61443, 6.94992 4.8916, 6.94992 4.35794, 6.80234 3.88611, 6.50717 3.47574, 6.212 3.06574, 5.76741 2.86038, 5.17302 2.86001 Z" stroke="none" fill="#000000" />
			<rect />
		</svg>
	</g>
	<path d="M 61.0346 -45.139 C 70.6977 -32.0731, 75.9128 -16.251, 75.9128 -2.83758e-005" fill="none" stroke="#000000" stroke-width="1.875" stroke-linecap="round" stroke-linejoin="round" transform="matrix(0.4 0 -0 0.4 109.711 96.5195)" />
	<path d="M 0 0 L 251.5 -186" fill="none" stroke="#000000" stroke-width="1.25" stroke-linecap="round" stroke-linejoin="round" stroke-dasharray="6.88125, 3.11875, 0.0125, 3.7375" transform="matrix(0.4 0 -0 0.4 109.711 96.5195)" />
	<path d="M 0 0 L 159.417 0" fill="none" stroke="#000000" stroke-width="1.25" stroke-linecap="round" stroke-linejoin="round" stroke-dasharray="6.88125, 3.11875, 0.0125, 3.7375" transform="matrix(0.4 0 -0 0.4 109.711 96.5195)" />
</svg>
