<?xml version="1.0"?>
<svg xmlns="http://www.w3.org/2000/svg" xmlns:xlink="http://www.w3.org/1999/xlink" width="250" height="168.333313">
	<defs>
		<marker id="CustomMarker-01" markerUnits="strokeWidth" markerWidth="21" markerHeight="15.000001" viewBox="-21 -7.5 21 15" orient="auto-start-reverse">
			<path d="M 0 -0 L -14 -5, -11.2 -0.5, -11.2 0.5, -14 5 Z" fill="#000000" stroke="#000000" stroke-linejoin="round" />
		</marker>
	</defs>
	<rect x="-0" y="-0" width="250" height="168.333313" stroke="none" fill="#FFFFFF" />
	<path d="M -294.516 0 L 294.515 0" fill="none" stroke="#000000" stroke-width="3" stroke-linecap="round" stroke-linejoin="round" transform="matrix(0.333333 0 0 0.333333 -607.64 39.7629)" />
	<path d="M -255.516 189 L 255.515 -189" fill="none" stroke="#000000" stroke-width="3" stroke-linecap="round" stroke-linejoin="round" transform="matrix(0.333333 0 0 0.333333 -607.64 28.3631)" />
	<g transform="matrix(1 0 -0 1 -518.768 -49.0065)">
		<svg width="27.0496273" height="29.9858208">
			<defs />
			<path d="M 7.00329 2.48313 L 6.37872 9.12556 C 6.34633 9.43618, 6.33014 9.64008, 6.33014 9.73798, 6.33014 9.8955, 6.36069 10.0151, 6.42105 10.0972, 6.49797 10.2113, 6.60212 10.2959, 6.73351 10.3508, 6.86491 10.406, 7.0861 10.4332, 7.39746 10.4328 L 7.33085 10.6507, 4.09208 10.6507, 4.15869 10.4328, 4.29818 10.4328 C 4.56096 10.4332, 4.77553 10.3784, 4.94115 10.268, 5.05856 10.1936, 5.14946 10.07, 5.21387 9.89697, 5.25877 9.77552, 5.3011 9.48918, 5.34121 9.03722 L 5.43837 8.02437, 3.08511 8.02437, 2.24819 9.12556 C 2.05828 9.37325, 1.93903 9.55101, 1.89045 9.65885, 1.84187 9.76705, 1.81758 9.8679, 1.81758 9.96175, 1.81758 10.0876, 1.87021 10.1958, 1.97547 10.286, 2.08073 10.3765, 2.25444 10.4255, 2.49662 10.4328 L 2.43 10.6507, -0.00202161 10.6507, 0.064594 10.4328 C 0.36418 10.4214, 0.627698 10.3243, 0.856252 10.1417, 1.08481 9.95917, 1.42525 9.56941, 1.87794 8.97245 L 6.79093 2.48313 Z M 5.80237 4.44406 L 3.41856 7.5945, 5.48696 7.5945 Z" stroke="none" fill="#000000" />
			<rect />
		</svg>
	</g>
	<g transform="matrix(1 0 -0 1 -501.877 32.5935)">
		<svg width="27.0496273" height="29.9858208">
			<defs />
			<path d="M 2.12269 2.88356 L 2.2077 2.66568, 5.14321 2.66568 C 5.63675 2.66605, 6.07656 2.74076, 6.46264 2.88982, 6.84871 3.03924, 7.13763 3.24719, 7.32974 3.51402, 7.52186 3.78122, 7.61792 4.06351, 7.61792 4.36162, 7.61792 4.8213, 7.44715 5.23646, 7.10561 5.60744, 6.76406 5.97843, 6.20685 6.25225, 5.43433 6.42854, 5.93192 6.60962, 6.29775 6.84922, 6.5322 7.14733, 6.76701 7.44581, 6.88404 7.77337, 6.88404 8.13037, 6.88404 8.52712, 6.77915 8.9062, 6.56863 9.26725, 6.35848 9.62867, 6.08871 9.90912, 5.75894 10.1093, 5.42954 10.3095, 5.03206 10.4568, 4.56685 10.5506, 4.23561 10.6176, 3.71815 10.6507, 3.01445 10.6507 L -0.000180542 10.6507, 0.0785805 10.4328 C 0.39436 10.4255, 0.608561 10.396, 0.72155 10.3445, 0.883488 10.2783, 0.998685 10.1899, 1.06751 10.0795, 1.16467 9.93083, 1.29386 9.58929, 1.45543 9.05489 L 2.92943 4.22029 C 3.05494 3.8125, 3.1175 3.5258, 3.1175 3.36055, 3.1175 3.21554, 3.06193 3.10108, 2.95078 3.01643, 2.83963 2.93214, 2.62801 2.88982, 2.31664 2.88945, 2.24819 2.88982, 2.18341 2.88798, 2.12269 2.88356 Z M 3.35379 6.19889 C 3.61694 6.20698, 3.80721 6.21103, 3.92425 6.21066, 4.76523 6.21103, 5.3909 6.03363, 5.80127 5.67811, 6.212 5.32295, 6.417 4.87835, 6.417 4.34395, 6.417 3.93984, 6.29187 3.62517, 6.04086 3.39919, 5.79022 3.17358, 5.38979 3.06059, 4.83994 3.06022, 4.69456 3.06059, 4.5087 3.08415, 4.28199 3.13089 Z M 2.15912 10.1325 C 2.59599 10.1877, 2.93753 10.2153, 3.18412 10.215, 3.81494 10.2153, 4.374 10.0309, 4.86129 9.66179, 5.34857 9.29301, 5.59222 8.79211, 5.59222 8.15981, 5.59222 7.67731, 5.44169 7.30044, 5.14026 7.02956, 4.8392 6.75868, 4.35265 6.62324, 3.68134 6.62287, 3.55216 6.62324, 3.39464 6.62913, 3.20841 6.64054 Z" stroke="none" fill="#000000" />
			<rect />
		</svg>
	</g>
	<g transform="matrix(1 0 -0 1 -704.22 95.3934)">
		<svg width="27.0496273" height="29.9858208">
			<defs />
			<path d="M 7.89947 2.48313 L 7.28705 5.06826, 7.0688 5.06826, 7.04451 4.42051 C 7.02427 4.18533, 6.97789 3.97554, 6.90502 3.79079, 6.83215 3.6064, 6.72321 3.4463, 6.57746 3.31086, 6.43172 3.17542, 6.2477 3.06942, 6.0254 2.99287, 5.8031 2.91632, 5.55652 2.87804, 5.28527 2.87767, 4.5617 2.87804, 3.92867 3.07053, 3.38691 3.45476, 2.69573 3.94573, 2.15397 4.63876, 1.76164 5.53347, 1.43813 6.27176, 1.27619 7.01962, 1.27619 7.77705, 1.27619 8.55067, 1.50879 9.16825, 1.974 9.6294, 2.4392 10.0909, 3.04353 10.3213, 3.78734 10.321, 4.34971 10.3213, 4.84988 10.1999, 5.28858 9.95623, 5.72729 9.71295, 6.13471 9.33792, 6.51048 8.83112 L 6.79571 8.83112 C 6.35112 9.51862, 5.85757 10.0239, 5.31582 10.3478, 4.77406 10.6717, 4.12483 10.8333, 3.36887 10.8333, 2.69757 10.8333, 2.10318 10.6971, 1.58571 10.4244, 1.06824 10.1517, 0.673703 9.76779, 0.402824 9.27314, 0.131945 8.77849, -0.00349414 8.24667, -0.00349414 7.67694, -0.00349414 6.80579, 0.237205 5.95782, 0.718236 5.1334, 1.19964 4.30899, 1.85953 3.66124, 2.69867 3.19014, 3.53781 2.71905, 4.38393 2.4835, 5.23706 2.48313, 5.63749 2.4835, 6.08613 2.57588, 6.58335 2.7599, 6.80197 2.83866, 6.95949 2.87804, 7.05666 2.87767, 7.15382 2.87804, 7.23847 2.85854, 7.31134 2.81916, 7.38421 2.78014, 7.5053 2.66789, 7.67533 2.48313 Z" stroke="none" fill="#000000" />
			<rect />
		</svg>
	</g>
	<g transform="matrix(1 0 -0 1 -725.029 32.5935)">
		<svg width="32.9485931" height="29.9858208">
			<defs />
			<path d="M 2.18875 2.88356 L 2.26125 2.66568, 4.8876 2.66568 C 5.99982 2.66605, 6.8235 2.78971, 7.35937 3.03704, 7.89524 3.28436, 8.32254 3.67412, 8.642 4.20594, 8.96146 4.73813, 9.12119 5.30822, 9.12119 5.91623, 9.12119 6.43885, 9.02955 6.94638, 8.84552 7.43882, 8.6615 7.93163, 8.45319 8.32617, 8.22059 8.62244, 7.98799 8.91908, 7.63135 9.2459, 7.14996 9.60291, 6.66892 9.96027, 6.14741 10.2242, 5.58541 10.3949, 5.02341 10.5657, 4.32192 10.6507, 3.48058 10.6507 L -0.0010998 10.6507, 0.0780292 10.4328 C 0.39749 10.4255, 0.61169 10.3979, 0.720631 10.3504, 0.882569 10.2842, 1.00218 10.1936, 1.07874 10.0795, 1.19614 9.915, 1.32753 9.5834, 1.47291 9.08433 L 2.92851 4.25562 C 3.04187 3.87507, 3.09855 3.57695, 3.09855 3.36055, 3.09855 3.20781, 3.04629 3.09003, 2.94103 3.00759, 2.83577 2.92515, 2.62966 2.88393, 2.32198 2.88356 Z M 4.3418 3.10733 L 2.55863 9.08433 C 2.4254 9.53224, 2.35842 9.80901, 2.35842 9.91464, 2.35842 9.97794, 2.37976 10.0387, 2.42209 10.0976, 2.46478 10.1564, 2.5222 10.1958, 2.59507 10.215, 2.70033 10.2507, 2.87 10.2683, 3.10444 10.268, 3.73931 10.2683, 4.32855 10.2047, 4.87251 10.0769, 5.41648 9.9496, 5.86255 9.76006, 6.20998 9.50832, 6.70315 9.14359, 7.09733 8.64121, 7.3925 8.00119, 7.68766 7.36153, 7.83525 6.63317, 7.83525 5.81612, 7.83525 4.89381, 7.6089 4.20815, 7.15621 3.7584, 6.70352 3.30902, 6.04215 3.08415, 5.17283 3.08378, 4.95863 3.08415, 4.6815 3.09187, 4.3418 3.10733 Z" stroke="none" fill="#000000" />
			<rect />
		</svg>
	</g>
	<g transform="matrix(1 0 -0 1 -627.156 21.1936)">
		<svg width="29.9991093" height="29.9858208">
			<defs />
			<path d="M 5.37912 2.48313 C 5.9253 2.4835, 6.40853 2.59833, 6.82884 2.82799, 7.24951 3.05765, 7.57891 3.39735, 7.8174 3.84673, 8.05589 4.29648, 8.17514 4.76242, 8.17514 5.24492, 8.17514 6.10099, 7.91971 6.99938, 7.40814 7.93936, 6.89656 8.8797, 6.22856 9.59702, 5.40341 10.0917, 4.57863 10.5863, 3.72551 10.8333, 2.84368 10.8333, 2.20918 10.8333, 1.67846 10.6971, 1.2519 10.4244, 0.825338 10.1517, 0.509926 9.79134, 0.305662 9.3438, 0.101399 8.89627, -0.0009166 8.46234, -0.0009166 8.04204, -0.0009166 7.29639, 0.184209 6.55957, 0.554091 5.83121, 0.924341 5.10322, 1.36599 4.49448, 1.87941 4.00572, 2.3932 3.51696, 2.94084 3.14119, 3.52309 2.87804, 4.10533 2.61526, 4.72401 2.4835, 5.37912 2.48313 Z M 5.17302 2.86001 C 4.76891 2.86038, 4.37363 2.95754, 3.98719 3.15187, 3.60111 3.34619, 3.21798 3.66418, 2.83779 4.10583, 2.45797 4.54748, 2.11606 5.12567, 1.81279 5.83968, 1.44107 6.7193, 1.25484 7.5496, 1.25484 8.33058, 1.25484 8.88854, 1.40243 9.38208, 1.6976 9.81195, 1.99277 10.2418, 2.44583 10.4568, 3.05604 10.4564, 3.42408 10.4568, 3.78513 10.3684, 4.13882 10.1918, 4.49288 10.0151, 4.86165 9.71295, 5.24552 9.28455, 5.72692 8.74721, 6.13103 8.06118, 6.45859 7.22683, 6.78615 6.39284, 6.94992 5.61443, 6.94992 4.8916, 6.94992 4.35794, 6.80234 3.88611, 6.50717 3.47574, 6.212 3.06574, 5.76741 2.86038, 5.17302 2.86001 Z" stroke="none" fill="#000000" />
			<rect />
		</svg>
	</g>
	<path d="M 73.2412 -54.1668 C 84.8369 -38.4877, 91.095 -19.5012, 91.095 -3.24399e-005" fill="none" stroke="#000000" stroke-width="2.25" stroke-linecap="round" stroke-linejoin="round" transform="matrix(0.333333 0 -0 0.333333 -623.068 39.7629)" />
	<path d="M 0 0 L 301.799 -223.2" fill="none" stroke="#000000" stroke-width="1.5" stroke-linecap="round" stroke-linejoin="round" stroke-dasharray="8.2575, 3.7425, 0.015, 4.485" transform="matrix(0.333333 0 -0 0.333333 -623.068 39.7629)" />
	<path d="M 0 0 L 191.299 0" fill="none" stroke="#000000" stroke-width="1.5" stroke-linecap="round" stroke-linejoin="round" stroke-dasharray="8.2575, 3.7425, 0.015, 4.485" transform="matrix(0.333333 0 -0 0.333333 -623.068 39.7629)" />
	<ellipse cx="-1514.40869140625" cy="949.4168701171875" rx="7.875" ry="7.875" stroke="none" fill="#000000" transform="matrix(0.333333 0 0 0.333333 -124.515 -38.6364)" />
	<path d="M 75.5585 157.156 L -75.5581 -157.158" fill="none" stroke="#000000" stroke-width="3" stroke-linecap="round" stroke-linejoin="round" transform="matrix(0.333333 0 0 0.333333 -654.504 225.451)" />
	<path d="M -38.3906 157.156 L 38.391 -157.158" fill="none" stroke="#000000" stroke-width="3" stroke-linecap="round" stroke-linejoin="round" transform="matrix(0.333333 0 0 0.333333 -616.521 225.451)" />
	<path d="M -139.238 18.7134 L 139.238 -18.7152" fill="none" stroke="#000000" stroke-width="3" stroke-linecap="round" stroke-linejoin="round" transform="matrix(0.333333 0 0 0.333333 -582.906 271.598)" />
	<path d="M 0 -139.102 L 0 139.103" fill="none" stroke="#000000" stroke-width="3" stroke-linecap="round" stroke-linejoin="round" transform="matrix(0.333333 0 0 0.333333 -629.318 325.264)" />
	<g transform="matrix(1 0 -0 1 -644.582 277.949)">
		<svg width="29.9991093" height="29.9858208">
			<defs />
			<path d="M 5.37912 2.48313 C 5.9253 2.4835, 6.40853 2.59833, 6.82884 2.82799, 7.24951 3.05765, 7.57891 3.39735, 7.8174 3.84673, 8.05589 4.29648, 8.17514 4.76242, 8.17514 5.24492, 8.17514 6.10099, 7.91971 6.99938, 7.40814 7.93936, 6.89656 8.8797, 6.22856 9.59702, 5.40341 10.0917, 4.57863 10.5863, 3.72551 10.8333, 2.84368 10.8333, 2.20918 10.8333, 1.67846 10.6971, 1.2519 10.4244, 0.825338 10.1517, 0.509926 9.79134, 0.305662 9.3438, 0.101399 8.89627, -0.0009166 8.46234, -0.0009166 8.04204, -0.0009166 7.29639, 0.184209 6.55957, 0.554091 5.83121, 0.924341 5.10322, 1.36599 4.49448, 1.87941 4.00572, 2.3932 3.51696, 2.94084 3.14119, 3.52309 2.87804, 4.10533 2.61526, 4.72401 2.4835, 5.37912 2.48313 Z M 5.17302 2.86001 C 4.76891 2.86038, 4.37363 2.95754, 3.98719 3.15187, 3.60111 3.34619, 3.21798 3.66418, 2.83779 4.10583, 2.45797 4.54748, 2.11606 5.12567, 1.81279 5.83968, 1.44107 6.7193, 1.25484 7.5496, 1.25484 8.33058, 1.25484 8.88854, 1.40243 9.38208, 1.6976 9.81195, 1.99277 10.2418, 2.44583 10.4568, 3.05604 10.4564, 3.42408 10.4568, 3.78513 10.3684, 4.13882 10.1918, 4.49288 10.0151, 4.86165 9.71295, 5.24552 9.28455, 5.72692 8.74721, 6.13103 8.06118, 6.45859 7.22683, 6.78615 6.39284, 6.94992 5.61443, 6.94992 4.8916, 6.94992 4.35794, 6.80234 3.88611, 6.50717 3.47574, 6.212 3.06574, 5.76741 2.86038, 5.17302 2.86001 Z" stroke="none" fill="#000000" />
			<rect />
		</svg>
	</g>
	<path d="M -54.7306 -114.989 C -28.3527 -127.544, 1.53974 -130.649, 29.9346 -123.782" fill="none" stroke="#000000" stroke-width="2.25" stroke-linecap="round" stroke-linejoin="round" transform="matrix(0.333333 0 -0 0.333333 -629.318 277.836)" />
	<path d="M 21.4127 -88.5427 C 57.9294 -79.7118, 85.2791 -49.3689, 90.2837 -12.1346" fill="none" stroke="#000000" stroke-width="2.25" stroke-linecap="round" stroke-linejoin="round" transform="matrix(0.333333 0 -0 0.333333 -629.318 277.836)" />
	<path d="M 0 0 L 76.7816 -317.494" fill="none" stroke="#000000" stroke-width="1.5" stroke-linecap="round" stroke-linejoin="round" stroke-dasharray="8.2575, 3.7425, 0.015, 4.485" transform="matrix(0.333333 0 -0 0.333333 -629.318 277.836)" />
	<path d="M 0 0 L 278.477 -37.4283" fill="none" stroke="#000000" stroke-width="1.5" stroke-linecap="round" stroke-linejoin="round" stroke-dasharray="8.2575, 3.7425, 0.015, 4.485" transform="matrix(0.333333 0 -0 0.333333 -629.318 277.836)" />
	<path d="M 115.65 -15.5442 C 124.235 48.3284, 79.416 107.067, 15.544 115.651, 10.3917 116.344, 5.19877 116.691, 6.51816e-005 116.691" fill="none" stroke="#000000" stroke-width="2.25" stroke-linecap="round" stroke-linejoin="round" transform="matrix(0.333333 0 -0 0.333333 -629.318 277.836)" />
	<path d="M 0 0 L 278.476 -37.4287" fill="none" stroke="#000000" stroke-width="1.5" stroke-linecap="round" stroke-linejoin="round" stroke-dasharray="8.2575, 3.7425, 0.015, 4.485" transform="matrix(0.333333 0 -0 0.333333 -629.318 277.836)" />
	<path d="M 0 0 L -6.53948e-005 281.391" fill="none" stroke="#000000" stroke-width="1.5" stroke-linecap="round" stroke-linejoin="round" stroke-dasharray="8.2575, 3.7425, 0.015, 4.485" transform="matrix(0.333333 0 -0 0.333333 -629.318 277.836)" />
	<path d="M 4.1603e-005 91.095 C -50.3106 91.095, -91.0955 50.3104, -91.0955 4.80494e-005, -91.0956 -35.1422, -70.8813 -67.1504, -39.1498 -82.2534" fill="none" stroke="#000000" stroke-width="2.25" stroke-linecap="round" stroke-linejoin="round" transform="matrix(0.333333 0 -0 0.333333 -629.318 278.897)" />
	<path d="M 0 0 L 6.53949e-005 278.205" fill="none" stroke="#000000" stroke-width="1.5" stroke-linecap="round" stroke-linejoin="round" stroke-dasharray="8.2575, 3.7425, 0.015, 4.485" transform="matrix(0.333333 0 -0 0.333333 -629.318 278.897)" />
	<path d="M 0 0 L -151.116 -317.494" fill="none" stroke="#000000" stroke-width="1.5" stroke-linecap="round" stroke-linejoin="round" stroke-dasharray="8.2575, 3.7425, 0.015, 4.485" transform="matrix(0.333333 0 -0 0.333333 -629.318 278.897)" />
	<g transform="matrix(1 0 -0 1 -634.142 218.281)">
		<svg width="21.03722" height="21.0283432">
			<defs />
			<path d="M 2.58642 5.32147 C 2.78479 5.5261, 2.93458 5.73, 3.03543 5.9339, 3.1083 6.07559, 3.22755 6.44658, 3.39316 7.04685 L 3.92683 6.26955 C 4.06852 6.08148, 4.2404 5.90188, 4.44245 5.7311, 4.64488 5.56033, 4.82264 5.44366, 4.97611 5.38036, 5.07328 5.34135, 5.18074 5.32184, 5.29778 5.32147, 5.4715 5.32184, 5.61025 5.36711, 5.7133 5.45728, 5.81635 5.54782, 5.86788 5.6575, 5.86788 5.78668, 5.86788 5.9361, 5.8377 6.03842, 5.7766 6.09289, 5.66362 6.19152, 5.53443 6.24047, 5.38869 6.24011, 5.30404 6.24047, 5.21276 6.22281, 5.1156 6.18711, 4.92569 6.12454, 4.79835 6.09326, 4.73357 6.09289, 4.63641 6.09326, 4.52121 6.1481, 4.38798 6.25777, 4.13735 6.4624, 3.83813 6.85694, 3.49033 7.44139 L 3.98755 9.4671 C 4.06447 9.77773, 4.12925 9.96322, 4.18151 10.0239, 4.23414 10.085, 4.28677 10.1152, 4.3394 10.1149, 4.42442 10.1152, 4.52342 10.07, 4.63641 9.97941, 4.85908 9.79907, 5.04899 9.56353, 5.20651 9.27277 L 5.41887 9.37877 C 5.16418 9.8425, 4.84067 10.2271, 4.44834 10.5329, 4.22604 10.7059, 4.03834 10.792, 3.8845 10.792, 3.65815 10.792, 3.47818 10.6684, 3.34458 10.4211, 3.25993 10.2683, 3.08401 9.60879, 2.81681 8.44247, 2.18599 9.50685, 1.68067 10.1918, 1.30048 10.4976, 1.05389 10.6941, 0.815399 10.792, 0.585004 10.792, 0.423434 10.792, 0.275849 10.7354, 0.14225 10.6213, 0.0454547 10.5352, -0.00312686 10.4196, -0.00349489 10.2738, -0.00312686 10.1447, 0.0414062 10.0368, 0.130104 9.95034, 0.219171 9.86421, 0.328479 9.82079, 0.457662 9.82042, 0.587213 9.82079, 0.724492 9.88372, 0.869869 10.0089, 0.975129 10.0994, 1.0561 10.1447, 1.11241 10.1443, 1.16099 10.1447, 1.22393 10.1134, 1.30048 10.0501, 1.49076 9.90139, 1.74949 9.57935, 2.07705 9.0847, 2.4046 8.59005, 2.61917 8.23269, 2.72002 8.0126, 2.46938 7.059, 2.33394 6.55441, 2.31333 6.49921, 2.22058 6.24452, 2.09913 6.06381, 1.9497 5.95782, 1.80028 5.85182, 1.57982 5.79882, 1.28833 5.79846, 1.19559 5.79882, 1.08849 5.80287, 0.967032 5.81023 L 0.967032 5.59824 Z" stroke="none" fill="#000000" />
			<rect />
		</svg>
	</g>
	<g transform="matrix(1 0 -0 1 -603.624 241.362)">
		<svg width="38.9609985" height="29.9858208">
			<defs />
			<path d="M 5.37246 9.11048 L 4.808 10.6167, 0.0527782 10.6167, 0.0527782 10.4032 C 1.4515 9.16458, 2.43616 8.15287, 3.00676 7.36803, 3.57735 6.58319, 3.86265 5.86579, 3.86265 5.21512, 3.86265 4.71919, 3.70648 4.31162, 3.39341 3.99205, 3.08034 3.67285, 2.70595 3.51307, 2.26989 3.51271, 1.87386 3.51307, 1.51823 3.6256, 1.20299 3.85067, 0.887755 4.07573, 0.655116 4.40576, 0.504351 4.84002 L 0.284335 4.84002 C 0.383523 4.12875, 0.638164 3.58232, 1.04826 3.20144, 1.45871 2.82056, 1.97088 2.63012, 2.58476 2.62976, 3.23867 2.63012, 3.78439 2.83427, 4.22225 3.24184, 4.66012 3.64977, 4.87905 4.13056, 4.87905 4.6842, 4.87905 5.08095, 4.78419 5.47698, 4.59375 5.87301, 4.30088 6.49662, 3.82514 7.15631, 3.16726 7.85243, 2.1808 8.89912, 1.56475 9.53031, 1.31877 9.74528 L 3.42298 9.74528 C 3.85111 9.74564, 4.1512 9.73049, 4.3236 9.69947, 4.49601 9.66882, 4.65146 9.60642, 4.78996 9.51192, 4.92883 9.41778, 5.04965 9.28397, 5.15281 9.11048 Z" stroke="none" fill="#000000" />
			<path d="M 8.31547 5.32147 C 8.51384 5.5261, 8.66364 5.73, 8.76448 5.9339, 8.83735 6.07559, 8.9566 6.44658, 9.12222 7.04685 L 9.65588 6.26955 C 9.79757 6.08148, 9.96945 5.90188, 10.1715 5.7311, 10.3739 5.56033, 10.5517 5.44366, 10.7052 5.38036, 10.8023 5.34135, 10.9098 5.32184, 11.0268 5.32147, 11.2005 5.32184, 11.3393 5.36711, 11.4424 5.45728, 11.5454 5.54782, 11.5969 5.6575, 11.5969 5.78668, 11.5969 5.9361, 11.5668 6.03842, 11.5057 6.09289, 11.3927 6.19152, 11.2635 6.24047, 11.1177 6.24011, 11.0331 6.24047, 10.9418 6.22281, 10.8447 6.18711, 10.6547 6.12454, 10.5274 6.09326, 10.4626 6.09289, 10.3655 6.09326, 10.2503 6.1481, 10.117 6.25777, 9.8664 6.4624, 9.56718 6.85694, 9.21938 7.44139 L 9.7166 9.4671 C 9.79352 9.77773, 9.8583 9.96322, 9.91056 10.0239, 9.96319 10.085, 10.0158 10.1152, 10.0685 10.1149, 10.1535 10.1152, 10.2525 10.07, 10.3655 9.97941, 10.5881 9.79907, 10.778 9.56353, 10.9356 9.27277 L 11.1479 9.37877 C 10.8932 9.8425, 10.5697 10.2271, 10.1774 10.5329, 9.95509 10.7059, 9.76739 10.792, 9.61355 10.792, 9.38721 10.792, 9.20723 10.6684, 9.07363 10.4211, 8.98898 10.2683, 8.81306 9.60879, 8.54586 8.44247, 7.91504 9.50685, 7.40972 10.1918, 7.02953 10.4976, 6.78294 10.6941, 6.54445 10.792, 6.31406 10.792, 6.15248 10.792, 6.0049 10.7354, 5.8713 10.6213, 5.77451 10.5352, 5.72592 10.4196, 5.72556 10.2738, 5.72592 10.1447, 5.77046 10.0368, 5.85916 9.95034, 5.94822 9.86421, 6.05753 9.82079, 6.18671 9.82042, 6.31626 9.82079, 6.45354 9.88372, 6.59892 10.0089, 6.70418 10.0994, 6.78515 10.1447, 6.84146 10.1443, 6.89004 10.1447, 6.95298 10.1134, 7.02953 10.0501, 7.21981 9.90139, 7.47854 9.57935, 7.8061 9.0847, 8.13365 8.59005, 8.34822 8.23269, 8.44907 8.0126, 8.19843 7.059, 8.06299 6.55441, 8.04238 6.49921, 7.94963 6.24452, 7.82818 6.06381, 7.67875 5.95782, 7.52933 5.85182, 7.30887 5.79882, 7.01738 5.79846, 6.92464 5.79882, 6.81754 5.80287, 6.69608 5.81023 L 6.69608 5.59824 Z" stroke="none" fill="#000000" />
			<rect />
		</svg>
	</g>
	<g transform="matrix(1 0 -0 1 -596.06 301.031)">
		<svg width="38.9609985" height="29.9858208">
			<defs />
			<path d="M 0.175609 4.28024 C 0.405363 3.75364, 0.695711 3.3468, 1.04629 3.06005, 1.39688 2.77367, 1.83402 2.63012, 2.35701 2.62976, 3.00299 2.63012, 3.4982 2.83391, 3.84301 3.24148, 4.10451 3.54589, 4.23507 3.87087, 4.23507 4.21676, 4.23507 4.78663, 3.86682 5.37527, 3.12959 5.98265, 3.62516 6.17165, 3.99955 6.44108, 4.25311 6.79094, 4.50703 7.14116, 4.63363 7.5527, 4.63363 8.02555, 4.63363 8.70291, 4.41181 9.28974, 3.96781 9.78568, 3.38928 10.4324, 2.55142 10.7552, 1.4535 10.7552, 0.910677 10.7552, 0.540979 10.6899, 0.344768 10.5593, 0.148558 10.4288, 0.0504523 10.2881, 0.0504523 10.1377, 0.0504523 10.0266, 0.0973408 9.92851, 0.190397 9.84375, 0.283452 9.75935, 0.395624 9.71679, 0.526191 9.71642, 0.625378 9.71679, 0.726369 9.7323, 0.829163 9.76259, 0.896971 9.78207, 1.04954 9.8524, 1.28723 9.97359, 1.52492 10.0948, 1.68939 10.1669, 1.78028 10.1896, 1.92708 10.2322, 2.08361 10.2535, 2.24989 10.2531, 2.65421 10.2535, 3.00587 10.1016, 3.30488 9.79758, 3.60424 9.49389, 3.75357 9.13393, 3.75357 8.71806, 3.75357 8.41437, 3.68431 8.11825, 3.54581 7.82934, 3.44266 7.61438, 3.32977 7.45063, 3.20677 7.33882, 3.03653 7.18516, 2.80281 7.04594, 2.50561 6.92079, 2.20841 6.79599, 1.90544 6.73323, 1.59597 6.73287 L 1.40589 6.73287, 1.40589 6.55974 C 1.71896 6.52151, 2.03312 6.41223, 2.34799 6.23116, 2.66323 6.05046, 2.8919 5.83297, 3.03473 5.57905, 3.17756 5.32513, 3.24861 5.04633, 3.24861 4.74191, 3.24861 4.34588, 3.12093 4.02596, 2.86521 3.78142, 2.60985 3.53724, 2.29172 3.41496, 1.91121 3.4146, 1.29697 3.41496, 0.783717 3.73417, 0.371459 4.37257 Z" stroke="none" fill="#000000" />
			<path d="M 8.07918 5.32147 C 8.27756 5.5261, 8.42735 5.73, 8.5282 5.9339, 8.60107 6.07559, 8.72031 6.44658, 8.88593 7.04685 L 9.41959 6.26955 C 9.56129 6.08148, 9.73317 5.90188, 9.93522 5.7311, 10.1376 5.56033, 10.3154 5.44366, 10.4689 5.38036, 10.566 5.34135, 10.6735 5.32184, 10.7906 5.32147, 10.9643 5.32184, 11.103 5.36711, 11.2061 5.45728, 11.3091 5.54782, 11.3606 5.6575, 11.3606 5.78668, 11.3606 5.9361, 11.3305 6.03842, 11.2694 6.09289, 11.1564 6.19152, 11.0272 6.24047, 10.8815 6.24011, 10.7968 6.24047, 10.7055 6.22281, 10.6084 6.18711, 10.4185 6.12454, 10.2911 6.09326, 10.2263 6.09289, 10.1292 6.09326, 10.014 6.1481, 9.88075 6.25777, 9.63011 6.4624, 9.3309 6.85694, 8.9831 7.44139 L 9.48032 9.4671 C 9.55724 9.77773, 9.62202 9.96322, 9.67428 10.0239, 9.72691 10.085, 9.77954 10.1152, 9.83217 10.1149, 9.91719 10.1152, 10.0162 10.07, 10.1292 9.97941, 10.3518 9.79907, 10.5418 9.56353, 10.6993 9.27277 L 10.9116 9.37877 C 10.657 9.8425, 10.3334 10.2271, 9.94111 10.5329, 9.71881 10.7059, 9.53111 10.792, 9.37727 10.792, 9.15092 10.792, 8.97095 10.6684, 8.83735 10.4211, 8.7527 10.2683, 8.57678 9.60879, 8.30958 8.44247, 7.67876 9.50685, 7.17343 10.1918, 6.79325 10.4976, 6.54666 10.6941, 6.30817 10.792, 6.07777 10.792, 5.9162 10.792, 5.76862 10.7354, 5.63502 10.6213, 5.53822 10.5352, 5.48964 10.4196, 5.48927 10.2738, 5.48964 10.1447, 5.53417 10.0368, 5.62287 9.95034, 5.71194 9.86421, 5.82125 9.82079, 5.95043 9.82042, 6.07998 9.82079, 6.21726 9.88372, 6.36264 10.0089, 6.4679 10.0994, 6.54887 10.1447, 6.60518 10.1443, 6.65376 10.1447, 6.71669 10.1134, 6.79325 10.0501, 6.98352 9.90139, 7.24226 9.57935, 7.56981 9.0847, 7.89737 8.59005, 8.11194 8.23269, 8.21278 8.0126, 7.96215 7.059, 7.82671 6.55441, 7.8061 6.49921, 7.71335 6.24452, 7.5919 6.06381, 7.44247 5.95782, 7.29305 5.85182, 7.07259 5.79882, 6.7811 5.79846, 6.68835 5.79882, 6.58125 5.80287, 6.4598 5.81023 L 6.4598 5.59824 Z" stroke="none" fill="#000000" />
			<rect />
		</svg>
	</g>
	<g transform="matrix(1 0 -0 1 -674.008 287.162)">
		<svg width="38.9609985" height="29.9858208">
			<defs />
			<path d="M 5.52899 7.73124 L 5.52899 8.5507, 4.44731 8.5507, 4.44731 10.6167, 3.46626 10.6167, 3.46626 8.5507, 0.0545738 8.5507, 0.0545738 7.81203, 3.79339 2.62976, 4.44731 2.62976, 4.44731 7.73124 Z M 3.46626 7.73124 L 3.46626 3.84742, 0.637074 7.73124 Z" stroke="none" fill="#000000" />
			<path d="M 8.38834 5.32147 C 8.58671 5.5261, 8.73651 5.73, 8.83735 5.9339, 8.91022 6.07559, 9.02947 6.44658, 9.19509 7.04685 L 9.72875 6.26955 C 9.87045 6.08148, 10.0423 5.90188, 10.2444 5.7311, 10.4468 5.56033, 10.6246 5.44366, 10.778 5.38036, 10.8752 5.34135, 10.9827 5.32184, 11.0997 5.32147, 11.2734 5.32184, 11.4122 5.36711, 11.5152 5.45728, 11.6183 5.54782, 11.6698 5.6575, 11.6698 5.78668, 11.6698 5.9361, 11.6396 6.03842, 11.5785 6.09289, 11.4655 6.19152, 11.3364 6.24047, 11.1906 6.24011, 11.106 6.24047, 11.0147 6.22281, 10.9175 6.18711, 10.7276 6.12454, 10.6003 6.09326, 10.5355 6.09289, 10.4383 6.09326, 10.3231 6.1481, 10.1899 6.25777, 9.93927 6.4624, 9.64005 6.85694, 9.29225 7.44139 L 9.78948 9.4671 C 9.8664 9.77773, 9.93117 9.96322, 9.98343 10.0239, 10.0361 10.085, 10.0887 10.1152, 10.1413 10.1149, 10.2263 10.1152, 10.3253 10.07, 10.4383 9.97941, 10.661 9.79907, 10.8509 9.56353, 11.0084 9.27277 L 11.2208 9.37877 C 10.9661 9.8425, 10.6426 10.2271, 10.2503 10.5329, 10.028 10.7059, 9.84027 10.792, 9.68642 10.792, 9.46008 10.792, 9.28011 10.6684, 9.14651 10.4211, 9.06186 10.2683, 8.88593 9.60879, 8.61873 8.44247, 7.98791 9.50685, 7.48259 10.1918, 7.1024 10.4976, 6.85581 10.6941, 6.61732 10.792, 6.38693 10.792, 6.22536 10.792, 6.07777 10.7354, 5.94417 10.6213, 5.84738 10.5352, 5.7988 10.4196, 5.79843 10.2738, 5.7988 10.1447, 5.84333 10.0368, 5.93203 9.95034, 6.02109 9.86421, 6.1304 9.82079, 6.25959 9.82042, 6.38914 9.82079, 6.52642 9.88372, 6.67179 10.0089, 6.77705 10.0994, 6.85802 10.1447, 6.91433 10.1443, 6.96291 10.1447, 7.02585 10.1134, 7.1024 10.0501, 7.29268 9.90139, 7.55141 9.57935, 7.87897 9.0847, 8.20653 8.59005, 8.4211 8.23269, 8.52194 8.0126, 8.2713 7.059, 8.13586 6.55441, 8.11525 6.49921, 8.02251 6.24452, 7.90105 6.06381, 7.75163 5.95782, 7.6022 5.85182, 7.38175 5.79882, 7.09026 5.79846, 6.99751 5.79882, 6.89041 5.80287, 6.76896 5.81023 L 6.76896 5.59824 Z" stroke="none" fill="#000000" />
			<rect />
		</svg>
	</g>
	<path d="M -213.836 140.359 L 213.838 -140.357" fill="none" stroke="#000000" stroke-width="3" stroke-linecap="round" stroke-linejoin="round" transform="matrix(0.333333 0 0 0.333333 -243.402 39.7629)" />
	<path d="M -213.837 140.358 L 213.837 -140.357" fill="none" stroke="#000000" stroke-width="3" stroke-linecap="round" stroke-linejoin="round" transform="matrix(0.333333 0 0 0.333333 -207.48 91.363)" />
	<g transform="matrix(1 0 -0 1 -172.227 -29.3639)">
		<svg width="27.0496273" height="29.9858208">
			<defs />
			<path d="M 7.00329 2.48313 L 6.37872 9.12556 C 6.34633 9.43618, 6.33014 9.64008, 6.33014 9.73798, 6.33014 9.8955, 6.36069 10.0151, 6.42105 10.0972, 6.49797 10.2113, 6.60212 10.2959, 6.73351 10.3508, 6.86491 10.406, 7.0861 10.4332, 7.39746 10.4328 L 7.33085 10.6507, 4.09208 10.6507, 4.15869 10.4328, 4.29818 10.4328 C 4.56096 10.4332, 4.77553 10.3784, 4.94115 10.268, 5.05856 10.1936, 5.14946 10.07, 5.21387 9.89697, 5.25877 9.77552, 5.3011 9.48918, 5.34121 9.03722 L 5.43837 8.02437, 3.08511 8.02437, 2.24819 9.12556 C 2.05828 9.37325, 1.93903 9.55101, 1.89045 9.65885, 1.84187 9.76705, 1.81758 9.8679, 1.81758 9.96175, 1.81758 10.0876, 1.87021 10.1958, 1.97547 10.286, 2.08073 10.3765, 2.25444 10.4255, 2.49662 10.4328 L 2.43 10.6507, -0.00202161 10.6507, 0.064594 10.4328 C 0.36418 10.4214, 0.627698 10.3243, 0.856252 10.1417, 1.08481 9.95917, 1.42525 9.56941, 1.87794 8.97245 L 6.79093 2.48313 Z M 5.80237 4.44406 L 3.41856 7.5945, 5.48696 7.5945 Z" stroke="none" fill="#000000" />
			<rect />
		</svg>
	</g>
	<g transform="matrix(1 0 -0 1 -331.182 84.1935)">
		<svg width="27.0496273" height="29.9858208">
			<defs />
			<path d="M 2.12269 2.88356 L 2.2077 2.66568, 5.14321 2.66568 C 5.63675 2.66605, 6.07656 2.74076, 6.46264 2.88982, 6.84871 3.03924, 7.13763 3.24719, 7.32974 3.51402, 7.52186 3.78122, 7.61792 4.06351, 7.61792 4.36162, 7.61792 4.8213, 7.44715 5.23646, 7.10561 5.60744, 6.76406 5.97843, 6.20685 6.25225, 5.43433 6.42854, 5.93192 6.60962, 6.29775 6.84922, 6.5322 7.14733, 6.76701 7.44581, 6.88404 7.77337, 6.88404 8.13037, 6.88404 8.52712, 6.77915 8.9062, 6.56863 9.26725, 6.35848 9.62867, 6.08871 9.90912, 5.75894 10.1093, 5.42954 10.3095, 5.03206 10.4568, 4.56685 10.5506, 4.23561 10.6176, 3.71815 10.6507, 3.01445 10.6507 L -0.000180542 10.6507, 0.0785805 10.4328 C 0.39436 10.4255, 0.608561 10.396, 0.72155 10.3445, 0.883488 10.2783, 0.998685 10.1899, 1.06751 10.0795, 1.16467 9.93083, 1.29386 9.58929, 1.45543 9.05489 L 2.92943 4.22029 C 3.05494 3.8125, 3.1175 3.5258, 3.1175 3.36055, 3.1175 3.21554, 3.06193 3.10108, 2.95078 3.01643, 2.83963 2.93214, 2.62801 2.88982, 2.31664 2.88945, 2.24819 2.88982, 2.18341 2.88798, 2.12269 2.88356 Z M 3.35379 6.19889 C 3.61694 6.20698, 3.80721 6.21103, 3.92425 6.21066, 4.76523 6.21103, 5.3909 6.03363, 5.80127 5.67811, 6.212 5.32295, 6.417 4.87835, 6.417 4.34395, 6.417 3.93984, 6.29187 3.62517, 6.04086 3.39919, 5.79022 3.17358, 5.38979 3.06059, 4.83994 3.06022, 4.69456 3.06059, 4.5087 3.08415, 4.28199 3.13089 Z M 2.15912 10.1325 C 2.59599 10.1877, 2.93753 10.2153, 3.18412 10.215, 3.81494 10.2153, 4.374 10.0309, 4.86129 9.66179, 5.34857 9.29301, 5.59222 8.79211, 5.59222 8.15981, 5.59222 7.67731, 5.44169 7.30044, 5.14026 7.02956, 4.8392 6.75868, 4.35265 6.62324, 3.68134 6.62287, 3.55216 6.62324, 3.39464 6.62913, 3.20841 6.64054 Z" stroke="none" fill="#000000" />
			<rect />
		</svg>
	</g>
	<g transform="matrix(1 0 -0 1 -129.786 32.5935)">
		<svg width="27.0496273" height="29.9858208">
			<defs />
			<path d="M 7.89947 2.48313 L 7.28705 5.06826, 7.0688 5.06826, 7.04451 4.42051 C 7.02427 4.18533, 6.97789 3.97554, 6.90502 3.79079, 6.83215 3.6064, 6.72321 3.4463, 6.57746 3.31086, 6.43172 3.17542, 6.2477 3.06942, 6.0254 2.99287, 5.8031 2.91632, 5.55652 2.87804, 5.28527 2.87767, 4.5617 2.87804, 3.92867 3.07053, 3.38691 3.45476, 2.69573 3.94573, 2.15397 4.63876, 1.76164 5.53347, 1.43813 6.27176, 1.27619 7.01962, 1.27619 7.77705, 1.27619 8.55067, 1.50879 9.16825, 1.974 9.6294, 2.4392 10.0909, 3.04353 10.3213, 3.78734 10.321, 4.34971 10.3213, 4.84988 10.1999, 5.28858 9.95623, 5.72729 9.71295, 6.13471 9.33792, 6.51048 8.83112 L 6.79571 8.83112 C 6.35112 9.51862, 5.85757 10.0239, 5.31582 10.3478, 4.77406 10.6717, 4.12483 10.8333, 3.36887 10.8333, 2.69757 10.8333, 2.10318 10.6971, 1.58571 10.4244, 1.06824 10.1517, 0.673703 9.76779, 0.402824 9.27314, 0.131945 8.77849, -0.00349414 8.24667, -0.00349414 7.67694, -0.00349414 6.80579, 0.237205 5.95782, 0.718236 5.1334, 1.19964 4.30899, 1.85953 3.66124, 2.69867 3.19014, 3.53781 2.71905, 4.38393 2.4835, 5.23706 2.48313, 5.63749 2.4835, 6.08613 2.57588, 6.58335 2.7599, 6.80197 2.83866, 6.95949 2.87804, 7.05666 2.87767, 7.15382 2.87804, 7.23847 2.85854, 7.31134 2.81916, 7.38421 2.78014, 7.5053 2.66789, 7.67533 2.48313 Z" stroke="none" fill="#000000" />
			<rect />
		</svg>
	</g>
	<g transform="matrix(1 0 -0 1 -291.55 142.174)">
		<svg width="32.9485931" height="29.9858208">
			<defs />
			<path d="M 2.18875 2.88356 L 2.26125 2.66568, 4.8876 2.66568 C 5.99982 2.66605, 6.8235 2.78971, 7.35937 3.03704, 7.89524 3.28436, 8.32254 3.67412, 8.642 4.20594, 8.96146 4.73813, 9.12119 5.30822, 9.12119 5.91623, 9.12119 6.43885, 9.02955 6.94638, 8.84552 7.43882, 8.6615 7.93163, 8.45319 8.32617, 8.22059 8.62244, 7.98799 8.91908, 7.63135 9.2459, 7.14996 9.60291, 6.66892 9.96027, 6.14741 10.2242, 5.58541 10.3949, 5.02341 10.5657, 4.32192 10.6507, 3.48058 10.6507 L -0.0010998 10.6507, 0.0780292 10.4328 C 0.39749 10.4255, 0.61169 10.3979, 0.720631 10.3504, 0.882569 10.2842, 1.00218 10.1936, 1.07874 10.0795, 1.19614 9.915, 1.32753 9.5834, 1.47291 9.08433 L 2.92851 4.25562 C 3.04187 3.87507, 3.09855 3.57695, 3.09855 3.36055, 3.09855 3.20781, 3.04629 3.09003, 2.94103 3.00759, 2.83577 2.92515, 2.62966 2.88393, 2.32198 2.88356 Z M 4.3418 3.10733 L 2.55863 9.08433 C 2.4254 9.53224, 2.35842 9.80901, 2.35842 9.91464, 2.35842 9.97794, 2.37976 10.0387, 2.42209 10.0976, 2.46478 10.1564, 2.5222 10.1958, 2.59507 10.215, 2.70033 10.2507, 2.87 10.2683, 3.10444 10.268, 3.73931 10.2683, 4.32855 10.2047, 4.87251 10.0769, 5.41648 9.9496, 5.86255 9.76006, 6.20998 9.50832, 6.70315 9.14359, 7.09733 8.64121, 7.3925 8.00119, 7.68766 7.36153, 7.83525 6.63317, 7.83525 5.81612, 7.83525 4.89381, 7.6089 4.20815, 7.15621 3.7584, 6.70352 3.30902, 6.04215 3.08415, 5.17283 3.08378, 4.95863 3.08415, 4.6815 3.09187, 4.3418 3.10733 Z" stroke="none" fill="#000000" />
			<rect />
		</svg>
	</g>
	<g transform="matrix(1 0 -0 1 -247.468 -29.3639)">
		<svg width="29.9991093" height="29.9858208">
			<defs />
			<path d="M 4.29855 3.09555 L 3.3582 6.25188, 4.12852 6.25188 C 4.67874 6.25225, 5.07696 6.17091, 5.32355 6.00787, 5.57014 5.8452, 5.7825 5.54377, 5.96026 5.10359 L 6.18477 5.10359, 5.34158 8.00082, 5.09904 8.00082 C 5.17191 7.75791, 5.20835 7.5496, 5.20835 7.37662, 5.20835 7.20806, 5.17302 7.07299, 5.10235 6.97067, 5.03169 6.86872, 4.93453 6.79327, 4.81123 6.74396, 4.68794 6.69501, 4.4281 6.67035, 4.03172 6.66998 L 3.24926 6.66998, 2.45466 9.31399 C 2.37811 9.56941, 2.33946 9.76374, 2.33946 9.89697, 2.33946 9.99929, 2.39025 10.0898, 2.4911 10.1678, 2.55992 10.2231, 2.7318 10.2507, 3.00672 10.2503 L 3.73434 10.2503 C 4.52306 10.2507, 5.15498 10.1152, 5.63013 9.84434, 6.10527 9.57346, 6.53073 9.10237, 6.9065 8.43069 L 7.131 8.43069, 6.3548 10.6507, -0.00165203 10.6507, 0.0771089 10.4328 C 0.392521 10.4255, 0.604881 10.3979, 0.713822 10.3504, 0.87576 10.2801, 0.992797 10.1899, 1.06567 10.0795, 1.17498 9.91905, 1.30453 9.58119, 1.45395 9.06667 L 2.89741 4.24973 C 3.01077 3.86145, 3.06708 3.56518, 3.06708 3.36055, 3.06708 3.21186, 3.01372 3.09519, 2.90662 3.01054, 2.79952 2.92626, 2.5901 2.88393, 2.27874 2.88356 L 2.15139 2.88356, 2.22427 2.66568, 8.13171 2.66568, 7.62234 4.59128, 7.39783 4.59128 C 7.42617 4.41094, 7.44016 4.26004, 7.44016 4.13785, 7.44016 3.93027, 7.3879 3.75545, 7.28264 3.61376, 7.14536 3.43342, 6.94514 3.29614, 6.68199 3.20155, 6.48803 3.13126, 6.04123 3.09592, 5.34158 3.09555 Z" stroke="none" fill="#000000" />
			<rect />
		</svg>
	</g>
	<g transform="matrix(1 0 -0 1 -227.638 130.979)">
		<svg width="29.9991093" height="29.9858208">
			<defs />
			<path d="M 4.34345 3.08967 L 3.37293 6.25188, 4.45276 6.25188 C 4.93821 6.25225, 5.3011 6.17975, 5.5418 6.03437, 5.7825 5.88936, 6.02982 5.5791, 6.2845 5.10359 L 6.5149 5.10359, 5.65957 8.0126, 5.41703 8.0126 C 5.47776 7.77742, 5.50794 7.58309, 5.50794 7.42962, 5.50794 7.19039, 5.42623 7.00527, 5.26245 6.87351, 5.09904 6.74212, 4.79246 6.67624, 4.34345 6.67587 L 3.25184 6.67587, 2.536 9.08433 C 2.40681 9.51274, 2.34204 9.79723, 2.34204 9.93819, 2.34204 10.0839, 2.39761 10.1958, 2.50876 10.2742, 2.61991 10.353, 2.89189 10.4056, 3.32471 10.4328 L 3.25184 10.6507, 0.000924289 10.6507, 0.0796853 10.4328 C 0.395097 10.4255, 0.605249 10.3979, 0.710509 10.3504, 0.872448 10.2842, 0.991693 10.1936, 1.06825 10.0795, 1.17755 9.91905, 1.30711 9.58708, 1.45653 9.08433 L 2.90625 4.27329 C 3.02329 3.885, 3.0818 3.58063, 3.0818 3.36055, 3.0818 3.25897, 3.05567 3.17174, 3.00304 3.09887, 2.95078 3.02636, 2.87276 2.97226, 2.7697 2.93693, 2.66665 2.9016, 2.46128 2.88393, 2.15397 2.88356 L 2.22684 2.66568, 8.60759 2.66568, 8.00105 4.6855, 7.77029 4.6855 C 7.81519 4.44259, 7.83727 4.24237, 7.83727 4.08485, 7.83727 3.82612, 7.76367 3.62112, 7.61608 3.46985, 7.4685 3.31896, 7.27932 3.21186, 7.04856 3.14855, 6.88699 3.10954, 6.5252 3.09003, 5.96284 3.08967 Z" stroke="none" fill="#000000" />
			<rect />
		</svg>
	</g>
	<path d="M 29.1977 217.233 L -29.196 -217.232" fill="none" stroke="#000000" stroke-width="3" stroke-linecap="round" stroke-linejoin="round" transform="matrix(0.333333 0 0 0.333333 -233.067 57.4744)" />
	<path d="M -11.6668 -90.3452 C 23.1153 -94.8368, 57.3873 -78.9622, 76.455 -49.5276" fill="none" stroke="#000000" stroke-width="2.25" stroke-linecap="round" stroke-linejoin="round" transform="matrix(0.333333 0 -0 0.333333 -236.4 34.6161)" />
	<g transform="matrix(1 0 -0 1 -207.62 62.9588)">
		<svg width="104.984024" height="102.099182">
			<defs />
			<polyline points="4.221 -7.76664 -4.221 0" fill="none" stroke="#000000" stroke-width="0.4824" stroke-linecap="round" stroke-linejoin="round" transform="matrix(1 0 0 1 4.221 10.4095)" />
			<polyline points="-4.221 0 4.221 0" fill="none" stroke="#000000" stroke-width="0.4824" stroke-linecap="round" stroke-linejoin="round" transform="matrix(1 0 0 1 4.221 10.4095)" />
			<path d="M 10.529 3.55888 L 12.4904 2.62976, 12.6866 2.62976, 12.6866 9.23744 C 12.6866 9.67639, 12.7058 9.94979, 12.7433 10.0573, 12.7808 10.1651, 12.859 10.2477, 12.9781 10.3054, 13.0971 10.3631, 13.3387 10.3959, 13.703 10.4032 L 13.703 10.6167, 10.6715 10.6167, 10.6715 10.4032 C 11.052 10.3959, 11.2977 10.3642, 11.4087 10.3083, 11.5198 10.2528, 11.597 10.1777, 11.6407 10.0832, 11.6843 9.9891, 11.7059 9.70705, 11.7059 9.23744 L 11.7059 5.01314 C 11.7059 4.44399, 11.6861 4.07862, 11.6464 3.91667, 11.619 3.79404, 11.5685 3.70351, 11.4949 3.6458, 11.4217 3.58809, 11.3334 3.55924, 11.2302 3.55888, 11.0838 3.55924, 10.88 3.61875, 10.6181 3.73777 Z" stroke="none" fill="#000000" />
			<rect />
		</svg>
	</g>
	<g transform="matrix(1 0 -0 1 -228.439 -9.68799)">
		<svg width="104.984024" height="102.099182">
			<defs />
			<polyline points="4.221 -7.76664 -4.221 0" fill="none" stroke="#000000" stroke-width="0.4824" stroke-linecap="round" stroke-linejoin="round" transform="matrix(1 0 0 1 4.221 10.4095)" />
			<polyline points="-4.221 0 4.221 0" fill="none" stroke="#000000" stroke-width="0.4824" stroke-linecap="round" stroke-linejoin="round" transform="matrix(1 0 0 1 4.221 10.4095)" />
			<path d="M 15.8667 9.11048 L 15.3023 10.6167, 10.5481 10.6167, 10.5481 10.4032 C 11.9468 9.16458, 12.9311 8.15287, 13.5017 7.36803, 14.0723 6.58319, 14.3573 5.86579, 14.3573 5.21512, 14.3573 4.71919, 14.2011 4.31162, 13.888 3.99205, 13.575 3.67285, 13.2006 3.51307, 12.7645 3.51271, 12.3685 3.51307, 12.0132 3.6256, 11.698 3.85067, 11.3831 4.07573, 11.1505 4.40576, 10.9997 4.84002 L 10.7797 4.84002 C 10.8789 4.12875, 11.1335 3.58232, 11.5436 3.20144, 11.9537 2.82056, 12.4659 2.63012, 13.0797 2.62976, 13.7333 2.63012, 14.279 2.83427, 14.7169 3.24184, 15.1547 3.64977, 15.3737 4.13056, 15.3737 4.6842, 15.3737 5.08095, 15.2788 5.47698, 15.0884 5.87301, 14.7951 6.49662, 14.3198 7.15631, 13.6619 7.85243, 12.6758 8.89912, 12.0597 9.53031, 11.8138 9.74528 L 13.9176 9.74528 C 14.3454 9.74564, 14.6455 9.73049, 14.8179 9.69947, 14.9903 9.66882, 15.1461 9.60642, 15.2846 9.51192, 15.4231 9.41778, 15.5439 9.28397, 15.6467 9.11048 Z" stroke="none" fill="#000000" />
			<rect />
		</svg>
	</g>
	<path d="M -11.6669 -90.3452 C 23.1155 -94.8369, 57.3877 -78.9623, 76.4556 -49.5276" fill="none" stroke="#000000" stroke-width="2.25" stroke-linecap="round" stroke-linejoin="round" transform="matrix(0.333333 0 -0 0.333333 -226.398 103.952)" />
	<path d="M 13.0073 90.1619 C -21.8322 95.1881, -56.4498 79.6921, -75.9094 50.3598" fill="none" stroke="#000000" stroke-width="2.25" stroke-linecap="round" stroke-linejoin="round" transform="matrix(0.333333 0 -0 0.333333 -236.4 34.6161)" />
	<g transform="matrix(1 0 -0 1 -269.969 57.812)">
		<svg width="104.984024" height="102.099182">
			<defs />
			<polyline points="4.221 -7.76664 -4.221 0" fill="none" stroke="#000000" stroke-width="0.4824" stroke-linecap="round" stroke-linejoin="round" transform="matrix(1 0 0 1 4.221 10.4095)" />
			<polyline points="-4.221 0 4.221 0" fill="none" stroke="#000000" stroke-width="0.4824" stroke-linecap="round" stroke-linejoin="round" transform="matrix(1 0 0 1 4.221 10.4095)" />
			<path d="M 10.6702 4.28024 C 10.9003 3.75364, 11.1903 3.3468, 11.5409 3.06005, 11.8914 2.77367, 12.3282 2.63012, 12.8512 2.62976, 13.4972 2.63012, 13.9924 2.83391, 14.3369 3.24148, 14.5987 3.54589, 14.7293 3.87087, 14.7293 4.21676, 14.7293 4.78663, 14.361 5.37527, 13.6238 5.98265, 14.1194 6.17165, 14.4938 6.44108, 14.7473 6.79094, 15.0009 7.14116, 15.1275 7.5527, 15.1275 8.02555, 15.1275 8.70291, 14.9057 9.28974, 14.4617 9.78568, 13.8835 10.4324, 13.0456 10.7552, 11.9481 10.7552, 11.4052 10.7552, 11.0359 10.6899, 10.8397 10.5593, 10.6435 10.4288, 10.5454 10.2881, 10.5454 10.1377, 10.5454 10.0266, 10.5923 9.92851, 10.6853 9.84375, 10.7784 9.75935, 10.8902 9.71679, 11.0208 9.71642, 11.1199 9.71679, 11.2209 9.7323, 11.3241 9.76259, 11.3915 9.78207, 11.5441 9.8524, 11.7818 9.97359, 12.0195 10.0948, 12.184 10.1669, 12.2748 10.1896, 12.4213 10.2322, 12.5778 10.2535, 12.7445 10.2531, 13.1484 10.2535, 13.5001 10.1016, 13.7991 9.79758, 14.0985 9.49389, 14.2478 9.13393, 14.2478 8.71806, 14.2478 8.41437, 14.1785 8.11825, 14.0397 7.82934, 13.9369 7.61438, 13.824 7.45063, 13.701 7.33882, 13.5307 7.18516, 13.297 7.04594, 12.9998 6.92079, 12.7026 6.79599, 12.3996 6.73323, 12.0905 6.73287 L 11.9005 6.73287, 11.9005 6.55974 C 12.2135 6.52151, 12.5273 6.41223, 12.8422 6.23116, 13.1574 6.05046, 13.3861 5.83297, 13.5289 5.57905, 13.6718 5.32513, 13.7428 5.04633, 13.7428 4.74191, 13.7428 4.34588, 13.6151 4.02596, 13.3594 3.78142, 13.1041 3.53724, 12.7859 3.41496, 12.4054 3.4146, 11.7915 3.41496, 11.2783 3.73417, 10.8664 4.37257 Z" stroke="none" fill="#000000" />
			<rect />
		</svg>
	</g>
	<path d="M -57.983 37.8682 C -78.8972 5.84522, -69.8916 -37.0688, -37.8684 -57.9828, -29.4224 -63.4989, -19.8732 -67.1032, -9.88877 -68.5436" fill="none" stroke="#000000" stroke-width="2.25" stroke-linecap="round" stroke-linejoin="round" transform="matrix(0.333333 0 -0 0.333333 -226.398 103.952)" />
	<g transform="matrix(1 0 -0 1 -270.424 95.3934)">
		<svg width="104.984024" height="102.099182">
			<defs />
			<polyline points="4.221 -7.76664 -4.221 0" fill="none" stroke="#000000" stroke-width="0.4824" stroke-linecap="round" stroke-linejoin="round" transform="matrix(1 0 0 1 4.221 10.4095)" />
			<polyline points="-4.221 0 4.221 0" fill="none" stroke="#000000" stroke-width="0.4824" stroke-linecap="round" stroke-linejoin="round" transform="matrix(1 0 0 1 4.221 10.4095)" />
			<path d="M 16.0227 7.73124 L 16.0227 8.5507, 14.941 8.5507, 14.941 10.6167, 13.9603 10.6167, 13.9603 8.5507, 10.5494 8.5507, 10.5494 7.81203, 14.2875 2.62976, 14.941 2.62976, 14.941 7.73124 Z M 13.9603 7.73124 L 13.9603 3.84742, 11.1319 7.73124 Z" stroke="none" fill="#000000" />
			<rect />
		</svg>
	</g>
	<path d="M 0 0 L 578.309 -105.955, 88.819 -343.573 Z" fill="none" stroke="#000000" stroke-width="3" stroke-linecap="round" stroke-linejoin="round" transform="matrix(0.333333 0 0 0.333333 -319.696 333.66)" />
	<path d="M 25.2149 -97.5377 C 63.1969 -87.7188, 92.0246 -56.7442, 99.0947 -18.1558 L 0 0, 1e-005 0 Z" stroke="none" fill="#F00000" fill-opacity="0.521568596" transform="matrix(0.333333 0 -0 0.333333 -319.696 333.661)" />
	<path d="M 25.2149 -97.5377 C 63.1969 -87.7188, 92.0246 -56.7442, 99.0947 -18.1558" fill="none" stroke="#000000" stroke-width="2.25" stroke-linecap="round" stroke-linejoin="round" transform="matrix(0.333333 0 -0 0.333333 -319.696 333.661)" />
	<path d="M 0 0 L 88.8185 -343.572" fill="none" stroke="#000000" stroke-width="1.5" stroke-linecap="round" stroke-linejoin="round" stroke-dasharray="8.2575, 3.7425, 0.015, 4.485" transform="matrix(0.333333 0 -0 0.333333 -319.696 333.661)" />
	<path d="M 0 0 L 370.119 -67.8116" fill="none" stroke="#000000" stroke-width="1.5" stroke-linecap="round" stroke-linejoin="round" stroke-dasharray="8.2575, 3.7425, 0.015, 4.485" transform="matrix(0.333333 0 -0 0.333333 -319.696 333.661)" />
	<path d="M 65.2533 31.6765 C 50.1724 62.7434, 15.2802 78.8704, -18.1544 70.2272 L 0 0, 1e-005 0 Z" stroke="none" fill="#5A4A6C" fill-opacity="0.392156839" transform="matrix(0.333333 0 -0 0.333333 -290.089 219.136)" />
	<path d="M 65.2533 31.6765 C 50.1724 62.7434, 15.2802 78.8704, -18.1544 70.2272" fill="none" stroke="#000000" stroke-width="2.25" stroke-linecap="round" stroke-linejoin="round" transform="matrix(0.333333 0 -0 0.333333 -290.089 219.136)" />
	<path d="M 0 0 L 489.491 237.618" fill="none" stroke="#000000" stroke-width="1.5" stroke-linecap="round" stroke-linejoin="round" stroke-dasharray="8.2575, 3.7425, 0.015, 4.485" transform="matrix(0.333333 0 -0 0.333333 -290.089 219.136)" />
	<path d="M 0 0 L -88.8171 343.573" fill="none" stroke="#000000" stroke-width="1.5" stroke-linecap="round" stroke-linejoin="round" stroke-dasharray="8.2575, 3.7425, 0.015, 4.485" transform="matrix(0.333333 0 -0 0.333333 -290.089 219.136)" />
	<path d="M -71.3487 13.0721 C -74.1308 -2.11269, -71.9957 -17.789, -65.254 -31.6767 L 0 0, 1e-005 0 Z" stroke="none" fill="#0032FF" fill-opacity="0.309803903" transform="matrix(0.333333 0 -0 0.333333 -126.926 298.342)" />
	<path d="M -71.3487 13.0721 C -74.1308 -2.11269, -71.9957 -17.789, -65.254 -31.6767" fill="none" stroke="#000000" stroke-width="2.25" stroke-linecap="round" stroke-linejoin="round" transform="matrix(0.333333 0 -0 0.333333 -126.926 298.342)" />
	<path d="M 0 0 L -370.121 67.8112" fill="none" stroke="#000000" stroke-width="1.5" stroke-linecap="round" stroke-linejoin="round" stroke-dasharray="8.2575, 3.7425, 0.015, 4.485" transform="matrix(0.333333 0 -0 0.333333 -126.926 298.342)" />
	<path d="M 0 0 L -489.49 -237.617" fill="none" stroke="#000000" stroke-width="1.5" stroke-linecap="round" stroke-linejoin="round" stroke-dasharray="8.2575, 3.7425, 0.015, 4.485" transform="matrix(0.333333 0 -0 0.333333 -126.926 298.342)" />
	<g transform="matrix(1 0 -0 1 -300.745 202.927)">
		<svg width="27.0496273" height="29.9858208">
			<defs />
			<path d="M 7.00329 2.48313 L 6.37872 9.12556 C 6.34633 9.43618, 6.33014 9.64008, 6.33014 9.73798, 6.33014 9.8955, 6.36069 10.0151, 6.42105 10.0972, 6.49797 10.2113, 6.60212 10.2959, 6.73351 10.3508, 6.86491 10.406, 7.0861 10.4332, 7.39746 10.4328 L 7.33085 10.6507, 4.09208 10.6507, 4.15869 10.4328, 4.29818 10.4328 C 4.56096 10.4332, 4.77553 10.3784, 4.94115 10.268, 5.05856 10.1936, 5.14946 10.07, 5.21387 9.89697, 5.25877 9.77552, 5.3011 9.48918, 5.34121 9.03722 L 5.43837 8.02437, 3.08511 8.02437, 2.24819 9.12556 C 2.05828 9.37325, 1.93903 9.55101, 1.89045 9.65885, 1.84187 9.76705, 1.81758 9.8679, 1.81758 9.96175, 1.81758 10.0876, 1.87021 10.1958, 1.97547 10.286, 2.08073 10.3765, 2.25444 10.4255, 2.49662 10.4328 L 2.43 10.6507, -0.00202161 10.6507, 0.064594 10.4328 C 0.36418 10.4214, 0.627698 10.3243, 0.856252 10.1417, 1.08481 9.95917, 1.42525 9.56941, 1.87794 8.97245 L 6.79093 2.48313 Z M 5.80237 4.44406 L 3.41856 7.5945, 5.48696 7.5945 Z" stroke="none" fill="#000000" />
			<rect />
		</svg>
	</g>
	<g transform="matrix(1 0 -0 1 -331.42 332.63)">
		<svg width="27.0496273" height="29.9858208">
			<defs />
			<path d="M 2.12269 2.88356 L 2.2077 2.66568, 5.14321 2.66568 C 5.63675 2.66605, 6.07656 2.74076, 6.46264 2.88982, 6.84871 3.03924, 7.13763 3.24719, 7.32974 3.51402, 7.52186 3.78122, 7.61792 4.06351, 7.61792 4.36162, 7.61792 4.8213, 7.44715 5.23646, 7.10561 5.60744, 6.76406 5.97843, 6.20685 6.25225, 5.43433 6.42854, 5.93192 6.60962, 6.29775 6.84922, 6.5322 7.14733, 6.76701 7.44581, 6.88404 7.77337, 6.88404 8.13037, 6.88404 8.52712, 6.77915 8.9062, 6.56863 9.26725, 6.35848 9.62867, 6.08871 9.90912, 5.75894 10.1093, 5.42954 10.3095, 5.03206 10.4568, 4.56685 10.5506, 4.23561 10.6176, 3.71815 10.6507, 3.01445 10.6507 L -0.000180542 10.6507, 0.0785805 10.4328 C 0.39436 10.4255, 0.608561 10.396, 0.72155 10.3445, 0.883488 10.2783, 0.998685 10.1899, 1.06751 10.0795, 1.16467 9.93083, 1.29386 9.58929, 1.45543 9.05489 L 2.92943 4.22029 C 3.05494 3.8125, 3.1175 3.5258, 3.1175 3.36055, 3.1175 3.21554, 3.06193 3.10108, 2.95078 3.01643, 2.83963 2.93214, 2.62801 2.88982, 2.31664 2.88945, 2.24819 2.88982, 2.18341 2.88798, 2.12269 2.88356 Z M 3.35379 6.19889 C 3.61694 6.20698, 3.80721 6.21103, 3.92425 6.21066, 4.76523 6.21103, 5.3909 6.03363, 5.80127 5.67811, 6.212 5.32295, 6.417 4.87835, 6.417 4.34395, 6.417 3.93984, 6.29187 3.62517, 6.04086 3.39919, 5.79022 3.17358, 5.38979 3.06059, 4.83994 3.06022, 4.69456 3.06059, 4.5087 3.08415, 4.28199 3.13089 Z M 2.15912 10.1325 C 2.59599 10.1877, 2.93753 10.2153, 3.18412 10.215, 3.81494 10.2153, 4.374 10.0309, 4.86129 9.66179, 5.34857 9.29301, 5.59222 8.79211, 5.59222 8.15981, 5.59222 7.67731, 5.44169 7.30044, 5.14026 7.02956, 4.8392 6.75868, 4.35265 6.62324, 3.68134 6.62287, 3.55216 6.62324, 3.39464 6.62913, 3.20841 6.64054 Z" stroke="none" fill="#000000" />
			<rect />
		</svg>
	</g>
	<g transform="matrix(1 0 -0 1 -118.459 291.211)">
		<svg width="27.0496273" height="29.9858208">
			<defs />
			<path d="M 7.89947 2.48313 L 7.28705 5.06826, 7.0688 5.06826, 7.04451 4.42051 C 7.02427 4.18533, 6.97789 3.97554, 6.90502 3.79079, 6.83215 3.6064, 6.72321 3.4463, 6.57746 3.31086, 6.43172 3.17542, 6.2477 3.06942, 6.0254 2.99287, 5.8031 2.91632, 5.55652 2.87804, 5.28527 2.87767, 4.5617 2.87804, 3.92867 3.07053, 3.38691 3.45476, 2.69573 3.94573, 2.15397 4.63876, 1.76164 5.53347, 1.43813 6.27176, 1.27619 7.01962, 1.27619 7.77705, 1.27619 8.55067, 1.50879 9.16825, 1.974 9.6294, 2.4392 10.0909, 3.04353 10.3213, 3.78734 10.321, 4.34971 10.3213, 4.84988 10.1999, 5.28858 9.95623, 5.72729 9.71295, 6.13471 9.33792, 6.51048 8.83112 L 6.79571 8.83112 C 6.35112 9.51862, 5.85757 10.0239, 5.31582 10.3478, 4.77406 10.6717, 4.12483 10.8333, 3.36887 10.8333, 2.69757 10.8333, 2.10318 10.6971, 1.58571 10.4244, 1.06824 10.1517, 0.673703 9.76779, 0.402824 9.27314, 0.131945 8.77849, -0.00349414 8.24667, -0.00349414 7.67694, -0.00349414 6.80579, 0.237205 5.95782, 0.718236 5.1334, 1.19964 4.30899, 1.85953 3.66124, 2.69867 3.19014, 3.53781 2.71905, 4.38393 2.4835, 5.23706 2.48313, 5.63749 2.4835, 6.08613 2.57588, 6.58335 2.7599, 6.80197 2.83866, 6.95949 2.87804, 7.05666 2.87767, 7.15382 2.87804, 7.23847 2.85854, 7.31134 2.81916, 7.38421 2.78014, 7.5053 2.66789, 7.67533 2.48313 Z" stroke="none" fill="#000000" />
			<rect />
		</svg>
	</g>
	<path d="M -78.739 14.2712 L 78.7428 -14.2722" fill="none" stroke="#000000" stroke-width="2" stroke-linecap="round" stroke-linejoin="round" marker-end="url(#CustomMarker-01)" transform="matrix(0.333333 0 0 0.333333 -263.843 323.428)" />
	<g transform="matrix(1 0 -0 1 -284.12 241.362)">
		<svg width="50.9858093" height="29.9858208">
			<defs />
			<path d="M 4.74937 2.79135 L 4.28589 3.7724, 1.86139 3.7724, 1.33228 4.8227 C 2.38258 4.97311, 3.21431 5.35218, 3.82819 5.95957, 4.3555 6.48328, 4.6188 7.0986, 4.6188 7.80626, 4.6188 8.21816, 4.5326 8.5994, 4.36019 8.94926, 4.18779 9.29948, 3.97102 9.59776, 3.70952 9.84375, 3.44803 10.0901, 3.15696 10.2881, 2.83596 10.4378, 2.38041 10.6495, 1.91297 10.7552, 1.43327 10.7552, 0.949954 10.7552, 0.59865 10.6755, 0.378635 10.5161, 0.158619 10.3566, 0.0486113 10.1803, 0.0486113 9.98766, 0.0486113 9.88017, 0.0944179 9.78532, 0.18531 9.70236, 0.276562 9.61976, 0.391619 9.57828, 0.530121 9.57792, 0.633276 9.57828, 0.723446 9.59379, 0.800632 9.62445, 0.877817 9.65547, 1.00947 9.7341, 1.19558 9.8607, 1.49278 10.0612, 1.79395 10.1611, 2.09908 10.1608, 2.56292 10.1611, 2.96977 9.9909, 3.32035 9.65042, 3.67093 9.30994, 3.84622 8.89551, 3.84622 8.40643, 3.84622 7.93358, 3.69005 7.4921, 3.37698 7.08237, 3.06391 6.67264, 2.63217 6.35632, 2.08105 6.1327, 1.64931 5.95993, 1.06104 5.86002, 0.316237 5.83261 L 1.86139 2.79135 Z" stroke="none" fill="#000000" />
			<path d="M 6.07291 6.75018 C 6.07291 5.85786, 6.21177 5.08961, 6.48913 4.44507, 6.7665 3.80089, 7.13475 3.32083, 7.59426 3.00487, 7.95098 2.75528, 8.31959 2.63012, 8.69975 2.62976, 9.31796 2.63012, 9.87232 2.93598, 10.3636 3.54733, 10.9778 4.30549, 11.2848 5.33271, 11.2848 6.62899, 11.2848 7.53719, 11.1502 8.30869, 10.8808 8.94349, 10.6114 9.57828, 10.2676 10.0392, 9.8496 10.3256, 9.43157 10.6124, 9.02833 10.7552, 8.64024 10.7552, 7.87163 10.7552, 7.23178 10.3152, 6.72069 9.43365, 6.28896 8.69137, 6.07291 7.79688, 6.07291 6.75018 Z M 7.23755 6.89446 C 7.23755 7.97217, 7.37425 8.85115, 7.64764 9.53176, 7.87343 10.1052, 8.21031 10.392, 8.65791 10.3916, 8.87216 10.392, 9.09397 10.2989, 9.32373 10.1121, 9.55348 9.92562, 9.72769 9.61291, 9.84672 9.17396, 10.0289 8.51247, 10.1198 7.57975, 10.1198 6.37507, 10.1198 5.48275, 10.0249 4.7383, 9.83481 4.14174, 9.69198 3.69954, 9.50768 3.38611, 9.28189 3.20108, 9.11958 3.07448, 8.92373 3.011, 8.69362 3.01064, 8.42455 3.011, 8.1847 3.12822, 7.97442 3.36267, 7.68948 3.68223, 7.49544 4.18466, 7.39228 4.86923, 7.28913 5.55416, 7.23755 6.22936, 7.23755 6.89446 Z" stroke="none" fill="#000000" />
			<path d="M 13.9556 2.48902 C 14.4771 2.48939, 14.9187 2.66605, 15.2805 3.01937, 15.6423 3.37269, 15.823 3.80072, 15.823 4.30273, 15.823 4.8018, 15.6412 5.22762, 15.2776 5.58094, 14.9139 5.93426, 14.473 6.11092, 13.9556 6.11056, 13.4421 6.11092, 13.0034 5.93426, 12.6394 5.58094, 12.2758 5.22762, 12.0936 4.8018, 12.0936 4.30273, 12.0936 3.80072, 12.2747 3.37269, 12.6365 3.01937, 12.9987 2.66605, 13.4381 2.48939, 13.9556 2.48902 Z M 13.9556 2.98367 C 13.5794 2.98404, 13.26 3.11175, 12.9972 3.3668, 12.7344 3.62222, 12.603 3.93211, 12.603 4.29684, 12.603 4.65826, 12.7344 4.96778, 12.9972 5.22468, 13.26 5.48194, 13.5794 5.61039, 13.9556 5.61002, 14.3273 5.61039, 14.6456 5.48194, 14.9106 5.22468, 15.1756 4.96778, 15.3077 4.65826, 15.3077 4.29684, 15.3077 3.93211, 15.1764 3.62222, 14.9136 3.3668, 14.6508 3.11175, 14.3317 2.98404, 13.9556 2.98367 Z" stroke="none" fill="#000000" />
			<rect />
		</svg>
	</g>
	<g transform="matrix(1 0 -0 1 -286.943 301.031)">
		<svg width="50.9858093" height="29.9858208">
			<defs />
			<path d="M 4.98393 2.62976 L 4.98393 2.84328 C 4.46094 2.89378, 4.03426 2.99477, 3.70351 3.14662, 3.37277 3.29883, 3.04599 3.53038, 2.72282 3.84201, 2.40001 4.15364, 2.13275 4.50098, 1.92066 4.88366, 1.70858 5.2667, 1.53149 5.72152, 1.38866 6.24812, 1.95926 5.8676, 2.53166 5.67716, 3.10622 5.6768, 3.65698 5.67716, 4.13453 5.89284, 4.53849 6.3235, 4.94245 6.75451, 5.14443 7.30852, 5.14443 7.98516, 5.14443 8.63943, 4.94065 9.236, 4.53236 9.77413, 4.04111 10.4284, 3.39152 10.7552, 2.58324 10.7552, 2.03248 10.7552, 1.56503 10.5785, 1.18055 10.2243, 0.428166 9.53608, 0.051615 8.6434, 0.051615 7.54657, 0.051615 6.84685, 0.196248 6.18139, 0.485514 5.5502, 0.774781 4.91937, 1.18776 4.35959, 1.72445 3.87087, 2.26115 3.3825, 2.77512 3.05356, 3.26637 2.88404, 3.75761 2.71488, 4.21532 2.63012, 4.63912 2.62976 Z M 1.28767 6.66939 C 1.21625 7.18913, 1.18055 7.6086, 1.18055 7.92745, 1.18055 8.29714, 1.25088 8.69822, 1.39155 9.13104, 1.53221 9.56386, 1.74141 9.90723, 2.01841 10.1608, 2.22075 10.3418, 2.46638 10.4324, 2.75528 10.432, 3.10009 10.4324, 3.40847 10.2748, 3.67971 9.95916, 3.95094 9.64393, 4.08655 9.19344, 4.08655 8.60841, 4.08655 7.95089, 3.95202 7.38174, 3.68259 6.90059, 3.41316 6.4198, 3.03084 6.17922, 2.53563 6.17886, 2.38522 6.17922, 2.22364 6.21024, 2.05123 6.27156, 1.87883 6.33324, 1.62455 6.46597, 1.28767 6.66939 Z" stroke="none" fill="#000000" />
			<path d="M 6.13327 6.75018 C 6.13327 5.85786, 6.27213 5.08961, 6.54949 4.44507, 6.82686 3.80089, 7.19511 3.32083, 7.65462 3.00487, 8.01133 2.75528, 8.37995 2.63012, 8.76011 2.62976, 9.37832 2.63012, 9.93268 2.93598, 10.4239 3.54733, 11.0382 4.30549, 11.3451 5.33271, 11.3451 6.62899, 11.3451 7.53719, 11.2106 8.30869, 10.9411 8.94349, 10.6717 9.57828, 10.328 10.0392, 9.90996 10.3256, 9.49193 10.6124, 9.08869 10.7552, 8.7006 10.7552, 7.93198 10.7552, 7.29214 10.3152, 6.78105 9.43365, 6.34932 8.69137, 6.13327 7.79688, 6.13327 6.75018 Z M 7.29791 6.89446 C 7.29791 7.97217, 7.43461 8.85115, 7.708 9.53176, 7.93379 10.1052, 8.27066 10.392, 8.71827 10.3916, 8.93251 10.392, 9.15433 10.2989, 9.38409 10.1121, 9.61384 9.92562, 9.78805 9.61291, 9.90707 9.17396, 10.0892 8.51247, 10.1801 7.57975, 10.1801 6.37507, 10.1801 5.48275, 10.0853 4.7383, 9.89517 4.14174, 9.75234 3.69954, 9.56803 3.38611, 9.34225 3.20108, 9.17994 3.07448, 8.98409 3.011, 8.75398 3.01064, 8.48491 3.011, 8.24506 3.12822, 8.03478 3.36267, 7.74984 3.68223, 7.55579 4.18466, 7.45264 4.86923, 7.34948 5.55416, 7.29791 6.22936, 7.29791 6.89446 Z" stroke="none" fill="#000000" />
			<path d="M 14.0159 2.48902 C 14.5374 2.48939, 14.9791 2.66605, 15.3409 3.01937, 15.7027 3.37269, 15.8834 3.80072, 15.8834 4.30273, 15.8834 4.8018, 15.7016 5.22762, 15.3379 5.58094, 14.9743 5.93426, 14.5334 6.11092, 14.0159 6.11056, 13.5025 6.11092, 13.0638 5.93426, 12.6998 5.58094, 12.3362 5.22762, 12.154 4.8018, 12.154 4.30273, 12.154 3.80072, 12.3351 3.37269, 12.6969 3.01937, 13.059 2.66605, 13.4985 2.48939, 14.0159 2.48902 Z M 14.0159 2.98367 C 13.6398 2.98404, 13.3203 3.11175, 13.0575 3.3668, 12.7948 3.62222, 12.6634 3.93211, 12.6634 4.29684, 12.6634 4.65826, 12.7948 4.96778, 13.0575 5.22468, 13.3203 5.48194, 13.6398 5.61039, 14.0159 5.61002, 14.3876 5.61039, 14.706 5.48194, 14.971 5.22468, 15.236 4.96778, 15.3681 4.65826, 15.3681 4.29684, 15.3681 3.93211, 15.2367 3.62222, 14.9739 3.3668, 14.7112 3.11175, 14.3921 2.98404, 14.0159 2.98367 Z" stroke="none" fill="#000000" />
			<rect />
		</svg>
	</g>
	<path d="M 0 0 L 467.253 57.859, 353.253 -266.813 Z" fill="none" stroke="#000000" stroke-width="3" stroke-linecap="round" stroke-linejoin="round" transform="matrix(0.333333 0 0 0.333333 31.0186 117.747)" />
	<g transform="matrix(1 0 -0 1 13.8112 110.578)">
		<svg width="29.9991093" height="29.9858208">
			<defs />
			<path d="M 2.23549 2.66568 L 5.47463 2.66568 C 6.3237 2.66605, 6.95857 2.84381, 7.37888 3.19897, 7.79955 3.5545, 8.0097 3.98695, 8.0097 4.49706, 8.0097 4.90191, 7.87647 5.29461, 7.60964 5.67516, 7.34281 6.05609, 6.94643 6.36524, 6.42087 6.60263, 5.8953 6.84038, 5.32704 6.95889, 4.71646 6.95852, 4.33628 6.95889, 3.85304 6.89228, 3.26675 6.75831 L 2.61163 8.93712 C 2.45816 9.45569, 2.38124 9.79723, 2.38124 9.96175, 2.38124 10.0876, 2.43607 10.1918, 2.54501 10.2742, 2.65432 10.3567, 2.91527 10.4097, 3.32747 10.4328 L 3.26675 10.6507, -0.0025717 10.6507, 0.0640439 10.4328 C 0.492813 10.4332, 0.790927 10.3618, 0.958754 10.2183, 1.12658 10.0751, 1.30766 9.67946, 1.50162 9.03134 L 2.86043 4.48528 C 3.02237 3.93984, 3.10297 3.57475, 3.10297 3.38999, 3.10297 3.25308, 3.04555 3.13935, 2.92999 3.04881, 2.81479 2.95864, 2.56121 2.90344, 2.16888 2.88356 Z M 3.3698 6.38732 C 3.82691 6.50142, 4.19458 6.55846, 4.47355 6.55809, 4.91447 6.55846, 5.316 6.47013, 5.67779 6.29347, 6.03994 6.11681, 6.32297 5.85182, 6.52686 5.4985, 6.73112 5.14518, 6.83307 4.77824, 6.83307 4.39695, 6.83307 4.00094, 6.70794 3.687, 6.4573 3.45513, 6.20666 3.22363, 5.82648 3.1077, 5.31674 3.10733, 5.04181 3.1077, 4.70837 3.14119, 4.31603 3.20744 Z" stroke="none" fill="#000000" />
			<rect />
		</svg>
	</g>
	<g transform="matrix(1 0 -0 1 144.609 10.4033)">
		<svg width="29.9991093" height="38.9432983">
			<defs />
			<path d="M 3.04316 10.8333 L 1.47824 12.064 C 1.7252 12.0209, 1.95375 11.9992, 2.16391 11.9992, 2.36633 11.9992, 2.5533 12.011, 2.7248 12.0346, 2.89668 12.0581, 3.26472 12.1317, 3.82856 12.2554, 4.39277 12.379, 4.88521 12.4409, 5.30551 12.4409, 5.75452 12.4409, 6.13545 12.3654, 6.44902 12.2142, 6.76259 12.0633, 7.06659 11.8108, 7.36176 11.4575 L 7.56198 11.5517 C 7.14535 12.1328, 6.65402 12.552, 6.08797 12.8089, 5.52192 13.0662, 4.92165 13.1946, 4.28677 13.1946, 3.93492 13.1946, 3.45389 13.128, 2.84294 12.9944, 1.90885 12.7942, 1.25595 12.6941, 0.883857 12.6941, 0.742529 12.6941, 0.627331 12.704, 0.538265 12.7235, 0.449199 12.7434, 0.315968 12.7905, 0.137836 12.8649 L -0.00165224 12.7059, 2.48521 10.7979 C 1.7171 10.696, 1.13486 10.3684, 0.73848 9.8149, 0.342467 9.26136, 0.144092 8.67066, 0.144092 8.04204, 0.144092 7.18266, 0.412027 6.29347, 0.947896 5.37484, 1.48377 4.45621, 2.16906 3.74478, 3.00378 3.2402, 3.83887 2.73598, 4.65886 2.4835, 5.4634 2.48313, 6.06184 2.4835, 6.57231 2.60127, 6.99483 2.83682, 7.41734 3.07237, 7.74416 3.41502, 7.97455 3.86439, 8.20495 4.31414, 8.32014 4.77419, 8.32014 5.24492, 8.32014 6.1481, 8.05552 7.06305, 7.52554 7.98941, 6.99593 8.91614, 6.33787 9.61763, 5.55136 10.0946, 4.76486 10.5716, 3.92867 10.8178, 3.04316 10.8333 Z M 5.31766 2.86001 C 4.91355 2.86038, 4.51827 2.95754, 4.13183 3.15187, 3.74575 3.34619, 3.36262 3.66418, 2.98243 4.10583, 2.60261 4.54748, 2.2607 5.12567, 1.95744 5.83968, 1.58976 6.7193, 1.40574 7.5496, 1.40574 8.33058, 1.40574 8.88854, 1.55333 9.38208, 1.84849 9.81195, 2.14366 10.2418, 2.59672 10.4568, 3.20694 10.4564, 3.57093 10.4568, 3.93088 10.3684, 4.28677 10.1918, 4.64267 10.0151, 5.01071 9.71479, 5.39053 9.29044, 5.87561 8.74905, 6.28193 8.06007, 6.60949 7.22388, 6.93704 6.38769, 7.10082 5.61039, 7.10082 4.8916, 7.10082 4.36199, 6.95324 3.89089, 6.65807 3.47869, 6.3629 3.06648, 5.91609 2.86038, 5.31766 2.86001 Z" stroke="none" fill="#000000" />
			<rect />
		</svg>
	</g>
	<g transform="matrix(1 0 -0 1 183.03 143.105)">
		<svg width="27.0496273" height="29.9858208">
			<defs />
			<path d="M 5.44371 10.6507 L 4.12759 6.77009 C 3.82028 6.7745, 3.50487 6.74506, 3.18136 6.68176 L 2.47177 9.09611 C 2.37903 9.41042, 2.33228 9.67541, 2.33228 9.89108, 2.33228 10.0563, 2.39117 10.1859, 2.50821 10.2797, 2.59727 10.3508, 2.83981 10.4019, 3.23583 10.4328 L 3.18136 10.6507, -0.00294185 10.6507, 0.0636738 10.4328 C 0.36326 10.4214, 0.565315 10.392, 0.670207 10.3445, 0.836194 10.2783, 0.957648 10.1877, 1.0342 10.0736, 1.16375 9.88961, 1.29919 9.56353, 1.44052 9.09611 L 2.87809 4.27329 C 2.97525 3.95162, 3.02384 3.70246, 3.02384 3.52543, 3.02384 3.34509, 2.94802 3.19235, 2.79639 3.06648, 2.64475 2.94098, 2.42761 2.87988, 2.14422 2.88356 L 2.21709 2.66568, 4.8979 2.66568 C 5.79556 2.66605, 6.44258 2.83093, 6.83896 3.1607, 7.23534 3.49046, 7.43335 3.92439, 7.43335 4.46173, 7.43335 4.97625, 7.23019 5.44661, 6.82387 5.87243, 6.41755 6.29862, 5.86033 6.5684, 5.15259 6.68176 L 5.95308 9.01956 C 6.14741 9.59297, 6.34137 9.96616, 6.53569 10.1388, 6.73002 10.3118, 7.04322 10.4097, 7.47567 10.4328 L 7.40906 10.6507 Z M 3.28441 6.3461 C 3.54351 6.3818, 3.77391 6.39947, 3.97596 6.3991, 4.67156 6.39947, 5.22141 6.21213, 5.62552 5.8371, 6.03 5.46243, 6.23206 4.99612, 6.23206 4.43817, 6.23206 4.00278, 6.10582 3.66933, 5.85297 3.43747, 5.6005 3.20597, 5.22141 3.09003, 4.71572 3.08967, 4.58654 3.09003, 4.43307 3.10586, 4.25494 3.13678 Z" stroke="none" fill="#000000" />
			<rect />
		</svg>
	</g>
	<path d="M 43.6143 -32.9422 C 52.1764 -21.6061, 55.9885 -7.38181, 54.2427 6.71671" fill="none" stroke="#000000" stroke-width="2.25" stroke-linecap="round" stroke-linejoin="round" transform="matrix(0.333333 0 -0 0.333333 31.0186 117.747)" />
	<path d="M 18.1193 51.5665 C -4.319 59.4508, -29.2801 51.9203, -43.6143 32.9421" fill="none" stroke="#000000" stroke-width="2.25" stroke-linecap="round" stroke-linejoin="round" transform="matrix(0.333333 0 -0 0.333333 148.77 28.8096)" />
	<path d="M -283.592 -35.1164 L 283.592 35.1165" fill="none" stroke="#000000" stroke-width="3" stroke-linecap="round" stroke-linejoin="round" transform="matrix(0.333333 0 0 0.333333 125.549 129.453)" />
	<path d="M -14.8434 -42.2433 C 8.48695 -50.4411, 34.0456 -38.1738, 42.2434 -14.8434, 44.5466 -8.28881, 45.2928 -1.28816, 44.4232 5.60468" fill="none" stroke="#000000" stroke-width="2.25" stroke-linecap="round" stroke-linejoin="round" transform="matrix(0.333333 0 -0 0.333333 186.77 136.955)" />
</svg>
