<?xml version="1.0"?>
<svg xmlns="http://www.w3.org/2000/svg" xmlns:xlink="http://www.w3.org/1999/xlink" width="289.583313" height="157.916656">
	<defs>
		<marker id="CustomMarker-01" markerUnits="strokeWidth" markerWidth="9.4800005" markerHeight="9.4800005" viewBox="-4.74 -4.74 9.48 9.48" orient="auto-start-reverse">
			<path d="M -0 -3.16 C 1.74522 -3.16, 3.16 -1.74522, 3.16 0, 3.16 1.74522, 1.74522 3.16, -0 3.16, -1.74522 3.16, -3.16 1.74522, -3.16 0, -3.16 -1.74522, -1.74522 -3.16, -0 -3.16 Z" fill="#000000" stroke="#000000" stroke-linejoin="round" />
		</marker>
		<marker id="CustomMarker-02" markerUnits="strokeWidth" markerWidth="9.4800005" markerHeight="9.4800005" viewBox="-4.74 -4.74 9.48 9.48" orient="auto-start-reverse">
			<path d="M -0 -3.16 C 1.74522 -3.16, 3.16 -1.74522, 3.16 0, 3.16 1.74522, 1.74522 3.16, -0 3.16, -1.74522 3.16, -3.16 1.74522, -3.16 0, -3.16 -1.74522, -1.74522 -3.16, -0 -3.16 Z" fill="#000000" stroke="#000000" stroke-linejoin="round" />
		</marker>
		<marker id="CustomMarker-03" markerUnits="strokeWidth" markerWidth="15.000001" markerHeight="6" viewBox="-15 -3 15 6" orient="auto-start-reverse">
			<path d="M 0 -0 L -10 -2, -10 -0.5, -10 0.5, -10 2 Z" fill="#000000" stroke="#000000" stroke-linejoin="round" />
		</marker>
		<marker id="CustomMarker-04" markerUnits="strokeWidth" markerWidth="15.000001" markerHeight="6" viewBox="-15 -3 15 6" orient="auto-start-reverse">
			<path d="M 0 -0 L -10 -2, -10 -0.5, -10 0.5, -10 2 Z" fill="#000000" stroke="#000000" stroke-linejoin="round" />
		</marker>
		<marker id="CustomMarker-05" markerUnits="strokeWidth" markerWidth="15.000001" markerHeight="6" viewBox="-15 -3 15 6" orient="auto-start-reverse">
			<path d="M 0 -0 L -10 -2, -8 -0.5, -8 0.5, -10 2 Z" fill="#000000" stroke="#000000" stroke-linejoin="round" />
		</marker>
		<marker id="CustomMarker-06" markerUnits="strokeWidth" markerWidth="15.000001" markerHeight="6" viewBox="-15 -3 15 6" orient="auto-start-reverse">
			<path d="M 0 -0 L -10 -2, -10 -0.5, -10 0.5, -10 2 Z" fill="#000000" stroke="#000000" stroke-linejoin="round" />
		</marker>
		<marker id="CustomMarker-07" markerUnits="strokeWidth" markerWidth="15.000001" markerHeight="6" viewBox="-15 -3 15 6" orient="auto-start-reverse">
			<path d="M 0 -0 L -10 -2, -10 -0.5, -10 0.5, -10 2 Z" fill="#000000" stroke="#000000" stroke-linejoin="round" />
		</marker>
	</defs>
	<rect x="-0" y="-0" width="289.583313" height="157.916656" stroke="none" fill="#FFFFFF" />
	<rect x="-554.383362" y="-215.999969" width="1108.76672" height="431.999939" stroke="none" fill="#000018" fill-opacity="0" transform="matrix(0.416667 0 -0 0.416667 -425.347 5.66332)" />
	<path d="M -554.383 -216 L 554.383 -216, 554.383 216, -554.383 216 Z" fill="none" stroke="#000000" stroke-width="2.4000001" stroke-linecap="round" stroke-linejoin="round" stroke-dasharray="1.212, 3.588" transform="matrix(0.416667 0 -0 0.416667 -425.347 5.66332)" />
	<ellipse cx="-1300.3427000045776" cy="283.32435321807861" rx="6.3000001907348633" ry="6.3000001907348633" stroke="none" fill="#000000" transform="matrix(0.416667 0 0 0.416667 -76.6667 -57.0833)" />
	<g transform="matrix(1 0 -0 1 -626.796 37.8637)">
		<svg width="65.9601059" height="42.0047188">
			<defs />
			<path d="M 3.21781 5.24257 L 3.21781 8.09268, 9.08646 8.09268, 9.08646 5.24257 Z M 2.36277 9.33637 C 2.3984 8.61412, 2.41459 7.83682, 2.41459 7.00769, 2.41459 6.17857, 2.3984 5.34944, 2.36277 4.51708 L 3.21781 4.93164, 5.51085 4.93164 C 5.51085 2.61916, 5.49466 1.11637, 5.45903 0.423276 L 6.68653 0.889659, 6.25901 1.30422, 6.25901 2.54791, 9.72773 2.54791, 10.4208 1.87424, 11.3827 2.85883, 6.25901 2.85883, 6.25901 4.93164, 8.97958 4.93164, 9.51397 4.41344, 10.3139 5.19074, 9.83461 5.55349 C 9.83461 7.17935, 9.85404 8.28701, 9.88967 8.86999 L 9.08646 9.18091, 9.08646 8.4036, 3.21781 8.4036, 3.21781 9.02545 Z M 2.09719 9.59547 L 2.30771 9.59547 C 2.09719 10.946, 1.87696 11.7298, 1.64376 11.9533, 1.41057 12.18, 1.20653 12.2901, 1.0284 12.2901, 0.924758 12.2901, 0.798446 12.248, 0.65594 12.1606, 0.513434 12.0764, 0.442181 11.9792, 0.442181 11.8756, 0.442181 11.7719, 0.532866 11.6521, 0.70776 11.5128, 1.0284 11.2732, 1.26807 11.0497, 1.43001 10.8424, 1.59194 10.6351, 1.81218 10.2206, 2.09719 9.59547 Z M 3.96272 9.85457 L 4.0696 9.69911 C 4.81776 10.2562, 5.23556 10.6448, 5.32624 10.8683, 5.41693 11.095, 5.45903 11.2537, 5.45903 11.3574, 5.45903 11.6003, 5.3813 11.7978, 5.21937 11.9533, 5.05743 12.1088, 4.96026 12.1865, 4.92464 12.1865, 4.78213 12.1865, 4.69468 12.0148, 4.65906 11.6683, 4.58781 11.1533, 4.35785 10.5477, 3.96272 9.85457 Z M 6.79341 9.80275 L 6.90029 9.64729 C 7.57719 10.1331, 7.99499 10.5153, 8.15369 10.7906, 8.31563 11.0691, 8.39336 11.2537, 8.39336 11.3574, 8.39336 11.5323, 8.31563 11.7039, 8.15369 11.8756, 7.99499 12.0505, 7.89783 12.1347, 7.85896 12.1347, 7.71646 12.1347, 7.61282 11.9274, 7.54156 11.5128, 7.43468 10.9298, 7.1853 10.3598, 6.79341 9.80275 Z M 9.67591 9.64729 L 9.78279 9.49183 C 10.4953 9.97765, 10.9844 10.3954, 11.25 10.7388, 11.5155 11.0853, 11.6483 11.3412, 11.6483 11.5128, 11.6483 11.6877, 11.5803 11.8594, 11.4378 12.031, 11.2953 12.2059, 11.2078 12.2901, 11.169 12.2901, 11.0265 12.2901, 10.9034 12.0828, 10.7965 11.6683, 10.6184 11.0853, 10.2459 10.4116, 9.67591 9.64729 Z" stroke="none" fill="#000000" />
			<path d="M 19.7764 2.48313 L 19.1519 9.12556 C 19.1195 9.43618, 19.1033 9.64008, 19.1033 9.73798, 19.1033 9.8955, 19.1338 10.0151, 19.1942 10.0972, 19.2711 10.2113, 19.3753 10.2959, 19.5067 10.3508, 19.638 10.406, 19.8592 10.4332, 20.1706 10.4328 L 20.104 10.6507, 16.8652 10.6507, 16.9318 10.4328, 17.0713 10.4328 C 17.3341 10.4332, 17.5487 10.3784, 17.7143 10.268, 17.8317 10.1936, 17.9226 10.07, 17.987 9.89697, 18.0319 9.77552, 18.0742 9.48918, 18.1143 9.03722 L 18.2115 8.02437, 15.8583 8.02437, 15.0213 9.12556 C 14.8314 9.37325, 14.7122 9.55101, 14.6636 9.65885, 14.615 9.76705, 14.5907 9.8679, 14.5907 9.96175, 14.5907 10.0876, 14.6433 10.1958, 14.7486 10.286, 14.8539 10.3765, 15.0276 10.4255, 15.2698 10.4328 L 15.2031 10.6507, 12.7711 10.6507, 12.8377 10.4328 C 13.1373 10.4214, 13.4008 10.3243, 13.6294 10.1417, 13.8579 9.95917, 14.1984 9.56941, 14.6511 8.97245 L 19.5641 2.48313 Z M 18.5755 4.44406 L 16.1917 7.5945, 18.2601 7.5945 Z" stroke="none" fill="#000000" />
			<rect />
		</svg>
	</g>
	<path d="M -114.999 111 L 115 -111" fill="none" stroke="#000000" stroke-width="2.4000001" stroke-linecap="round" stroke-linejoin="round" marker-start="url(#CustomMarker-01)" marker-end="url(#CustomMarker-02)" transform="matrix(0.416667 0 0 0.416667 -276.576 14.9837)" />
	<path d="M -98.4984 95.0713 L 98.4976 -95.0712" fill="none" stroke="#000000" stroke-width="2.4000001" stroke-linecap="round" stroke-linejoin="round" transform="matrix(0.416667 0 0 0.416667 -400.882 13.022)" />
	<ellipse cx="-876.61540508270264" cy="263.32413959503174" rx="6.3000001907348633" ry="6.3000001907348633" stroke="none" fill="#000000" transform="matrix(0.416667 0 0 0.416667 -76.6667 -57.0833)" />
	<path d="M -96.3384 92.9876 L 96.3384 -92.9879" fill="none" stroke="#000000" stroke-width="1.20000005" stroke-linecap="round" stroke-linejoin="round" stroke-dasharray="4.206, 2.994" transform="matrix(0.416667 0 0 0.416667 -364.21 -21.9401)" />
	<g transform="matrix(1 0 -0 1 -464.927 53.799)">
		<svg width="65.9601059" height="39.0566864">
			<defs />
			<path d="M 3.21781 4.88076 L 3.21781 7.73088, 9.08646 7.73088, 9.08646 4.88076 Z M 2.36277 8.97457 C 2.3984 8.25232, 2.41459 7.47502, 2.41459 6.64589, 2.41459 5.81677, 2.3984 4.98764, 2.36277 4.15528 L 3.21781 4.56984, 5.51085 4.56984 C 5.51085 2.25736, 5.49466 0.754573, 5.45903 0.0614758 L 6.68653 0.527859, 6.25901 0.942422, 6.25901 2.18611, 9.72773 2.18611, 10.4208 1.51244, 11.3827 2.49703, 6.25901 2.49703, 6.25901 4.56984, 8.97958 4.56984, 9.51397 4.05164, 10.3139 4.82894, 9.83461 5.19169 C 9.83461 6.81755, 9.85404 7.92521, 9.88967 8.50819 L 9.08646 8.81911, 9.08646 8.0418, 3.21781 8.0418, 3.21781 8.66365 Z M 2.09719 9.23367 L 2.30771 9.23367 C 2.09719 10.5842, 1.87696 11.368, 1.64376 11.5915, 1.41057 11.8182, 1.20653 11.9283, 1.0284 11.9283, 0.924758 11.9283, 0.798446 11.8862, 0.65594 11.7988, 0.513434 11.7146, 0.442181 11.6174, 0.442181 11.5138, 0.442181 11.4101, 0.532866 11.2903, 0.70776 11.151, 1.0284 10.9114, 1.26807 10.6879, 1.43001 10.4806, 1.59194 10.2733, 1.81218 9.85875, 2.09719 9.23367 Z M 3.96272 9.49277 L 4.0696 9.33731 C 4.81776 9.89438, 5.23556 10.283, 5.32624 10.5065, 5.41693 10.7332, 5.45903 10.8919, 5.45903 10.9956, 5.45903 11.2385, 5.3813 11.436, 5.21937 11.5915, 5.05743 11.747, 4.96026 11.8247, 4.92464 11.8247, 4.78213 11.8247, 4.69468 11.653, 4.65906 11.3065, 4.58781 10.7915, 4.35785 10.1859, 3.96272 9.49277 Z M 6.79341 9.44095 L 6.90029 9.28549 C 7.57719 9.77131, 7.99499 10.1535, 8.15369 10.4288, 8.31563 10.7073, 8.39336 10.8919, 8.39336 10.9956, 8.39336 11.1705, 8.31563 11.3421, 8.15369 11.5138, 7.99499 11.6887, 7.89783 11.7729, 7.85896 11.7729, 7.71646 11.7729, 7.61282 11.5656, 7.54156 11.151, 7.43468 10.568, 7.1853 9.99802, 6.79341 9.44095 Z M 9.67591 9.28549 L 9.78279 9.13003 C 10.4953 9.61585, 10.9844 10.0336, 11.25 10.377, 11.5155 10.7235, 11.6483 10.9794, 11.6483 11.151, 11.6483 11.3259, 11.5803 11.4976, 11.4378 11.6692, 11.2953 11.8441, 11.2078 11.9283, 11.169 11.9283, 11.0265 11.9283, 10.9034 11.721, 10.7965 11.3065, 10.6184 10.7235, 10.2459 10.0498, 9.67591 9.28549 Z" stroke="none" fill="#000000" />
			<path d="M 15.2153 2.88356 L 15.3003 2.66568, 18.2358 2.66568 C 18.7293 2.66605, 19.1692 2.74076, 19.5552 2.88982, 19.9413 3.03924, 20.2302 3.24719, 20.4223 3.51402, 20.6145 3.78122, 20.7105 4.06351, 20.7105 4.36162, 20.7105 4.8213, 20.5397 5.23646, 20.1982 5.60744, 19.8567 5.97843, 19.2994 6.25225, 18.5269 6.42854, 19.0245 6.60962, 19.3904 6.84922, 19.6248 7.14733, 19.8596 7.44581, 19.9766 7.77337, 19.9766 8.13037, 19.9766 8.52712, 19.8717 8.9062, 19.6612 9.26725, 19.4511 9.62867, 19.1813 9.90912, 18.8515 10.1093, 18.5221 10.3095, 18.1247 10.4568, 17.6594 10.5506, 17.3282 10.6176, 16.8107 10.6507, 16.107 10.6507 L 13.0924 10.6507, 13.1712 10.4328 C 13.487 10.4255, 13.7012 10.396, 13.8141 10.3445, 13.9761 10.2783, 14.0913 10.1899, 14.1601 10.0795, 14.2573 9.93083, 14.3865 9.58929, 14.548 9.05489 L 16.022 4.22029 C 16.1475 3.8125, 16.2101 3.5258, 16.2101 3.36055, 16.2101 3.21554, 16.1545 3.10108, 16.0434 3.01643, 15.9322 2.93214, 15.7206 2.88982, 15.4092 2.88945, 15.3408 2.88982, 15.276 2.88798, 15.2153 2.88356 Z M 16.4464 6.19889 C 16.7095 6.20698, 16.8998 6.21103, 17.0168 6.21066, 17.8578 6.21103, 18.4835 6.03363, 18.8939 5.67811, 19.3046 5.32295, 19.5096 4.87835, 19.5096 4.34395, 19.5096 3.93984, 19.3845 3.62517, 19.1335 3.39919, 18.8828 3.17358, 18.4824 3.06059, 17.9325 3.06022, 17.7872 3.06059, 17.6013 3.08415, 17.3746 3.13089 Z M 15.2517 10.1325 C 15.6886 10.1877, 16.0301 10.2153, 16.2767 10.215, 16.9075 10.2153, 17.4666 10.0309, 17.9539 9.66179, 18.4412 9.29301, 18.6848 8.79211, 18.6848 8.15981, 18.6848 7.67731, 18.5343 7.30044, 18.2329 7.02956, 17.9318 6.75868, 17.4452 6.62324, 16.7739 6.62287, 16.6448 6.62324, 16.4872 6.62913, 16.301 6.64054 Z" stroke="none" fill="#000000" />
			<rect />
		</svg>
	</g>
	<g transform="matrix(1 0 -0 1 -341.592 60.351)">
		<svg width="29.9991093" height="35.995266">
			<defs />
			<path d="M 8.77719 2.75904 L 8.09672 5.6314, 7.85422 5.6314, 7.82723 4.91167 C 7.80474 4.65037, 7.75322 4.41727, 7.67225 4.21199, 7.59128 4.00711, 7.47023 3.82922, 7.30829 3.67873, 7.14636 3.52825, 6.94189 3.41047, 6.69489 3.32541, 6.4479 3.24036, 6.17391 3.19783, 5.87252 3.19742, 5.06856 3.19783, 4.36519 3.4117, 3.76323 3.83863, 2.99525 4.38415, 2.3933 5.15417, 1.95737 6.1483, 1.59792 6.96862, 1.41799 7.79958, 1.41799 8.64117, 1.41799 9.50075, 1.67644 10.1869, 2.19333 10.6993, 2.71022 11.2121, 3.3817 11.4681, 4.20816 11.4677, 4.83301 11.4681, 5.38875 11.3332, 5.8762 11.0625, 6.36365 10.7922, 6.81635 10.3755, 7.23387 9.81236 L 7.55079 9.81236 C 7.0568 10.5763, 6.50842 11.1377, 5.90646 11.4976, 5.30451 11.8574, 4.58315 12.037, 3.7432 12.037, 2.9973 12.037, 2.33687 11.8857, 1.7619 11.5826, 1.18694 11.2796, 0.748561 10.8531, 0.447584 10.3035, 0.146607 9.75388, -0.00388086 9.16297, -0.00388086 8.52994, -0.00388086 7.56199, 0.263563 6.6198, 0.798042 5.70378, 1.33293 4.78777, 2.06615 4.06804, 2.99852 3.5446, 3.9309 3.02117, 4.87104 2.75945, 5.81895 2.75904, 6.26387 2.75945, 6.76237 2.86209, 7.31484 3.06656, 7.55775 3.15407, 7.73277 3.19783, 7.84073 3.19742, 7.94869 3.19783, 8.04274 3.17615, 8.12371 3.1324, 8.20468 3.08905, 8.33922 2.96432, 8.52815 2.75904 Z" stroke="none" fill="#000000" />
			<rect />
		</svg>
	</g>
	<g transform="matrix(1 0 -0 1 -233.727 -54.6491)">
		<svg width="36.0115128" height="30.0992088">
			<defs />
			<path d="M 2.43194 3.20396 L 2.5125 2.96187, 5.43067 2.96187 C 6.66647 2.96228, 7.58167 3.09968, 8.17708 3.37449, 8.77249 3.64929, 9.24726 4.08235, 9.60222 4.67327, 9.95717 5.26459, 10.1347 5.89803, 10.1347 6.57359, 10.1347 7.15428, 10.0328 7.7182, 9.82836 8.26536, 9.62389 8.81292, 9.39243 9.2513, 9.13399 9.58049, 8.87554 9.91009, 8.47928 10.2732, 7.94439 10.6699, 7.40992 11.067, 6.83045 11.3602, 6.20601 11.5499, 5.58156 11.7397, 4.80213 11.8341, 3.86731 11.8341 L -0.00122246 11.8341, 0.0866987 11.592 C 0.441655 11.5839, 0.679655 11.5532, 0.8007 11.5004, 0.980632 11.4268, 1.11354 11.3262, 1.19859 11.1995, 1.32904 11.0167, 1.47503 10.6482, 1.63656 10.0937 L 3.2539 4.72847 C 3.37986 4.30563, 3.44283 3.97439, 3.44283 3.73394, 3.44283 3.56423, 3.38476 3.43337, 3.26781 3.34177, 3.15085 3.25017, 2.92185 3.20437, 2.57998 3.20396 Z M 4.82422 3.45259 L 2.84292 10.0937 C 2.69489 10.5914, 2.62046 10.8989, 2.62046 11.0163, 2.62046 11.0866, 2.64418 11.1541, 2.69121 11.2195, 2.73865 11.2849, 2.80244 11.3287, 2.88341 11.35, 3.00036 11.3896, 3.18888 11.4093, 3.44938 11.4088, 4.15479 11.4093, 4.80949 11.3385, 5.4139 11.1966, 6.01831 11.0551, 6.51394 10.8445, 6.89997 10.5648, 7.44795 10.1595, 7.88592 9.60135, 8.21388 8.89021, 8.54185 8.17948, 8.70583 7.3702, 8.70583 6.46236, 8.70583 5.43757, 8.45434 4.67572, 7.95135 4.176, 7.44836 3.67669, 6.7135 3.42683, 5.74759 3.42642, 5.50959 3.42683, 5.20166 3.43542, 4.82422 3.45259 Z" stroke="none" fill="#000000" />
			<rect />
		</svg>
	</g>
	<g transform="matrix(1 0 -0 1 -620.153 -101.716)">
		<svg width="123.021248" height="42.0047188">
			<defs />
			<path d="M 7.09153 10.1687 C 7.09153 10.9408, 7.11116 11.7063, 7.14715 12.4718 L 6.23113 12.8382 C 6.26712 11.7586, 6.28348 10.7837, 6.28348 9.90697 L 6.28348 6.87103, 2.07962 6.87103 C 1.61507 6.8743, 1.18323 6.92665, 0.784111 7.02806 L 0.299932 6.55697, 6.28348 6.55697, 6.28348 2.1601, 3.2639 2.1601 C 2.79935 2.16337, 2.36751 2.21571, 1.97166 2.31713 L 1.48748 1.84603, 10.2747 1.84603, 11.0271 1.11322, 12.1067 2.1601, 7.09153 2.1601, 7.09153 6.55697, 11.0271 6.55697, 11.8385 5.77181, 12.9704 6.87103, 7.09153 6.87103 Z M 10.0588 2.68353 L 11.1907 3.52103 C 10.9028 3.5243, 10.507 3.83837, 10.0032 4.46322, 9.46663 5.09462, 8.89085 5.68676, 8.27908 6.24291 L 8.11878 6.13822 C 9.05442 4.92123, 9.69891 3.76967, 10.0588 2.68353 Z M 2.61941 2.94525 C 3.66302 3.68134, 4.27479 4.1786, 4.45145 4.44032, 4.63138 4.70204, 4.71971 4.93759, 4.71971 5.14369, 4.71971 5.25165, 4.69353 5.38251, 4.64119 5.53954, 4.58885 5.69657, 4.46126 5.84706, 4.26497 5.98446, 4.06868 6.12513, 3.87894 5.87977, 3.69573 5.24838, 3.51907 4.65951, 3.10359 3.9267, 2.45584 3.04994 Z" stroke="none" fill="#000000" />
			<path d="M 19.2351 9.27884 L 19.2351 11.582, 21.499 11.582, 21.499 9.27884 Z M 18.8557 4.25385 C 19.1435 3.4556, 19.3431 2.70316, 19.4478 2.00306 L 15.9997 2.00306 C 15.4631 2.00634, 14.9953 2.05868, 14.5962 2.1601 L 14.112 1.689, 24.8948 1.689, 25.7585 0.903845, 26.7268 2.00306, 19.9876 2.00306, 20.7956 2.42181, 20.2591 2.57885 C 19.8273 3.17426, 19.4674 3.73368, 19.1795 4.25385 L 24.463 4.25385, 24.8392 3.73041, 25.7029 4.35853, 25.3267 4.72494 C 25.3267 7.86883, 25.3463 10.486, 25.379 12.5765 L 24.5709 12.9429, 24.5709 11.896, 16.2156 11.896, 16.2156 12.6288, 15.4042 12.9953 C 15.4435 11.775, 15.4599 10.2178, 15.4599 8.31376, 15.4599 6.41302, 15.4435 4.92123, 15.4042 3.83509 L 16.2156 4.25385 Z M 16.2156 4.56791 L 16.2156 11.582, 18.5318 11.582, 18.5318 4.56791 Z M 22.1991 4.56791 L 22.1991 11.582, 24.5709 11.582, 24.5709 4.56791 Z M 19.2351 4.56791 L 19.2351 6.55697, 21.499 6.55697, 21.499 4.56791 Z M 19.2351 6.87103 L 19.2351 8.96478, 21.499 8.96478, 21.499 6.87103 Z" stroke="none" fill="#000000" />
			<path d="M 30.5778 2.96187 L 39.6893 2.96187, 39.6083 3.20396 C 39.2132 3.20887, 38.9143 3.27757, 38.7119 3.41047, 38.5099 3.54379, 38.2964 3.98298, 38.0715 4.72847 L 36.5282 9.85162 C 36.3487 10.454, 36.2587 10.84, 36.2587 11.0097, 36.2587 11.215, 36.3274 11.3602, 36.4644 11.4452, 36.6018 11.5303, 36.8611 11.5794, 37.2426 11.592 L 37.1551 11.8341, 33.6305 11.8341, 33.6979 11.592 C 34.1564 11.5925, 34.4843 11.4923, 34.6818 11.2915, 34.8798 11.0911, 35.0752 10.6744, 35.2682 10.0414 L 37.2765 3.41333, 33.071 3.41333, 31.1167 9.94976 C 30.9732 10.4343, 30.9012 10.7832, 30.9012 10.9966, 30.9012 11.3941, 31.2451 11.5925, 31.9322 11.592 L 31.8512 11.8341, 28.1716 11.8341, 28.2526 11.592 C 28.5854 11.588, 28.8259 11.5597, 28.9739 11.5074, 29.1219 11.4551, 29.2589 11.3483, 29.3849 11.1868, 29.5108 11.0257, 29.6298 10.7595, 29.7419 10.3881 L 31.5142 4.6107 C 31.6132 4.28396, 31.6627 4.04637, 31.6627 3.89751, 31.6627 3.63171, 31.5731 3.45218, 31.3932 3.35813, 31.2137 3.26448, 30.9217 3.21296, 30.5168 3.20396 Z" stroke="none" fill="#000000" />
			<rect />
		</svg>
	</g>
	<path d="M -96.6937 93.3303 L 96.6943 -93.331" fill="none" stroke="#000000" stroke-width="2.4000001" stroke-linecap="round" stroke-linejoin="round" transform="matrix(0.416667 0 0 0.416667 -495.474 5.37523)" />
	<path d="M -179.791 173.537 L 179.791 -173.537" fill="none" stroke="#000000" stroke-width="1.20000005" stroke-linecap="round" stroke-linejoin="round" stroke-dasharray="4.206, 2.994" transform="matrix(0.416667 0 0 0.416667 -495.772 5.66332)" />
	<g transform="matrix(0.707107 -0.707107 0.707107 0.707107 -580.329 58.5779)">
		<svg width="557.956421" height="44.9527473">
			<defs />
			<path d="M -0.039218 5.39897 L 9.89085 5.39897, 10.9564 4.56984, 12.1321 5.70989, 1.88461 5.70989 C 1.31459 5.71313, 0.83525 5.76495, 0.443359 5.86535 Z" stroke="none" fill="#000000" />
			<path d="M 16.1919 1.92701 C 15.3757 3.03467, 14.3264 4.01925, 13.0438 4.88076 L 12.8851 4.7253 C 13.7402 4.07107, 14.4851 3.25166, 15.1263 2.26708, 15.7676 1.28249, 16.1563 0.495471, 16.2988 -0.0939846 L 17.4745 0.579679 C 17.1894 0.650932, 16.9044 0.89384, 16.6194 1.30516 L 20.6225 1.30516, 21.1569 0.73514, 22.2257 1.61609, 21.5845 1.92701 C 20.9432 2.96665, 20.127 3.86379, 19.1295 4.62166, 20.5869 5.48965, 22.4201 5.88478, 24.6257 5.81353 L 24.6257 6.02081 C 23.9164 6.16332, 23.5245 6.42242, 23.4532 6.79812, 21.3189 6.55845, 19.6639 5.97223, 18.4882 5.03623, 17.0307 5.90422, 14.9644 6.52606, 12.2957 6.90176 L 12.1888 6.69448 C 14.647 6.21514, 16.587 5.48965, 18.0089 4.51802, 17.3352 3.8314, 16.7295 2.96665, 16.1919 1.92701 Z M 16.4607 1.61609 L 16.3538 1.71973 C 17.0307 2.795, 17.7595 3.60469, 18.5432 4.15528, 19.4339 3.43304, 20.127 2.58772, 20.6225 1.61609 Z M 13.8989 7.5236 L 18.1676 7.5236 C 18.1676 6.94062, 18.1514 6.26696, 18.1157 5.50261 L 19.5019 6.17627, 18.9675 6.53901, 18.9675 7.5236, 21.2638 7.5236, 21.9569 6.84994, 22.9706 7.83452, 18.9675 7.83452, 18.9675 10.9437 C 18.9675 11.5332, 18.5594 11.964, 17.74 12.2392, 17.74 11.721, 17.1894 11.3259, 16.085 11.0474 L 16.085 10.7883 C 17.0469 10.9632, 17.6332 11.0312, 17.8469 10.9956, 18.0607 10.9632, 18.1676 10.7753, 18.1676 10.4255 L 18.1676 7.83452, 15.6607 7.83452 C 15.1976 7.83776, 14.7701 7.88958, 14.3782 7.98998 Z M 16.0332 8.19726 L 17.0469 9.02639 C 16.7619 9.06526, 16.2664 9.40856, 15.5539 10.0628, 14.8089 10.7235, 13.847 11.3421, 12.6714 11.9283 L 12.5094 11.7729 C 14.2551 10.568, 15.4308 9.37618, 16.0332 8.19726 Z M 19.9294 8.50819 C 21.6395 9.34055, 22.6338 9.88466, 22.9188 10.1438, 23.2038 10.4029, 23.3463 10.6879, 23.3463 10.9956, 23.3463 11.1348, 23.3107 11.3162, 23.2395 11.5397, 23.1682 11.7664, 23.097 11.8765, 23.0257 11.8765, 22.9188 11.8765, 22.7245 11.653, 22.4395 11.2028, 22.012 10.5486, 21.1407 9.70329, 19.8226 8.66365 Z" stroke="none" fill="#000000" />
			<path d="M 27.9406 3.79254 L 27.9406 5.24351, 33.4918 5.24351, 33.4918 3.79254 Z M 27.9406 5.55443 L 27.9406 7.10904, 33.4918 7.10904, 33.4918 5.55443 Z M 27.9406 7.41996 L 27.9406 9.02639, 33.4918 9.02639, 33.4918 7.41996 Z M 27.9406 9.33731 L 27.9406 10.9956, 33.4918 10.9956, 33.4918 9.33731 Z M 25.22 1.82337 L 30.2887 1.82337 C 30.3599 1.13675, 30.415 0.547292, 30.4506 0.0614758 L 31.6781 0.68332, 31.1955 0.942422, 31.0368 1.82337, 34.5056 1.82337, 35.2537 1.04606, 36.2156 2.13429, 30.9818 2.13429, 30.7162 3.48162, 33.44 3.48162, 33.8125 2.91159, 34.6675 3.53344, 34.24 3.89618, 34.24 10.9956, 35.04 10.9956, 35.895 10.2183, 36.9087 11.3065, 26.2337 11.3065 C 25.7738 11.2741, 25.3463 11.3065, 24.9512 11.4101 L 24.5237 10.9956, 27.1924 10.9956 C 27.1924 6.57788, 27.1762 3.89942, 27.1406 2.96341 L 27.9406 3.48162, 30.0231 3.48162, 30.2369 2.13429, 26.9787 2.13429 C 26.5187 2.13753, 26.0912 2.18935, 25.6993 2.28975 Z" stroke="none" fill="#000000" />
			<path d="M 44.5474 3.84436 C 44.5474 4.33017, 44.583 4.97145, 44.651 5.76171 L 47.1611 5.50261, 47.8542 4.7253, 48.923 5.60625, 44.7061 6.02081 C 44.813 7.09608, 44.9911 7.9414, 45.2405 8.56001, 46.0243 7.87339, 46.6461 7.1479, 47.1093 6.38355 L 48.0679 7.31632, 47.5886 7.36814 C 46.9149 7.99322, 46.238 8.61507, 45.5611 9.23367, 46.2024 10.1017, 46.9473 10.7041, 47.8023 11.0474 L 48.5505 8.56001, 48.761 8.61183 C 48.6898 9.40856, 48.6477 10.066, 48.6282 10.5842, 48.612 11.1024, 48.693 11.5138, 48.8679 11.8247, 48.9068 11.8959, 48.923 11.9478, 48.923 11.9801, 48.923 12.1194, 48.7384 12.1615, 48.3627 12.1097, 47.9902 12.0579, 47.4914 11.8506, 46.8696 11.4879, 46.2477 11.1251, 45.6129 10.5486, 44.9717 9.75187, 44.3336 10.1697, 43.6859 10.5162, 43.0252 10.7915, 42.3677 11.0668, 41.5418 11.3421, 40.5443 11.6174 L 40.4892 11.4101 C 42.0211 10.8595, 43.3911 10.1017, 44.5992 9.13003, 44.2818 8.2005, 44.068 7.19972, 43.9579 6.12445 L 41.7718 6.38355, 41.3442 6.59084, 40.7548 6.17627, 43.9061 5.86535 C 43.8705 5.38601, 43.8349 4.72854, 43.7992 3.89618 L 42.2511 3.99982, 41.9305 4.2071, 41.4511 3.79254, 43.7992 3.63708 C 43.7636 2.43226, 43.728 1.22096, 43.6924 0.00965595 L 44.9198 0.579679, 44.4923 0.942422 C 44.4923 1.67114, 44.5118 2.55209, 44.5474 3.58526 L 46.8404 3.37798, 47.5335 2.60067, 48.6023 3.53344 Z M 45.3474 0.890601 L 45.3992 0.73514 C 46.5036 1.01367, 47.1093 1.2501, 47.2161 1.43795, 47.323 1.62904, 47.3748 1.79098, 47.3748 1.92701, 47.3748 2.1019, 47.3392 2.27679, 47.268 2.44845, 47.1967 2.62334, 47.1254 2.70755, 47.0542 2.70431, 46.9829 2.70755, 46.8761 2.56828, 46.7336 2.28975, 46.4874 1.91405, 46.0243 1.44767, 45.3474 0.890601 Z M 39.4755 0.216937 L 40.5443 0.890601 C 40.2593 0.99748, 39.958 1.34403, 39.6342 1.92701, 39.3168 2.55209, 38.7306 3.43304, 37.8755 4.56984 L 40.0617 4.36256 C 40.4892 3.67594, 40.8293 2.98285, 41.0754 2.28975 L 42.0373 2.96341 C 41.7912 3.10592, 41.3637 3.60469, 40.7548 4.4662, 40.1524 5.33419, 39.3686 6.3706, 38.4067 7.57542, 38.9054 7.51065, 40.0099 7.31956, 41.7167 7.0054 L 41.7167 7.21268 C 40.758 7.45883, 40.0099 7.67582, 39.4755 7.86367, 38.9443 8.05476, 38.4099 8.32034, 37.8755 8.66365 L 37.2342 7.57542 C 37.6261 7.47502, 38.0796 7.1058, 38.5945 6.46452, 39.1127 5.82649, 39.5662 5.19493, 39.9548 4.56984, 39.5662 4.6411, 39.1548 4.73826, 38.7273 4.85809, 38.2998 4.98117, 37.9111 5.19493, 37.5549 5.50261 L 36.9654 4.51802 C 37.3606 4.45325, 37.814 3.96095, 38.3289 3.04438, 38.8472 2.13105, 39.2293 1.18857, 39.4755 0.216937 Z M 36.9136 10.1146 C 37.9111 9.97859, 38.7111 9.85875, 39.3168 9.75511, 39.9224 9.65147, 40.9005 9.46038, 42.2511 9.18185 L 42.3029 9.38913 C 40.703 9.84256, 39.5402 10.1956, 38.8083 10.4547, 38.0796 10.7138, 37.6261 10.9275, 37.448 11.0992 Z" stroke="none" fill="#000000" />
			<path d="M 50.9812 10.581 C 51.1788 10.3413, 51.3472 9.99802, 51.4897 9.54459, 51.1723 9.54783, 50.9391 9.49601, 50.7966 9.39237, 50.6541 9.28873, 50.5569 9.1527, 50.5019 8.97781, 50.4501 8.80615, 50.4404 8.64098, 50.476 8.48551, 50.5116 8.33005, 50.6347 8.17459, 50.8484 8.01913, 51.0622 7.86367, 51.331 7.82157, 51.6517 7.88958, 51.9723 7.96083, 52.1666 8.09039, 52.2379 8.27823, 52.3091 8.46932, 52.3447 8.65069, 52.3447 8.81911, 52.3447 9.02963, 52.2929 9.29845, 52.1861 9.62556, 52.0792 9.95592, 51.8395 10.3187, 51.4638 10.7138, 51.0913 11.1089, 50.7901 11.3259, 50.5569 11.3583, 50.327 11.3939, 50.2104 11.3939, 50.2104 11.3583, 50.2104 11.3259, 50.2655 11.2741, 50.3691 11.2028, 50.5829 11.0312, 50.7869 10.8271, 50.9812 10.581 Z" stroke="none" fill="#000000" />
			<path d="M 61.5283 1.4088 L 72.0446 1.4088, 72.8446 0.631499, 73.9652 1.71973, 71.4033 1.71973, 71.4033 10.1664 C 71.4422 11.0668, 71.0503 11.6692, 70.2309 11.9801, 70.1596 11.4976, 69.554 11.0992, 68.4139 10.7883 L 68.4139 10.5292 C 68.9516 10.6004, 69.4762 10.6555, 69.9912 10.6879, 70.5062 10.7235, 70.7264 10.4806, 70.6552 9.95916 L 70.6552 1.71973, 63.2902 1.71973 C 62.8303 1.72297, 62.4028 1.77479, 62.0109 1.87519 Z M 63.4521 9.49277 C 63.4878 8.28795, 63.504 7.22563, 63.504 6.30906, 63.504 5.39573, 63.4878 4.43382, 63.4521 3.4298 L 64.3039 3.84436, 67.2415 3.84436, 67.5621 3.32616, 68.469 3.99982, 68.0415 4.36256, 68.0415 6.59084 C 68.0415 7.18029, 68.0609 7.87339, 68.0933 8.66365 L 67.2933 8.97457, 67.2933 8.0418, 64.2521 8.0418, 64.2521 9.23367 Z M 64.2521 4.15528 L 64.2521 7.73088, 67.2933 7.73088, 67.2933 4.15528 Z" stroke="none" fill="#000000" />
			<path d="M 79.2557 4.88076 C 79.3626 3.60469, 79.4339 2.44845, 79.4695 1.4088 L 76.587 1.4088 C 76.1271 1.41204, 75.6996 1.46386, 75.3044 1.56427 L 74.8251 1.09788, 83.4176 1.09788, 84.2208 0.320578, 85.3414 1.4088, 80.2695 1.4088 C 80.2371 2.17315, 80.1658 3.32939, 80.0557 4.88076 L 83.9001 4.88076, 84.807 3.99982, 86.0345 5.19169, 81.2314 5.19169, 81.2314 10.3737 C 81.267 10.8271, 81.5682 11.0312, 82.1382 10.9956 L 84.3244 10.9956 C 84.7519 10.9632, 85.0013 10.7656, 85.0726 10.4029, 85.1438 10.0401, 85.1989 9.37618, 85.2345 8.40455 L 85.5001 8.40455 C 85.4677 9.96239, 85.7333 10.7397, 86.3001 10.7365, 86.0151 11.3939, 85.3932 11.6887, 84.4313 11.6174 L 81.6039 11.6174 C 80.8589 11.6174, 80.4832 11.3259, 80.4832 10.7365 L 80.4832 5.19169, 80.0039 5.19169 C 79.7545 6.92119, 79.2039 8.33005, 78.3489 9.41828, 77.4939 10.5065, 76.017 11.4296, 73.9183 12.1874 L 73.8632 11.9801 C 75.6445 11.151, 76.9174 10.215, 77.6817 9.15918, 78.4461 8.10658, 78.9545 6.78516, 79.2007 5.19169 L 75.6801 5.19169 C 75.217 5.19493, 74.7895 5.24675, 74.3976 5.34715 L 73.9183 4.88076 Z" stroke="none" fill="#000000" />
			<path d="M 92.3388 3.63708 L 92.3388 5.60625, 96.0731 5.60625, 96.0731 3.63708 Z M 91.4287 11.151 C 91.5712 10.9437, 91.6424 10.7041, 91.6424 10.4255, 91.6424 4.34961, 91.6263 1.06549, 91.5906 0.579679 L 92.3388 1.04606, 96.0213 1.04606, 96.4488 0.476039, 97.3006 1.20152, 96.8212 1.51244 C 96.8212 3.65651, 96.8407 5.1593, 96.8731 6.02081 L 96.0731 6.38355, 96.0731 5.91717, 93.725 5.91717 C 93.9031 6.71391, 94.2399 7.54303, 94.7387 8.40455, 95.665 7.75031, 96.4326 7.04426, 97.035 6.27991 L 97.89 7.21268 C 97.3913 7.21592, 96.397 7.69849, 94.9007 8.66365, 95.5419 9.46038, 96.2091 10.0077, 96.9022 10.2992, 97.5953 10.594, 98.12 10.7559, 98.4762 10.7883 L 98.4762 10.9956 C 97.9775 11.0312, 97.605 11.2741, 97.3556 11.721, 96.5006 11.3065, 95.6909 10.6361, 94.9266 9.70329, 94.1622 8.77053, 93.657 7.51065, 93.4043 5.91717 L 92.3388 5.91717, 92.3388 10.6328, 94.3663 9.70005, 94.4731 9.85551 C 93.3331 10.5486, 92.5525 11.2547, 92.125 11.9801 Z M 88.815 4.51802 L 89.67 1.30516, 87.8013 1.30516, 87.8013 9.38913 C 87.8013 10.3251, 87.8207 11.151, 87.8531 11.8765 L 87.0531 12.1874 C 87.092 11.3259, 87.1082 9.33407, 87.1082 6.20542, 87.1082 3.08001, 87.092 1.20476, 87.0531 0.579679 L 87.8531 0.994242, 89.67 0.994242, 90.1494 0.527859, 90.8425 1.20152, 90.415 1.46062, 89.0806 4.51802 C 89.5794 5.03946, 89.9648 5.51556, 90.2303 5.94632, 90.4959 6.38032, 90.6579 6.85318, 90.7097 7.37138, 90.7647 7.88958, 90.6838 8.33005, 90.47 8.6928, 90.2563 9.05554, 89.8125 9.32436, 89.1356 9.49277, 89.1713 9.08145, 88.7988 8.71871, 88.015 8.40455 L 88.015 8.19726 C 88.5494 8.30414, 88.9219 8.35596, 89.1356 8.35273, 89.4919 8.35596, 89.7251 8.27823, 89.8287 8.12277, 89.9356 7.96731, 89.9874 7.75031, 89.9874 7.47178, 89.9874 7.23211, 89.955 6.905, 89.8838 6.49043, 89.8125 6.07587, 89.4563 5.4184, 88.815 4.51802 Z M 92.3388 1.35698 L 92.3388 3.32616, 96.0731 3.32616, 96.0731 1.35698 Z" stroke="none" fill="#000000" />
			<path d="M 103.177 5.39897 L 103.177 8.09362, 106.167 8.09362, 106.167 5.39897 Z M 106.646 10.6846 C 107.359 10.7235, 107.929 10.7494, 108.356 10.7656, 108.784 10.785, 108.978 10.5486, 108.942 10.0628 L 108.942 2.85977, 100.615 2.85977, 100.615 11.7729, 99.8155 12.1356 C 99.8511 11.1348, 99.8673 10.3251, 99.8673 9.70005 L 99.8673 4.15528 C 99.8673 3.43304, 99.8511 2.72374, 99.8155 2.03065 L 100.671 2.54885, 102.964 2.54885 C 103.391 1.34403, 103.624 0.495471, 103.657 0.00965595 L 104.832 0.579679 C 104.405 0.825826, 103.909 1.48006, 103.339 2.54885 L 108.835 2.54885, 109.208 1.97883, 110.118 2.65249, 109.691 3.01523, 109.691 10.3737 C 109.762 11.2385, 109.37 11.8085, 108.515 12.0838, 108.482 11.4976, 107.857 11.1186, 106.646 10.9437 Z M 106.915 7.73088 C 106.915 8.00942, 106.934 8.42398, 106.967 8.97457 L 106.167 9.28549, 106.167 8.40455, 103.177 8.40455, 103.177 9.18185, 102.377 9.49277 C 102.413 8.63126, 102.429 7.75355, 102.429 6.85318, 102.429 5.95604, 102.413 5.21112, 102.377 4.62166 L 103.177 5.08805, 106.115 5.08805, 106.487 4.56984, 107.342 5.24351, 106.915 5.60625 Z" stroke="none" fill="#000000" />
			<path d="M 116.154 3.06705 C 116.154 2.1019, 116.137 1.3084, 116.098 0.68332 L 117.167 1.20152, 116.795 1.61609, 116.795 3.17069, 118.767 3.17069 C 118.767 1.75859, 118.751 0.702752, 118.715 0.00965595 L 119.784 0.579679, 119.408 0.942422, 119.408 3.17069, 121.384 3.17069 C 121.384 2.48408, 121.368 1.68734, 121.329 0.786961 L 122.398 1.30516, 122.025 1.66791 C 122.025 2.60391, 122.045 3.29377, 122.077 3.74072 L 121.384 4.05164, 121.384 3.48162, 116.795 3.48162, 116.367 3.948, 115.726 3.37798 Z M 118.022 6.7463 L 118.288 5.24351, 116.902 5.24351 C 116.439 5.24675, 116.011 5.29857, 115.619 5.39897 L 115.14 4.93259, 121.757 4.93259, 122.346 4.36256, 123.198 5.24351, 119.25 5.24351 C 119.072 5.4184, 118.77 5.92041, 118.343 6.7463 L 121.65 6.7463, 122.132 6.27991, 122.825 6.95358, 122.346 7.31632, 122.346 11.0992 C 122.346 11.4101, 122.285 11.6433, 122.158 11.7988, 122.035 11.9542, 121.792 12.1032, 121.436 12.2392, 121.297 11.8247, 120.869 11.5138, 120.157 11.3065 L 120.157 11.0992 C 120.976 11.2385, 121.429 11.2741, 121.517 11.2028, 121.608 11.1348, 121.65 10.9956, 121.65 10.7883 L 121.65 7.05722, 120.37 7.05722, 120.37 10.7365, 119.729 10.9956, 119.729 7.05722, 118.557 7.05722, 118.557 11.0992, 117.915 11.4101, 117.915 7.05722, 116.633 7.05722, 116.633 11.7729, 115.888 12.1356 C 115.924 11.1705, 115.94 10.2053, 115.94 9.23691, 115.94 8.27176, 115.924 7.30336, 115.888 6.33173 L 116.581 6.7463 Z M 112.309 0.320578 C 113.022 0.806393, 113.443 1.14646, 113.566 1.33431, 113.689 1.5254, 113.75 1.68734, 113.75 1.82337, 113.75 1.99826, 113.679 2.16344, 113.537 2.3189, 113.394 2.47436, 113.307 2.55209, 113.271 2.54885, 113.129 2.55209, 113.022 2.361, 112.95 1.97883, 112.847 1.42824, 112.597 0.910034, 112.202 0.424218 Z M 110.923 3.11887 L 114.019 3.11887, 114.605 2.54885, 115.46 3.4298, 112.685 3.4298 C 112.222 3.43304, 111.794 3.48486, 111.402 3.58526 Z M 111.723 4.2071 C 112.329 5.17873, 112.665 5.97223, 112.737 6.59407, 112.808 7.21592, 112.756 7.57866, 112.578 7.6823, 112.4 7.78594, 112.293 7.83776, 112.257 7.83452, 112.079 7.83776, 112.008 7.56247, 112.044 7.0054, 112.079 6.35117, 111.937 5.45403, 111.616 4.31074 Z M 113.485 8.71547 L 115.567 8.09362, 115.619 8.30091 C 115.049 8.54705, 114.285 8.85797, 113.323 9.23367, 112.364 9.61585, 111.726 9.96239, 111.402 10.2701 L 110.816 9.33731 C 111.172 9.30492, 111.956 9.11707, 113.164 8.76729, 113.627 6.66209, 113.912 5.02327, 114.019 3.84436 L 115.085 4.36256, 114.712 4.7253 Z" stroke="none" fill="#000000" />
			<path d="M 126.568 4.88076 L 126.568 7.73088, 132.436 7.73088, 132.436 4.88076 Z M 125.713 8.97457 C 125.748 8.25232, 125.765 7.47502, 125.765 6.64589, 125.765 5.81677, 125.748 4.98764, 125.713 4.15528 L 126.568 4.56984, 128.861 4.56984 C 128.861 2.25736, 128.845 0.754573, 128.809 0.0614758 L 130.037 0.527859, 129.609 0.942422, 129.609 2.18611, 133.078 2.18611, 133.771 1.51244, 134.733 2.49703, 129.609 2.49703, 129.609 4.56984, 132.33 4.56984, 132.864 4.05164, 133.664 4.82894, 133.185 5.19169 C 133.185 6.81755, 133.204 7.92521, 133.24 8.50819 L 132.436 8.81911, 132.436 8.0418, 126.568 8.0418, 126.568 8.66365 Z M 125.447 9.23367 L 125.658 9.23367 C 125.447 10.5842, 125.227 11.368, 124.994 11.5915, 124.761 11.8182, 124.557 11.9283, 124.378 11.9283, 124.275 11.9283, 124.148 11.8862, 124.006 11.7988, 123.863 11.7146, 123.792 11.6174, 123.792 11.5138, 123.792 11.4101, 123.883 11.2903, 124.058 11.151, 124.378 10.9114, 124.618 10.6879, 124.78 10.4806, 124.942 10.2733, 125.162 9.85875, 125.447 9.23367 Z M 127.313 9.49277 L 127.42 9.33731 C 128.168 9.89438, 128.586 10.283, 128.676 10.5065, 128.767 10.7332, 128.809 10.8919, 128.809 10.9956, 128.809 11.2385, 128.731 11.436, 128.569 11.5915, 128.407 11.747, 128.31 11.8247, 128.275 11.8247, 128.132 11.8247, 128.045 11.653, 128.009 11.3065, 127.938 10.7915, 127.708 10.1859, 127.313 9.49277 Z M 130.143 9.44095 L 130.25 9.28549 C 130.927 9.77131, 131.345 10.1535, 131.504 10.4288, 131.666 10.7073, 131.743 10.8919, 131.743 10.9956, 131.743 11.1705, 131.666 11.3421, 131.504 11.5138, 131.345 11.6887, 131.248 11.7729, 131.209 11.7729, 131.066 11.7729, 130.963 11.5656, 130.892 11.151, 130.785 10.568, 130.535 9.99802, 130.143 9.44095 Z M 133.026 9.28549 L 133.133 9.13003 C 133.845 9.61585, 134.334 10.0336, 134.6 10.377, 134.866 10.7235, 134.998 10.9794, 134.998 11.151, 134.998 11.3259, 134.93 11.4976, 134.788 11.6692, 134.645 11.8441, 134.558 11.9283, 134.519 11.9283, 134.376 11.9283, 134.253 11.721, 134.147 11.3065, 133.968 10.7235, 133.596 10.0498, 133.026 9.28549 Z" stroke="none" fill="#000000" />
			<path d="M 135.486 2.75613 L 146.106 2.75613, 146.909 1.97883, 148.03 3.06705, 141.465 3.06705 C 141.429 3.72776, 141.338 4.48564, 141.196 5.34715 L 144.664 5.34715, 145.199 4.82894, 146.054 5.60625, 145.519 5.91717 C 145.163 8.57944, 144.917 10.1535, 144.775 10.6361, 144.632 11.1186, 144.412 11.4555, 144.107 11.6433, 143.803 11.8344, 143.385 11.9996, 142.851 12.1356, 142.708 11.585, 142.122 11.0992, 141.089 10.6846 L 141.144 10.4774 C 142.106 10.7559, 142.737 10.9016, 143.039 10.9178, 143.343 10.9373, 143.573 10.879, 143.732 10.7397, 143.894 10.6037, 144.043 10.1632, 144.185 9.41828, 144.328 8.6766, 144.506 7.4232, 144.72 5.65807 L 141.144 5.65807 C 140.541 8.66689, 138.796 10.8077, 135.913 12.0838 L 135.806 11.8765 C 139.01 10.1179, 140.61 7.18029, 140.61 3.06705 L 137.248 3.06705 C 136.788 3.07029, 136.36 3.12211, 135.965 3.22252 Z M 140.61 0.216937 C 141.536 0.566724, 142.077 0.861452, 142.239 1.10112, 142.401 1.34403, 142.478 1.53188, 142.478 1.66791, 142.478 1.81041, 142.407 1.97559, 142.265 2.16344, 142.122 2.35452, 142.035 2.44845, 141.996 2.44521, 141.856 2.44845, 141.714 2.25736, 141.571 1.87519, 141.358 1.36022, 141.001 0.858213, 140.503 0.372398 Z" stroke="none" fill="#000000" />
			<path d="M 152.517 5.39897 L 152.517 8.09362, 155.506 8.09362, 155.506 5.39897 Z M 155.986 10.6846 C 156.698 10.7235, 157.268 10.7494, 157.696 10.7656, 158.123 10.785, 158.318 10.5486, 158.282 10.0628 L 158.282 2.85977, 149.955 2.85977, 149.955 11.7729, 149.155 12.1356 C 149.191 11.1348, 149.207 10.3251, 149.207 9.70005 L 149.207 4.15528 C 149.207 3.43304, 149.191 2.72374, 149.155 2.03065 L 150.01 2.54885, 152.303 2.54885 C 152.731 1.34403, 152.964 0.495471, 152.996 0.00965595 L 154.172 0.579679 C 153.744 0.825826, 153.249 1.48006, 152.679 2.54885 L 158.175 2.54885, 158.547 1.97883, 159.458 2.65249, 159.03 3.01523, 159.03 10.3737 C 159.101 11.2385, 158.709 11.8085, 157.854 12.0838, 157.822 11.4976, 157.197 11.1186, 155.986 10.9437 Z M 156.254 7.73088 C 156.254 8.00942, 156.274 8.42398, 156.306 8.97457 L 155.506 9.28549, 155.506 8.40455, 152.517 8.40455, 152.517 9.18185, 151.717 9.49277 C 151.753 8.63126, 151.769 7.75355, 151.769 6.85318, 151.769 5.95604, 151.753 5.21112, 151.717 4.62166 L 152.517 5.08805, 155.454 5.08805, 155.827 4.56984, 156.682 5.24351, 156.254 5.60625 Z" stroke="none" fill="#000000" />
			<path d="M 160.635 1.66791 L 163.411 1.66791, 163.945 1.1497, 164.8 1.97883 C 164.479 2.01769, 164.087 2.38043, 163.624 3.06705, 163.164 3.79578, 162.701 4.50507, 162.238 5.19169 L 163.786 5.19169, 164.159 4.67348, 164.959 5.34715, 164.531 5.65807 C 164.317 7.00864, 164 8.23613, 163.572 9.33731, 164.463 10.0304, 165.344 10.4288, 166.215 10.5324, 167.087 10.6361, 167.967 10.6879, 168.855 10.6846, 170.031 10.6879, 171.222 10.6361, 172.43 10.5292 L 172.43 10.7365 C 171.721 10.879, 171.365 11.1705, 171.365 11.6174, 168.91 11.6174, 167.187 11.5073, 166.189 11.2806, 165.192 11.0571, 164.214 10.568, 163.252 9.80369, 162.468 10.7397, 161.474 11.4619, 160.262 11.9801 L 160.156 11.8247 C 161.224 11.2028, 162.096 10.377, 162.769 9.33731, 162.309 8.75433, 161.827 7.87339, 161.328 6.69448 L 161.49 6.64266 C 162.024 7.61429, 162.539 8.33977, 163.038 8.81911, 163.466 7.75031, 163.734 6.64589, 163.838 5.50261 L 162.131 5.50261, 161.811 5.86535, 161.117 5.24351 C 161.545 4.97145, 161.998 4.46296, 162.478 3.71805, 162.957 2.97637, 163.287 2.39663, 163.466 1.97883 L 161.704 1.97883, 161.062 2.08247 Z M 165.545 2.18611 C 166.792 2.05008, 167.942 1.84604, 168.991 1.5675, 170.04 1.29221, 170.707 1.0493, 170.989 0.83878 L 171.899 1.77155 C 171.507 1.77479, 171.07 1.81041, 170.591 1.87843, 170.112 1.94968, 169.639 2.01769, 169.176 2.08247 L 169.176 5.08805, 170.351 5.08805, 170.989 4.4662, 171.951 5.39897, 169.176 5.39897, 169.176 8.76729, 170.669 8.76729, 171.31 8.14544, 172.272 9.07821, 166.879 9.07821, 166.455 9.54459, 165.759 8.87093, 166.134 8.56001, 166.134 6.17627 C 166.134 5.48965, 166.118 4.84838, 166.079 4.25892 L 167.2 4.77712, 166.827 5.03623, 166.827 8.76729, 168.482 8.76729, 168.482 2.13429 C 167.627 2.24117, 166.669 2.32861, 165.6 2.39339 Z" stroke="none" fill="#000000" />
			<path d="M 175.421 0.113297 L 176.49 0.786961, 176.011 1.20152 C 175.512 2.20554, 175.156 2.91483, 174.942 3.32616 L 175.583 3.74072, 175.263 4.15528, 175.263 9.85551 C 175.263 10.445, 175.282 11.083, 175.315 11.7729 L 174.463 12.1356 C 174.498 11.2385, 174.515 10.5842, 174.515 10.1664 L 174.515 4.15528 C 173.912 5.1593, 173.251 5.98842, 172.539 6.64266 L 172.38 6.53901 C 173.2 5.36658, 173.867 4.19415, 174.382 3.01847, 174.9 1.84604, 175.247 0.877646, 175.421 0.113297 Z M 180.866 9.95916 C 180.866 10.445, 180.885 11.0992, 180.921 11.9283 L 180.066 12.1874 C 180.105 11.4619, 180.121 10.7753, 180.121 10.1146 L 180.121 8.09362, 177.77 8.09362, 177.77 8.56001, 176.97 8.87093 C 177.008 7.83776, 177.025 6.64589, 177.025 5.29857, 177.025 3.95124, 177.008 2.89864, 176.97 2.13429 L 177.718 2.54885, 180.121 2.54885 C 180.121 1.48006, 180.105 0.634738, 180.066 0.00965595 L 181.242 0.527859, 180.866 0.890601, 180.866 2.54885, 183.162 2.54885, 183.59 2.03065, 184.39 2.65249, 183.962 3.01523, 183.962 6.64266 C 183.962 7.19972, 183.982 7.83776, 184.017 8.56001 L 183.214 8.87093, 183.214 8.09362, 180.866 8.09362 Z M 177.77 2.85977 L 177.77 5.13987, 180.121 5.13987, 180.121 2.85977 Z M 180.866 2.85977 L 180.866 5.13987, 183.214 5.13987, 183.214 2.85977 Z M 177.77 5.45079 L 177.77 7.7827, 180.121 7.7827, 180.121 5.45079 Z M 180.866 5.45079 L 180.866 7.7827, 183.214 7.7827, 183.214 5.45079 Z" stroke="none" fill="#000000" />
			<rect />
		</svg>
	</g>
	<g transform="matrix(0.707107 -0.707107 0.707107 0.707107 -426.779 10.6064)">
		<svg width="150.020355" height="44.9527473">
			<defs />
			<path d="M -0.039218 5.39897 L 9.89085 5.39897, 10.9564 4.56984, 12.1321 5.70989, 1.88461 5.70989 C 1.31459 5.71313, 0.83525 5.76495, 0.443359 5.86535 Z" stroke="none" fill="#000000" />
			<path d="M 16.1919 1.92701 C 15.3757 3.03467, 14.3264 4.01925, 13.0438 4.88076 L 12.8851 4.7253 C 13.7402 4.07107, 14.4851 3.25166, 15.1263 2.26708, 15.7676 1.28249, 16.1563 0.495471, 16.2988 -0.0939846 L 17.4745 0.579679 C 17.1894 0.650932, 16.9044 0.89384, 16.6194 1.30516 L 20.6225 1.30516, 21.1569 0.73514, 22.2257 1.61609, 21.5845 1.92701 C 20.9432 2.96665, 20.127 3.86379, 19.1295 4.62166, 20.5869 5.48965, 22.4201 5.88478, 24.6257 5.81353 L 24.6257 6.02081 C 23.9164 6.16332, 23.5245 6.42242, 23.4532 6.79812, 21.3189 6.55845, 19.6639 5.97223, 18.4882 5.03623, 17.0307 5.90422, 14.9644 6.52606, 12.2957 6.90176 L 12.1888 6.69448 C 14.647 6.21514, 16.587 5.48965, 18.0089 4.51802, 17.3352 3.8314, 16.7295 2.96665, 16.1919 1.92701 Z M 16.4607 1.61609 L 16.3538 1.71973 C 17.0307 2.795, 17.7595 3.60469, 18.5432 4.15528, 19.4339 3.43304, 20.127 2.58772, 20.6225 1.61609 Z M 13.8989 7.5236 L 18.1676 7.5236 C 18.1676 6.94062, 18.1514 6.26696, 18.1157 5.50261 L 19.5019 6.17627, 18.9675 6.53901, 18.9675 7.5236, 21.2638 7.5236, 21.9569 6.84994, 22.9706 7.83452, 18.9675 7.83452, 18.9675 10.9437 C 18.9675 11.5332, 18.5594 11.964, 17.74 12.2392, 17.74 11.721, 17.1894 11.3259, 16.085 11.0474 L 16.085 10.7883 C 17.0469 10.9632, 17.6332 11.0312, 17.8469 10.9956, 18.0607 10.9632, 18.1676 10.7753, 18.1676 10.4255 L 18.1676 7.83452, 15.6607 7.83452 C 15.1976 7.83776, 14.7701 7.88958, 14.3782 7.98998 Z M 16.0332 8.19726 L 17.0469 9.02639 C 16.7619 9.06526, 16.2664 9.40856, 15.5539 10.0628, 14.8089 10.7235, 13.847 11.3421, 12.6714 11.9283 L 12.5094 11.7729 C 14.2551 10.568, 15.4308 9.37618, 16.0332 8.19726 Z M 19.9294 8.50819 C 21.6395 9.34055, 22.6338 9.88466, 22.9188 10.1438, 23.2038 10.4029, 23.3463 10.6879, 23.3463 10.9956, 23.3463 11.1348, 23.3107 11.3162, 23.2395 11.5397, 23.1682 11.7664, 23.097 11.8765, 23.0257 11.8765, 22.9188 11.8765, 22.7245 11.653, 22.4395 11.2028, 22.012 10.5486, 21.1407 9.70329, 19.8226 8.66365 Z" stroke="none" fill="#000000" />
			<path d="M 26.6645 2.18611 L 26.6645 3.74072, 29.2814 3.74072, 29.2814 2.18611 Z M 26.6645 4.05164 L 26.6645 5.45079, 29.2814 5.45079, 29.2814 4.05164 Z M 26.6645 5.76171 L 26.6645 7.31632, 29.2814 7.31632, 29.2814 5.76171 Z M 27.7851 -0.0421648 L 28.8021 0.527859 C 28.4458 0.634738, 28.0539 1.08493, 27.6264 1.87519 L 29.2296 1.87519, 29.6021 1.35698, 30.4053 1.97883, 30.0296 2.28975, 30.0296 10.7883 C 30.0296 11.3777, 29.6571 11.8247, 28.909 12.1356, 28.909 11.6887, 28.4458 11.3259, 27.5195 11.0474 L 27.5195 10.8401 C 28.2677 10.9114, 28.747 10.9437, 28.9608 10.9437, 29.1745 10.9437, 29.2814 10.8271, 29.2814 10.581 L 29.2814 7.62724, 28.8021 7.62724 C 28.2677 8.63126, 27.6264 9.47982, 26.8783 10.1697, 26.1301 10.8628, 25.3463 11.4296, 24.5269 11.8765 L 24.42 11.721 C 25.2038 11.1348, 25.8904 10.5, 26.4766 9.80693, 27.0661 9.11707, 27.5552 8.39159, 27.947 7.62724 L 26.1819 7.62724 C 25.722 7.63048, 25.2945 7.6823, 24.8994 7.7827 L 24.42 7.31632, 25.9163 7.31632 C 25.9163 4.17471, 25.9001 2.22497, 25.8613 1.46062 L 26.6645 1.87519, 27.3058 1.87519 C 27.5195 1.11732, 27.6815 0.479278, 27.7851 -0.0421648 Z M 33.9841 3.74072 C 33.9841 2.15372, 33.9679 0.929466, 33.9323 0.0614758 L 35.2148 0.579679, 34.7323 0.994242, 34.7323 3.74072, 35.3217 3.74072, 36.0148 3.06705, 37.0318 4.05164, 34.7323 4.05164, 34.7323 10.6846 C 34.7711 11.3777, 34.3598 11.8765, 33.5048 12.1874, 33.4335 11.7049, 32.8473 11.3259, 31.7396 11.0474 L 31.7396 10.7883 C 32.7048 10.8919, 33.3202 10.9437, 33.5857 10.9437, 33.8513 10.9437, 33.9841 10.7915, 33.9841 10.4774 L 33.9841 4.05164, 32.0085 4.05164 C 31.5453 4.05488, 31.1178 4.1067, 30.7259 4.2071 L 30.2433 3.74072 Z M 30.9915 5.45079 L 31.1534 5.34715 C 31.7591 5.83296, 32.1769 6.21514, 32.4101 6.49043, 32.6433 6.76897, 32.7404 7.04426, 32.7048 7.31956, 32.6692 7.59809, 32.5785 7.79566, 32.436 7.91549, 32.2935 8.03856, 32.1866 8.09686, 32.1153 8.09362, 31.9372 8.09686, 31.8303 7.87339, 31.7947 7.41996, 31.6878 6.83698, 31.419 6.17951, 30.9915 5.45079 Z" stroke="none" fill="#000000" />
			<path d="M 44.5441 3.84436 C 44.5441 4.33017, 44.5797 4.97145, 44.6477 5.76171 L 47.1578 5.50261, 47.8509 4.7253, 48.9197 5.60625, 44.7028 6.02081 C 44.8097 7.09608, 44.9878 7.9414, 45.2372 8.56001, 46.021 7.87339, 46.6428 7.1479, 47.106 6.38355 L 48.0646 7.31632, 47.5853 7.36814 C 46.9116 7.99322, 46.2347 8.61507, 45.5578 9.23367, 46.1991 10.1017, 46.944 10.7041, 47.7991 11.0474 L 48.5472 8.56001, 48.7577 8.61183 C 48.6865 9.40856, 48.6444 10.066, 48.6249 10.5842, 48.6087 11.1024, 48.6897 11.5138, 48.8646 11.8247, 48.9035 11.8959, 48.9197 11.9478, 48.9197 11.9801, 48.9197 12.1194, 48.7351 12.1615, 48.3594 12.1097, 47.9869 12.0579, 47.4881 11.8506, 46.8663 11.4879, 46.2444 11.1251, 45.6096 10.5486, 44.9684 9.75187, 44.3303 10.1697, 43.6826 10.5162, 43.0219 10.7915, 42.3644 11.0668, 41.5385 11.3421, 40.541 11.6174 L 40.4859 11.4101 C 42.0178 10.8595, 43.3878 10.1017, 44.5959 9.13003, 44.2785 8.2005, 44.0648 7.19972, 43.9546 6.12445 L 41.7685 6.38355, 41.3409 6.59084, 40.7515 6.17627, 43.9028 5.86535 C 43.8672 5.38601, 43.8316 4.72854, 43.7959 3.89618 L 42.2478 3.99982, 41.9272 4.2071, 41.4478 3.79254, 43.7959 3.63708 C 43.7603 2.43226, 43.7247 1.22096, 43.6891 0.00965595 L 44.9165 0.579679, 44.489 0.942422 C 44.489 1.67114, 44.5085 2.55209, 44.5441 3.58526 L 46.8371 3.37798, 47.5302 2.60067, 48.599 3.53344 Z M 45.3441 0.890601 L 45.3959 0.73514 C 46.5003 1.01367, 47.106 1.2501, 47.2128 1.43795, 47.3197 1.62904, 47.3715 1.79098, 47.3715 1.92701, 47.3715 2.1019, 47.3359 2.27679, 47.2647 2.44845, 47.1934 2.62334, 47.1222 2.70755, 47.0509 2.70431, 46.9796 2.70755, 46.8728 2.56828, 46.7303 2.28975, 46.4841 1.91405, 46.021 1.44767, 45.3441 0.890601 Z M 39.4722 0.216937 L 40.541 0.890601 C 40.256 0.99748, 39.9548 1.34403, 39.6309 1.92701, 39.3135 2.55209, 38.7273 3.43304, 37.8722 4.56984 L 40.0584 4.36256 C 40.4859 3.67594, 40.826 2.98285, 41.0721 2.28975 L 42.034 2.96341 C 41.7879 3.10592, 41.3604 3.60469, 40.7515 4.4662, 40.1491 5.33419, 39.3653 6.3706, 38.4034 7.57542, 38.9022 7.51065, 40.0066 7.31956, 41.7134 7.0054 L 41.7134 7.21268 C 40.7547 7.45883, 40.0066 7.67582, 39.4722 7.86367, 38.941 8.05476, 38.4066 8.32034, 37.8722 8.66365 L 37.2309 7.57542 C 37.6228 7.47502, 38.0763 7.1058, 38.5912 6.46452, 39.1094 5.82649, 39.5629 5.19493, 39.9515 4.56984, 39.5629 4.6411, 39.1515 4.73826, 38.724 4.85809, 38.2965 4.98117, 37.9079 5.19493, 37.5516 5.50261 L 36.9621 4.51802 C 37.3573 4.45325, 37.8107 3.96095, 38.3257 3.04438, 38.8439 2.13105, 39.226 1.18857, 39.4722 0.216937 Z M 36.9103 10.1146 C 37.9079 9.97859, 38.7078 9.85875, 39.3135 9.75511, 39.9191 9.65147, 40.8972 9.46038, 42.2478 9.18185 L 42.2996 9.38913 C 40.6997 9.84256, 39.537 10.1956, 38.805 10.4547, 38.0763 10.7138, 37.6228 10.9275, 37.4447 11.0992 Z" stroke="none" fill="#000000" />
			<rect />
		</svg>
	</g>
	<g transform="matrix(0.707107 -0.707107 0.707107 0.707107 -308.676 15.4094)">
		<svg width="134.932617" height="42.0047188">
			<defs />
			<path d="M 7.54274 3.84436 C 7.54274 4.33017, 7.57837 4.97145, 7.64638 5.76171 L 10.1564 5.50261, 10.8495 4.7253, 11.9183 5.60625, 7.70144 6.02081 C 7.80832 7.09608, 7.98645 7.9414, 8.23584 8.56001, 9.01962 7.87339, 9.64146 7.1479, 10.1046 6.38355 L 11.0633 7.31632, 10.5839 7.36814 C 9.91028 7.99322, 9.23338 8.61507, 8.55647 9.23367, 9.19775 10.1017, 9.94267 10.7041, 10.7977 11.0474 L 11.5459 8.56001, 11.7564 8.61183 C 11.6851 9.40856, 11.643 10.066, 11.6236 10.5842, 11.6074 11.1024, 11.6884 11.5138, 11.8633 11.8247, 11.9021 11.8959, 11.9183 11.9478, 11.9183 11.9801, 11.9183 12.1194, 11.7337 12.1615, 11.358 12.1097, 10.9856 12.0579, 10.4868 11.8506, 9.86494 11.4879, 9.24309 11.1251, 8.60829 10.5486, 7.96702 9.75187, 7.32898 10.1697, 6.68123 10.5162, 6.02052 10.7915, 5.36305 11.0668, 4.53716 11.3421, 3.53962 11.6174 L 3.48456 11.4101 C 5.0165 10.8595, 6.3865 10.1017, 7.59456 9.13003, 7.27716 8.2005, 7.0634 7.19972, 6.95328 6.12445 L 4.76712 6.38355, 4.3396 6.59084, 3.75014 6.17627, 6.90146 5.86535 C 6.86584 5.38601, 6.83021 4.72854, 6.79458 3.89618 L 5.24645 3.99982, 4.92581 4.2071, 4.44648 3.79254, 6.79458 3.63708 C 6.75896 2.43226, 6.72333 1.22096, 6.68771 0.00965595 L 7.9152 0.579679, 7.48768 0.942422 C 7.48768 1.67114, 7.50711 2.55209, 7.54274 3.58526 L 9.83579 3.37798, 10.5289 2.60067, 11.5977 3.53344 Z M 8.34272 0.890601 L 8.39454 0.73514 C 9.49896 1.01367, 10.1046 1.2501, 10.2115 1.43795, 10.3184 1.62904, 10.3702 1.79098, 10.3702 1.92701, 10.3702 2.1019, 10.3346 2.27679, 10.2633 2.44845, 10.1921 2.62334, 10.1208 2.70755, 10.0495 2.70431, 9.97829 2.70755, 9.87141 2.56828, 9.72891 2.28975, 9.48276 1.91405, 9.01962 1.44767, 8.34272 0.890601 Z M 2.47083 0.216937 L 3.53962 0.890601 C 3.25461 0.99748, 2.9534 1.34403, 2.62953 1.92701, 2.31213 2.55209, 1.72591 3.43304, 0.870876 4.56984 L 3.05705 4.36256 C 3.48456 3.67594, 3.82463 2.98285, 4.07078 2.28975 L 5.03269 2.96341 C 4.78655 3.10592, 4.35903 3.60469, 3.75014 4.4662, 3.14773 5.33419, 2.36395 6.3706, 1.40203 7.57542, 1.9008 7.51065, 3.00522 7.31956, 4.71206 7.0054 L 4.71206 7.21268 C 3.75338 7.45883, 3.00522 7.67582, 2.47083 7.86367, 1.93967 8.05476, 1.40527 8.32034, 0.870876 8.66365 L 0.2296 7.57542 C 0.621491 7.47502, 1.07492 7.1058, 1.58988 6.46452, 2.10809 5.82649, 2.56151 5.19493, 2.95017 4.56984, 2.56151 4.6411, 2.15019 4.73826, 1.72267 4.85809, 1.29515 4.98117, 0.906503 5.19493, 0.550238 5.50261 L -0.039218 4.51802 C 0.355912 4.45325, 0.809339 3.96095, 1.3243 3.04438, 1.84251 2.13105, 2.22468 1.18857, 2.47083 0.216937 Z M -0.0910383 10.1146 C 0.906503 9.97859, 1.70648 9.85875, 2.31213 9.75511, 2.91778 9.65147, 3.89589 9.46038, 5.24645 9.18185 L 5.29827 9.38913 C 3.69832 9.84256, 2.5356 10.1956, 1.80364 10.4547, 1.07492 10.7138, 0.621491 10.9275, 0.443359 11.0992 Z" stroke="none" fill="#000000" />
			<path d="M 14.3284 8.61183 L 18.121 7.7827, 18.2279 7.98998, 14.3284 9.23367 C 14.3284 10.3089, 14.3479 11.1186, 14.3803 11.6692 L 13.5803 12.1356 C 13.6159 11.3065, 13.6321 10.4126, 13.6321 9.44095, 13.0621 9.61585, 12.7414 9.77131, 12.6702 9.90733 L 12.1358 8.97457 C 12.3884 8.97781, 12.8872 8.89036, 13.6321 8.71547 L 13.6321 4.2071 C 13.6321 2.51646, 13.6159 1.41204, 13.5803 0.890601 L 14.3803 1.35698 C 14.8078 1.29221, 15.3065 1.15294, 15.8766 0.945661, 16.4466 0.738379, 16.9097 0.495471, 17.266 0.216937 L 18.0692 1.09788 C 17.6417 1.10112, 17.0911 1.16914, 16.411 1.30516, 15.6984 1.44767, 15.0053 1.5675, 14.3284 1.66791 L 14.3284 3.58526, 16.1972 3.58526, 16.7316 3.06705, 17.5866 3.89618, 14.3284 3.89618, 14.3284 5.96899, 16.1454 5.96899, 16.6798 5.45079, 17.5348 6.27991, 14.3284 6.27991 Z M 18.7623 0.631499 L 19.5655 1.09788, 21.4343 1.09788, 21.8618 0.631499, 22.61 1.30516, 22.1824 1.61609, 22.1824 3.6889 C 22.1824 4.03868, 22.3606 4.21034, 22.7168 4.2071 L 23.0925 4.2071 C 23.3063 4.17471, 23.4844 4.1067, 23.6269 3.99982, 23.7694 3.93504, 23.912 3.98686, 24.0545 4.15852, 24.197 4.33341, 24.2682 4.45325, 24.2682 4.51802, 24.2682 4.69292, 24.0026 4.78036, 23.465 4.77712 L 22.3962 4.77712 C 21.7938 4.78036, 21.4894 4.55689, 21.4894 4.10346 L 21.4894 1.4088, 19.5105 1.4088 C 19.5493 2.44845, 19.4425 3.29701, 19.1931 3.95124, 18.9437 4.60871, 18.338 5.21112, 17.3729 5.76171 L 17.2142 5.60625 C 17.8911 5.09129, 18.3089 4.5828, 18.4708 4.08079, 18.6328 3.58202, 18.7299 3.04438, 18.7655 2.47436, 18.8012 1.90434, 18.8012 1.29221, 18.7623 0.631499 Z M 18.9761 6.07263 C 19.1898 6.66209, 19.4327 7.19001, 19.6983 7.65639, 19.9671 8.12277, 20.2424 8.52762, 20.5274 8.87093, 20.8125 8.52762, 21.0813 8.09686, 21.3307 7.57866, 21.58 7.06046, 21.7744 6.55845, 21.9169 6.07263 Z M 20.0999 9.33731 C 19.8505 8.994, 19.6109 8.55677, 19.3777 8.01913, 19.1477 7.48474, 18.9242 6.83698, 18.7105 6.07263 L 18.121 6.17627, 17.6935 5.76171, 21.9169 5.76171, 22.3962 5.24351, 23.1994 5.96899, 22.7168 6.27991 C 22.5031 6.83698, 22.2472 7.39729, 21.9428 7.96731, 21.6416 8.53734, 21.3307 9.01343, 21.0068 9.38913, 21.6481 9.97859, 22.2893 10.4223, 22.9306 10.7138, 23.5719 11.0053, 24.1613 11.1705, 24.6957 11.2028 L 24.6957 11.4101 C 24.197 11.4458, 23.8763 11.6368, 23.7338 11.9801, 23.3063 11.8765, 22.8172 11.6627, 22.2634 11.3324, 21.7128 11.0053, 21.1331 10.5162, 20.5274 9.85551, 19.8149 10.4126, 19.0149 10.8692, 18.1243 11.2288, 17.2336 11.5915, 16.3073 11.8765, 15.3422 12.0838 L 15.2903 11.8765 C 16.181 11.6368, 17.0522 11.2903, 17.9073 10.8433, 18.7623 10.3964, 19.4943 9.89438, 20.0999 9.33731 Z" stroke="none" fill="#000000" />
			<path d="M 34.4498 2.48313 L 33.8374 5.06826, 33.6192 5.06826, 33.5949 4.42051 C 33.5746 4.18533, 33.5283 3.97554, 33.4554 3.79079, 33.3825 3.6064, 33.2736 3.4463, 33.1278 3.31086, 32.9821 3.17542, 32.7981 3.06942, 32.5758 2.99287, 32.3535 2.91632, 32.1069 2.87804, 31.8356 2.87767, 31.1121 2.87804, 30.479 3.07053, 29.9373 3.45476, 29.2461 3.94573, 28.7043 4.63876, 28.312 5.53347, 27.9885 6.27176, 27.8265 7.01962, 27.8265 7.77705, 27.8265 8.55067, 28.0592 9.16825, 28.5244 9.6294, 28.9896 10.0909, 29.5939 10.3213, 30.3377 10.321, 30.9001 10.3213, 31.4002 10.1999, 31.8389 9.95623, 32.2776 9.71295, 32.6851 9.33792, 33.0608 8.83112 L 33.3461 8.83112 C 32.9015 9.51862, 32.4079 10.0239, 31.8662 10.3478, 31.3244 10.6717, 30.6752 10.8333, 29.9192 10.8333, 29.2479 10.8333, 28.6535 10.6971, 28.1361 10.4244, 27.6186 10.1517, 27.2241 9.76779, 26.9532 9.27314, 26.6823 8.77849, 26.5469 8.24667, 26.5469 7.67694, 26.5469 6.80579, 26.7876 5.95782, 27.2686 5.1334, 27.75 4.30899, 28.4099 3.66124, 29.249 3.19014, 30.0882 2.71905, 30.9343 2.4835, 31.7874 2.48313, 32.1878 2.4835, 32.6365 2.57588, 33.1337 2.7599, 33.3523 2.83866, 33.5099 2.87804, 33.607 2.87767, 33.7042 2.87804, 33.7888 2.85854, 33.8617 2.81916, 33.9346 2.78014, 34.0557 2.66789, 34.2257 2.48313 Z" stroke="none" fill="#000000" />
			<path d="M 35.7332 2.88356 L 35.8057 2.66568, 38.432 2.66568 C 39.5442 2.66605, 40.3679 2.78971, 40.9038 3.03704, 41.4397 3.28436, 41.867 3.67412, 42.1864 4.20594, 42.5059 4.73813, 42.6656 5.30822, 42.6656 5.91623, 42.6656 6.43885, 42.574 6.94638, 42.3899 7.43882, 42.2059 7.93163, 41.9976 8.32617, 41.765 8.62244, 41.5324 8.91908, 41.1758 9.2459, 40.6944 9.60291, 40.2133 9.96027, 39.6918 10.2242, 39.1298 10.3949, 38.5678 10.5657, 37.8663 10.6507, 37.025 10.6507 L 33.5433 10.6507, 33.6224 10.4328 C 33.9419 10.4255, 34.1561 10.3979, 34.265 10.3504, 34.427 10.2842, 34.5466 10.1936, 34.6232 10.0795, 34.7406 9.915, 34.8719 9.5834, 35.0173 9.08433 L 36.4729 4.25562 C 36.5863 3.87507, 36.643 3.57695, 36.643 3.36055, 36.643 3.20781, 36.5907 3.09003, 36.4854 3.00759, 36.3802 2.92515, 36.1741 2.88393, 35.8664 2.88356 Z M 37.8862 3.10733 L 36.1031 9.08433 C 35.9698 9.53224, 35.9028 9.80901, 35.9028 9.91464, 35.9028 9.97794, 35.9242 10.0387, 35.9665 10.0976, 36.0092 10.1564, 36.0666 10.1958, 36.1395 10.215, 36.2447 10.2507, 36.4144 10.2683, 36.6489 10.268, 37.2837 10.2683, 37.873 10.2047, 38.4169 10.0769, 38.9609 9.9496, 39.407 9.76006, 39.7544 9.50832, 40.2476 9.14359, 40.6417 8.64121, 40.9369 8.00119, 41.2321 7.36153, 41.3797 6.63317, 41.3797 5.81612, 41.3797 4.89381, 41.1533 4.20815, 40.7006 3.7584, 40.2479 3.30902, 39.5866 3.08415, 38.7173 3.08378, 38.5031 3.08415, 38.2259 3.09187, 37.8862 3.10733 Z" stroke="none" fill="#000000" />
			<rect />
		</svg>
	</g>
	<path d="M 110.596 -102.946 L 120.915 -92.3478 C 140.514 -70.1152, 152.603 -42.9622, 155.646 -14.3436 L 156.406 -5.35208e-005" fill="none" stroke="#000000" stroke-width="1.80000007" stroke-linecap="round" stroke-linejoin="round" marker-start="url(#CustomMarker-03)" marker-end="url(#CustomMarker-04)" transform="matrix(0.416667 0 -0 0.416667 -616.393 234.505)" />
	<path d="M 0 0 L 234.61 -218.381" fill="none" stroke="#000000" stroke-width="1.60000014" stroke-linecap="round" stroke-linejoin="round" transform="matrix(0.416667 0 -0 0.416667 -616.393 234.505)" />
	<path d="M 0 0 L 328.454 0" fill="none" stroke="#000000" stroke-width="1.60000014" stroke-linecap="round" stroke-linejoin="round" transform="matrix(0.416667 0 -0 0.416667 -616.393 234.505)" />
	<g transform="matrix(1 0 -0 1 -550.383 200.317)">
		<svg width="38.9609985" height="42.0047188">
			<defs />
			<path d="M 4.18084 1.92701 C 3.82457 2.41282, 3.45212 2.89864, 3.06023 3.37798 L 3.3258 3.6889, 6.58724 3.6889, 7.4941 1.92701 Z M 3.38086 3.99982 L 3.38086 5.76171, 6.10467 5.76171, 6.10467 3.99982 Z M 6.85282 3.99982 L 6.85282 5.76171, 9.95233 5.76171, 9.95233 3.99982 Z M 3.38086 6.07263 C 3.38086 6.73334, 3.36467 7.31956, 3.3258 7.83452 L 6.10467 7.83452, 6.10467 6.07263 Z M 6.85282 6.07263 L 6.85282 7.83452, 9.95233 7.83452, 9.95233 6.07263 Z M 7.8698 10.9437 C 8.72483 11.0474, 9.28838 11.1089, 9.55396 11.1251, 9.81954 11.1445, 9.95233 11.015, 9.95233 10.7365 L 9.95233 8.14544, 6.85282 8.14544 C 6.85282 10.0498, 6.87226 11.1705, 6.90788 11.5138 L 5.99779 11.9801 C 6.06904 11.4976, 6.10467 10.2215, 6.10467 8.14544 L 3.27398 8.14544 C 3.1671 9.08145, 2.84647 9.88466, 2.31207 10.5583, 1.77767 11.232, 1.02952 11.7923, 0.0676026 12.2392 L -0.0392768 12.0838 C 0.602 11.6368, 1.12992 11.1543, 1.538 10.6361, 1.94609 10.1179, 2.24082 9.50573, 2.41895 8.79644, 2.59708 8.09039, 2.66833 6.43861, 2.63271 3.84436, 2.06268 4.43382, 1.31453 4.97145, 0.388241 5.45079 L 0.226302 5.29533 C 1.15259 4.6411, 1.99143 3.77958, 2.73959 2.70755, 3.48774 1.63876, 3.95089 0.738379, 4.12902 0.00965595 L 5.30469 0.73514, 4.82212 0.890601 C 4.67961 1.06549, 4.52091 1.3084, 4.34278 1.61609 L 7.38722 1.61609, 7.97668 1.04606, 8.93859 1.97883 C 8.65358 2.05008, 8.39772 2.16344, 8.16453 2.3189, 7.93133 2.47436, 7.4941 2.93103, 6.85282 3.6889 L 9.73857 3.6889, 10.328 3.11887, 11.1831 3.84436, 10.7005 4.2071, 10.7005 10.7883 C 10.7393 11.2741, 10.6584 11.6109, 10.4608 11.7988, 10.2665 11.9899, 9.98795 12.155, 9.63169 12.2911, 9.41793 11.7729, 8.83171 11.4101, 7.8698 11.2028 Z" stroke="none" fill="#000000" />
			<rect />
		</svg>
	</g>
	<polyline points="0 0 286.95 0" fill="none" stroke="#000000" stroke-opacity="0.399999976" stroke-width="1.20000005" stroke-linecap="round" stroke-linejoin="round" stroke-dasharray="1.806, 2.994" transform="matrix(0.416667 0 -0 0.416667 -276.576 250.006)" />
	<polyline points="0 0 248.506 -143.475" fill="none" stroke="#000000" stroke-opacity="0.399999976" stroke-width="1.20000005" stroke-linecap="round" stroke-linejoin="round" stroke-dasharray="1.806, 2.994" transform="matrix(0.416667 0 -0 0.416667 -276.576 250.006)" />
	<polyline points="0 0 143.475 -248.506" fill="none" stroke="#000000" stroke-opacity="0.399999976" stroke-width="1.20000005" stroke-linecap="round" stroke-linejoin="round" stroke-dasharray="1.806, 2.994" transform="matrix(0.416667 0 -0 0.416667 -276.576 250.006)" />
	<polyline points="0 0 -1.2543e-005 -286.95" fill="none" stroke="#000000" stroke-opacity="0.399999976" stroke-width="1.20000005" stroke-linecap="round" stroke-linejoin="round" stroke-dasharray="1.806, 2.994" transform="matrix(0.416667 0 -0 0.416667 -276.576 250.006)" />
	<polyline points="0 0 -143.475 -248.506" fill="none" stroke="#000000" stroke-opacity="0.399999976" stroke-width="1.20000005" stroke-linecap="round" stroke-linejoin="round" stroke-dasharray="1.806, 2.994" transform="matrix(0.416667 0 -0 0.416667 -276.576 250.006)" />
	<polyline points="0 0 -248.506 -143.475" fill="none" stroke="#000000" stroke-opacity="0.399999976" stroke-width="1.20000005" stroke-linecap="round" stroke-linejoin="round" stroke-dasharray="1.806, 2.994" transform="matrix(0.416667 0 -0 0.416667 -276.576 250.006)" />
	<polyline points="0 0 -286.95 -4.33282e-005" fill="none" stroke="#000000" stroke-opacity="0.399999976" stroke-width="1.20000005" stroke-linecap="round" stroke-linejoin="round" stroke-dasharray="1.806, 2.994" transform="matrix(0.416667 0 -0 0.416667 -276.576 250.006)" />
	<polyline points="0 0 -248.506 143.475" fill="none" stroke="#000000" stroke-opacity="0.399999976" stroke-width="1.20000005" stroke-linecap="round" stroke-linejoin="round" stroke-dasharray="1.806, 2.994" transform="matrix(0.416667 0 -0 0.416667 -276.576 250.006)" />
	<polyline points="0 0 -143.475 248.506" fill="none" stroke="#000000" stroke-opacity="0.399999976" stroke-width="1.20000005" stroke-linecap="round" stroke-linejoin="round" stroke-dasharray="1.806, 2.994" transform="matrix(0.416667 0 -0 0.416667 -276.576 250.006)" />
	<polyline points="0 0 -0.000133406 286.95" fill="none" stroke="#000000" stroke-opacity="0.399999976" stroke-width="1.20000005" stroke-linecap="round" stroke-linejoin="round" stroke-dasharray="1.806, 2.994" transform="matrix(0.416667 0 -0 0.416667 -276.576 250.006)" />
	<polyline points="0 0 143.475 248.506" fill="none" stroke="#000000" stroke-opacity="0.399999976" stroke-width="1.20000005" stroke-linecap="round" stroke-linejoin="round" stroke-dasharray="1.806, 2.994" transform="matrix(0.416667 0 -0 0.416667 -276.576 250.006)" />
	<polyline points="0 0 248.506 143.475" fill="none" stroke="#000000" stroke-opacity="0.399999976" stroke-width="1.20000005" stroke-linecap="round" stroke-linejoin="round" stroke-dasharray="1.806, 2.994" transform="matrix(0.416667 0 -0 0.416667 -276.576 250.006)" />
	<polyline points="298.527 0 286.95 0" fill="none" stroke="#000000" stroke-width="2.4000001" stroke-linecap="round" stroke-linejoin="round" transform="matrix(0.416667 0 -0 0.416667 -276.576 250.006)" />
	<polyline points="284.083 76.1199 277.172 74.268" fill="none" stroke="#000000" stroke-width="1.48319995" stroke-linecap="round" stroke-linejoin="round" transform="matrix(0.416667 0 -0 0.416667 -276.576 250.006)" />
	<polyline points="258.532 -149.264 248.506 -143.475" fill="none" stroke="#000000" stroke-width="2.4000001" stroke-linecap="round" stroke-linejoin="round" transform="matrix(0.416667 0 -0 0.416667 -276.576 250.006)" />
	<polyline points="284.083 -76.1199 277.172 -74.268" fill="none" stroke="#000000" stroke-width="1.48319995" stroke-linecap="round" stroke-linejoin="round" transform="matrix(0.416667 0 -0 0.416667 -276.576 250.006)" />
	<polyline points="149.264 -258.532 143.475 -248.506" fill="none" stroke="#000000" stroke-width="2.4000001" stroke-linecap="round" stroke-linejoin="round" transform="matrix(0.416667 0 -0 0.416667 -276.576 250.006)" />
	<polyline points="207.963 -207.963 202.904 -202.904" fill="none" stroke="#000000" stroke-width="1.48319995" stroke-linecap="round" stroke-linejoin="round" transform="matrix(0.416667 0 -0 0.416667 -276.576 250.006)" />
	<polyline points="-1.3049e-005 -298.527 -1.2543e-005 -286.95" fill="none" stroke="#000000" stroke-width="2.4000001" stroke-linecap="round" stroke-linejoin="round" transform="matrix(0.416667 0 -0 0.416667 -276.576 250.006)" />
	<polyline points="76.1199 -284.083 74.268 -277.172" fill="none" stroke="#000000" stroke-width="1.48319995" stroke-linecap="round" stroke-linejoin="round" transform="matrix(0.416667 0 -0 0.416667 -276.576 250.006)" />
	<polyline points="-149.264 -258.532 -143.475 -248.506" fill="none" stroke="#000000" stroke-width="2.4000001" stroke-linecap="round" stroke-linejoin="round" transform="matrix(0.416667 0 -0 0.416667 -276.576 250.006)" />
	<polyline points="-76.1199 -284.083 -74.2681 -277.172" fill="none" stroke="#000000" stroke-width="1.48319995" stroke-linecap="round" stroke-linejoin="round" transform="matrix(0.416667 0 -0 0.416667 -276.576 250.006)" />
	<polyline points="-258.532 -149.264 -248.506 -143.475" fill="none" stroke="#000000" stroke-width="2.4000001" stroke-linecap="round" stroke-linejoin="round" transform="matrix(0.416667 0 -0 0.416667 -276.576 250.006)" />
	<polyline points="-207.963 -207.963 -202.904 -202.904" fill="none" stroke="#000000" stroke-width="1.48319995" stroke-linecap="round" stroke-linejoin="round" transform="matrix(0.416667 0 -0 0.416667 -276.576 250.006)" />
	<polyline points="-298.527 -4.50764e-005 -286.95 -4.33282e-005" fill="none" stroke="#000000" stroke-width="2.4000001" stroke-linecap="round" stroke-linejoin="round" transform="matrix(0.416667 0 -0 0.416667 -276.576 250.006)" />
	<polyline points="-284.083 -76.1199 -277.172 -74.2681" fill="none" stroke="#000000" stroke-width="1.48319995" stroke-linecap="round" stroke-linejoin="round" transform="matrix(0.416667 0 -0 0.416667 -276.576 250.006)" />
	<polyline points="-258.532 149.264 -248.506 143.475" fill="none" stroke="#000000" stroke-width="2.4000001" stroke-linecap="round" stroke-linejoin="round" transform="matrix(0.416667 0 -0 0.416667 -276.576 250.006)" />
	<polyline points="-284.083 76.1198 -277.172 74.268" fill="none" stroke="#000000" stroke-width="1.48319995" stroke-linecap="round" stroke-linejoin="round" transform="matrix(0.416667 0 -0 0.416667 -276.576 250.006)" />
	<polyline points="-149.264 258.532 -143.475 248.506" fill="none" stroke="#000000" stroke-width="2.4000001" stroke-linecap="round" stroke-linejoin="round" transform="matrix(0.416667 0 -0 0.416667 -276.576 250.006)" />
	<polyline points="-207.963 207.963 -202.904 202.904" fill="none" stroke="#000000" stroke-width="1.48319995" stroke-linecap="round" stroke-linejoin="round" transform="matrix(0.416667 0 -0 0.416667 -276.576 250.006)" />
	<polyline points="-0.000138789 298.527 -0.000133406 286.95" fill="none" stroke="#000000" stroke-width="2.4000001" stroke-linecap="round" stroke-linejoin="round" transform="matrix(0.416667 0 -0 0.416667 -276.576 250.006)" />
	<polyline points="-76.12 284.083 -74.2681 277.172" fill="none" stroke="#000000" stroke-width="1.48319995" stroke-linecap="round" stroke-linejoin="round" transform="matrix(0.416667 0 -0 0.416667 -276.576 250.006)" />
	<polyline points="149.263 258.532 143.475 248.506" fill="none" stroke="#000000" stroke-width="2.4000001" stroke-linecap="round" stroke-linejoin="round" transform="matrix(0.416667 0 -0 0.416667 -276.576 250.006)" />
	<polyline points="76.1197 284.083 74.2679 277.172" fill="none" stroke="#000000" stroke-width="1.48319995" stroke-linecap="round" stroke-linejoin="round" transform="matrix(0.416667 0 -0 0.416667 -276.576 250.006)" />
	<polyline points="258.532 149.264 248.506 143.475" fill="none" stroke="#000000" stroke-width="2.4000001" stroke-linecap="round" stroke-linejoin="round" transform="matrix(0.416667 0 -0 0.416667 -276.576 250.006)" />
	<polyline points="207.963 207.964 202.904 202.904" fill="none" stroke="#000000" stroke-width="1.48319995" stroke-linecap="round" stroke-linejoin="round" transform="matrix(0.416667 0 -0 0.416667 -276.576 250.006)" />
	<text font-family="TIMES NEW ROMAN" font-size="28.9440022" fill="#000000" dominant-baseline="middle" text-anchor="start" x="307.971497" y="2.95206189" transform="matrix(0.416667 0 -0 0.416667 -276.576 250.006)">0°</text>
	<text font-family="TIMES NEW ROMAN" font-size="28.9440022" fill="#000000" dominant-baseline="middle" text-anchor="start" x="266.711151" y="-150.924164" transform="matrix(0.416667 0 -0 0.416667 -276.576 250.006)">30°</text>
	<text font-family="TIMES NEW ROMAN" font-size="28.9440022" fill="#000000" dominant-baseline="middle" text-anchor="start" x="153.985748" y="-263.569397" transform="matrix(0.416667 0 -0 0.416667 -276.576 250.006)">60°</text>
	<text font-family="TIMES NEW ROMAN" font-size="28.9440022" fill="#000000" dominant-baseline="middle" text-anchor="middle" x="4.72211313" y="-314.025574" transform="matrix(0.416667 0 -0 0.416667 -276.576 250.006)">90°</text>
	<text font-family="TIMES NEW ROMAN" font-size="28.9440022" fill="#000000" dominant-baseline="middle" text-anchor="end" x="-155.052444" y="-263.569366" transform="matrix(0.416667 0 -0 0.416667 -276.576 250.006)">120°</text>
	<text font-family="TIMES NEW ROMAN" font-size="28.9440022" fill="#000000" dominant-baseline="middle" text-anchor="end" x="-267.777832" y="-150.924179" transform="matrix(0.416667 0 -0 0.416667 -276.576 250.006)">150°</text>
	<text font-family="TIMES NEW ROMAN" font-size="28.9440022" fill="#000000" dominant-baseline="middle" text-anchor="end" x="-309.038177" y="2.95201564" transform="matrix(0.416667 0 -0 0.416667 -276.576 250.006)">180°</text>
	<text font-family="TIMES NEW ROMAN" font-size="28.9440022" fill="#000000" dominant-baseline="middle" text-anchor="end" x="-267.777863" y="156.828217" transform="matrix(0.416667 0 -0 0.416667 -276.576 250.006)">210°</text>
	<text font-family="TIMES NEW ROMAN" font-size="28.9440022" fill="#000000" dominant-baseline="middle" text-anchor="end" x="-155.052521" y="269.473419" transform="matrix(0.416667 0 -0 0.416667 -276.576 250.006)">240°</text>
	<text font-family="TIMES NEW ROMAN" font-size="28.9440022" fill="#000000" dominant-baseline="middle" text-anchor="middle" x="4.72198343" y="319.929688" transform="matrix(0.416667 0 -0 0.416667 -276.576 250.006)">270°</text>
	<text font-family="TIMES NEW ROMAN" font-size="28.9440022" fill="#000000" dominant-baseline="middle" text-anchor="start" x="153.985596" y="269.473572" transform="matrix(0.416667 0 -0 0.416667 -276.576 250.006)">300°</text>
	<text font-family="TIMES NEW ROMAN" font-size="28.9440022" fill="#000000" dominant-baseline="middle" text-anchor="start" x="266.71106" y="156.828461" transform="matrix(0.416667 0 -0 0.416667 -276.576 250.006)">330°</text>
	<path d="M 13.9961 -0 C 13.9961 7.72983, 7.72983 13.9961, -0 13.9961, -7.72983 13.9961, -13.9961 7.72983, -13.9961 -0, -13.9961 -7.72983, -7.72983 -13.9961, -0 -13.9961, 7.72983 -13.9961, 13.9961 -7.72983, 13.9961 -0 Z" fill="none" stroke="#000000" stroke-opacity="0.399999976" stroke-width="1.20000005" stroke-linecap="round" stroke-linejoin="round" stroke-dasharray="1.806, 2.994" transform="matrix(0.416667 0 -0 0.416667 -276.576 250.006)" />
	<polyline points="0 -0 -11.5776 -0" fill="none" stroke="#000000" stroke-width="2.4000001" stroke-linecap="round" stroke-linejoin="round" transform="matrix(0.416667 -1.82131e-008 1.82131e-008 0.416667 -276.576 250.006)" />
	<polyline points="0 0 0 -286.95" fill="none" stroke="#000000" stroke-width="2.4000001" stroke-linecap="round" stroke-linejoin="round" transform="matrix(0.416667 -1.82131e-008 1.82131e-008 0.416667 -276.576 250.006)" />
	<path d="M 286.95 -0 C 286.95 158.478, 158.478 286.95, -0 286.95, -158.478 286.95, -286.95 158.478, -286.95 -0, -286.95 -158.478, -158.478 -286.95, -0 -286.95, 158.478 -286.95, 286.95 -158.478, 286.95 -0 Z" fill="none" stroke="#000000" stroke-width="2.4000001" stroke-linecap="round" stroke-linejoin="round" transform="matrix(0.416667 0 -0 0.416667 -276.576 250.006)" />
	<path d="M -143.476 0 L 143.474 0" fill="none" stroke="#F00000" stroke-width="2.4000001" stroke-linecap="round" stroke-linejoin="round" transform="matrix(0.416667 0 0 0.416667 -216.795 250.006)" />
	<path d="M -110.016 91.3953 L 110.013 -91.3962" fill="none" stroke="#F00000" stroke-width="2.4000001" stroke-linecap="round" stroke-linejoin="round" transform="matrix(0.416667 0 0 0.416667 -230.736 211.925)" />
	<path d="M 56.033 -46.5965 L 62.6882 -37.1636 C 69.3212 -25.9746, 72.8759 -13.1475, 72.8759 -2.87896e-005" fill="none" stroke="#000000" stroke-width="1.80000007" stroke-linecap="round" stroke-linejoin="round" marker-start="url(#CustomMarker-05)" transform="matrix(0.416667 0 -0 0.416667 -276.085 249.674)" />
	<g transform="matrix(1 0 -0 1 -131.809 242.837)">
		<svg width="144.007935" height="87.0188828">
			<defs />
			<polyline points="-4.221 -1.2663 4.221 -1.2663" fill="none" stroke="#000000" stroke-width="0.4824" stroke-linecap="round" stroke-linejoin="round" transform="matrix(1 0 0 1 4.221 7.16946)" />
			<polyline points="-4.221 1.2663 4.221 1.2663" fill="none" stroke="#000000" stroke-width="0.4824" stroke-linecap="round" stroke-linejoin="round" transform="matrix(1 0 0 1 4.221 7.16946)" />
			<path d="M 12.1168 4.28024 C 12.3469 3.75364, 12.6369 3.3468, 12.9875 3.06005, 13.338 2.77367, 13.7748 2.63012, 14.2978 2.62976, 14.9438 2.63012, 15.439 2.83391, 15.7835 3.24148, 16.0453 3.54589, 16.1759 3.87087, 16.1759 4.21676, 16.1759 4.78663, 15.8076 5.37527, 15.0704 5.98265, 15.566 6.17165, 15.9403 6.44108, 16.1939 6.79094, 16.4475 7.14116, 16.5741 7.5527, 16.5741 8.02555, 16.5741 8.70291, 16.3522 9.28974, 15.9082 9.78568, 15.3301 10.4324, 14.4922 10.7552, 13.3947 10.7552, 12.8518 10.7552, 12.4825 10.6899, 12.2863 10.5593, 12.0901 10.4288, 11.992 10.2881, 11.992 10.1377, 11.992 10.0266, 12.0389 9.92851, 12.1319 9.84375, 12.225 9.75935, 12.3368 9.71679, 12.4674 9.71642, 12.5665 9.71679, 12.6675 9.7323, 12.7707 9.76259, 12.8381 9.78207, 12.9907 9.8524, 13.2284 9.97359, 13.4661 10.0948, 13.6305 10.1669, 13.7214 10.1896, 13.8679 10.2322, 14.0244 10.2535, 14.191 10.2531, 14.595 10.2535, 14.9467 10.1016, 15.2457 9.79758, 15.545 9.49389, 15.6944 9.13393, 15.6944 8.71806, 15.6944 8.41437, 15.6251 8.11825, 15.4863 7.82934, 15.3835 7.61438, 15.2706 7.45063, 15.1476 7.33882, 14.9773 7.18516, 14.7436 7.04594, 14.4464 6.92079, 14.1492 6.79599, 13.8462 6.73323, 13.5371 6.73287 L 13.3471 6.73287, 13.3471 6.55974 C 13.6601 6.52151, 13.9739 6.41223, 14.2888 6.23116, 14.604 6.05046, 14.8327 5.83297, 14.9755 5.57905, 15.1184 5.32513, 15.1894 5.04633, 15.1894 4.74191, 15.1894 4.34588, 15.0617 4.02596, 14.806 3.78142, 14.5506 3.53724, 14.2325 3.41496, 13.852 3.4146, 13.2381 3.41496, 12.7249 3.73417, 12.313 4.37257 Z" stroke="none" fill="#000000" />
			<path d="M 23.0798 2.62976 L 23.0798 2.84328 C 22.5568 2.89378, 22.1301 2.99477, 21.7993 3.14662, 21.4686 3.29883, 21.1418 3.53038, 20.8186 3.84201, 20.4958 4.15364, 20.2286 4.50098, 20.0165 4.88366, 19.8044 5.2667, 19.6273 5.72152, 19.4845 6.24812, 20.0551 5.8676, 20.6275 5.67716, 21.2021 5.6768, 21.7528 5.67716, 22.2304 5.89284, 22.6343 6.3235, 23.0383 6.75451, 23.2403 7.30852, 23.2403 7.98516, 23.2403 8.63943, 23.0365 9.236, 22.6282 9.77413, 22.1369 10.4284, 21.4874 10.7552, 20.6791 10.7552, 20.1283 10.7552, 19.6609 10.5785, 19.2764 10.2243, 18.524 9.53608, 18.1474 8.6434, 18.1474 7.54657, 18.1474 6.84685, 18.2921 6.18139, 18.5813 5.5502, 18.8706 4.91937, 19.2836 4.35959, 19.8203 3.87087, 20.357 3.3825, 20.8709 3.05356, 21.3622 2.88404, 21.8534 2.71488, 22.3111 2.63012, 22.7349 2.62976 Z M 19.3835 6.66939 C 19.3121 7.18913, 19.2764 7.6086, 19.2764 7.92745, 19.2764 8.29714, 19.3467 8.69822, 19.4874 9.13104, 19.628 9.56386, 19.8372 9.90723, 20.1142 10.1608, 20.3166 10.3418, 20.5622 10.4324, 20.8511 10.432, 21.1959 10.4324, 21.5043 10.2748, 21.7755 9.95916, 22.0468 9.64393, 22.1824 9.19344, 22.1824 8.60841, 22.1824 7.95089, 22.0479 7.38174, 21.7784 6.90059, 21.509 6.4198, 21.1267 6.17922, 20.6315 6.17886, 20.4811 6.17922, 20.3195 6.21024, 20.1471 6.27156, 19.9747 6.33324, 19.7204 6.46597, 19.3835 6.66939 Z" stroke="none" fill="#000000" />
			<path d="M 24.2314 6.75018 C 24.2314 5.85786, 24.3703 5.08961, 24.6477 4.44507, 24.925 3.80089, 25.2933 3.32083, 25.7528 3.00487, 26.1095 2.75528, 26.4781 2.63012, 26.8583 2.62976, 27.4765 2.63012, 28.0309 2.93598, 28.5221 3.54733, 29.1363 4.30549, 29.4433 5.33271, 29.4433 6.62899, 29.4433 7.53719, 29.3087 8.30869, 29.0393 8.94349, 28.7699 9.57828, 28.4262 10.0392, 28.0081 10.3256, 27.5901 10.6124, 27.1869 10.7552, 26.7988 10.7552, 26.0302 10.7552, 25.3903 10.3152, 24.8792 9.43365, 24.4475 8.69137, 24.2314 7.79688, 24.2314 6.75018 Z M 25.3961 6.89446 C 25.3961 7.97217, 25.5328 8.85115, 25.8062 9.53176, 26.032 10.1052, 26.3688 10.392, 26.8164 10.3916, 27.0307 10.392, 27.2525 10.2989, 27.4823 10.1121, 27.712 9.92562, 27.8862 9.61291, 28.0052 9.17396, 28.1874 8.51247, 28.2783 7.57975, 28.2783 6.37507, 28.2783 5.48275, 28.1834 4.7383, 27.9933 4.14174, 27.8505 3.69954, 27.6662 3.38611, 27.4404 3.20108, 27.2781 3.07448, 27.0823 3.011, 26.8521 3.01064, 26.5831 3.011, 26.3432 3.12822, 26.1329 3.36267, 25.848 3.68223, 25.654 4.18466, 25.5508 4.86923, 25.4477 5.55416, 25.3961 6.22936, 25.3961 6.89446 Z" stroke="none" fill="#000000" />
			<path d="M 32.1141 2.48902 C 32.6356 2.48939, 33.0773 2.66605, 33.439 3.01937, 33.8008 3.37269, 33.9815 3.80072, 33.9815 4.30273, 33.9815 4.8018, 33.7997 5.22762, 33.4361 5.58094, 33.0725 5.93426, 32.6316 6.11092, 32.1141 6.11056, 31.6007 6.11092, 31.162 5.93426, 30.798 5.58094, 30.4344 5.22762, 30.2522 4.8018, 30.2522 4.30273, 30.2522 3.80072, 30.4332 3.37269, 30.795 3.01937, 31.1572 2.66605, 31.5966 2.48939, 32.1141 2.48902 Z M 32.1141 2.98367 C 31.738 2.98404, 31.4185 3.11175, 31.1557 3.3668, 30.8929 3.62222, 30.7615 3.93211, 30.7615 4.29684, 30.7615 4.65826, 30.8929 4.96778, 31.1557 5.22468, 31.4185 5.48194, 31.738 5.61039, 32.1141 5.61002, 32.4858 5.61039, 32.8042 5.48194, 33.0692 5.22468, 33.3342 4.96778, 33.4663 4.65826, 33.4663 4.29684, 33.4663 3.93211, 33.3349 3.62222, 33.0721 3.3668, 32.8093 3.11175, 32.4902 2.98404, 32.1141 2.98367 Z" stroke="none" fill="#000000" />
			<rect />
		</svg>
	</g>
	<path d="M -143.476 0 L 143.474 0" fill="none" stroke="#F00000" stroke-width="2.4000001" stroke-linecap="round" stroke-linejoin="round" transform="matrix(0.416667 0 0 0.416667 -336.357 250.006)" />
	<path d="M -123.197 4.29275e-005 L -122.295 -14.899 C -114.904 -75.5396, -62.9688 -122.523, -8.61143e-005 -122.523, 68.0397 -122.523, 123.197 -67.6676, 123.197 -0, 123.197 -0, 123.197 -0, 123.197 -0" fill="none" stroke="#000000" stroke-width="1.80000007" stroke-linecap="round" stroke-linejoin="round" marker-start="url(#CustomMarker-06)" transform="matrix(0.416667 0 -0 0.416667 -276.085 249.674)" />
	<path d="M -113.625 -104.706 L -39.7762 22.6067, 39.7762 22.6067" fill="none" stroke="#000000" stroke-width="1.20000005" stroke-linecap="round" stroke-linejoin="round" transform="matrix(0.416667 0 -0 0.416667 -208.84 286.302)" />
	<g transform="matrix(1 0 -0 1 -223.163 279.133)">
		<svg width="129.033646" height="110.943291">
			<defs />
			<path d="M -4.221 1.16078 C -1.39293 -3.71448, 1.39293 3.71448, 4.221 -1.16078" fill="none" stroke="#000000" stroke-width="0.4824" stroke-linecap="round" stroke-linejoin="round" transform="matrix(0.992109 0.12538 -0.12538 0.992109 4.221 5.90316)" />
			<path d="M -4.221 1.16078 C -1.39293 -3.71448, 1.39293 3.71448, 4.221 -1.16078" fill="none" stroke="#000000" stroke-width="0.4824" stroke-linecap="round" stroke-linejoin="round" transform="matrix(0.992109 0.12538 -0.12538 0.992109 4.221 8.43576)" />
			<path d="M 17.4694 7.73124 L 17.4694 8.5507, 16.3877 8.5507, 16.3877 10.6167, 15.4071 10.6167, 15.4071 8.5507, 11.9961 8.5507, 11.9961 7.81203, 15.7342 2.62976, 16.3877 2.62976, 16.3877 7.73124 Z M 15.4071 7.73124 L 15.4071 3.84742, 12.5786 7.73124 Z" stroke="none" fill="#000000" />
			<path d="M 18.4124 6.75018 C 18.4124 5.85786, 18.5512 5.08961, 18.8286 4.44507, 19.106 3.80089, 19.4742 3.32083, 19.9337 3.00487, 20.2904 2.75528, 20.6591 2.63012, 21.0392 2.62976, 21.6574 2.63012, 22.2118 2.93598, 22.703 3.54733, 23.3173 4.30549, 23.6242 5.33271, 23.6242 6.62899, 23.6242 7.53719, 23.4897 8.30869, 23.2202 8.94349, 22.9508 9.57828, 22.6071 10.0392, 22.1891 10.3256, 21.771 10.6124, 21.3678 10.7552, 20.9797 10.7552, 20.2111 10.7552, 19.5712 10.3152, 19.0602 9.43365, 18.6284 8.69137, 18.4124 7.79688, 18.4124 6.75018 Z M 19.577 6.89446 C 19.577 7.97217, 19.7137 8.85115, 19.9871 9.53176, 20.2129 10.1052, 20.5498 10.392, 20.9974 10.3916, 21.2116 10.392, 21.4334 10.2989, 21.6632 10.1121, 21.8929 9.92562, 22.0672 9.61291, 22.1862 9.17396, 22.3683 8.51247, 22.4592 7.57975, 22.4592 6.37507, 22.4592 5.48275, 22.3644 4.7383, 22.1743 4.14174, 22.0314 3.69954, 21.8471 3.38611, 21.6213 3.20108, 21.459 3.07448, 21.2632 3.011, 21.0331 3.01064, 20.764 3.011, 20.5242 3.12822, 20.3139 3.36267, 20.0289 3.68223, 19.8349 4.18466, 19.7317 4.86923, 19.6286 5.55416, 19.577 6.22936, 19.577 6.89446 Z" stroke="none" fill="#000000" />
			<path d="M 26.295 2.48902 C 26.8165 2.48939, 27.2582 2.66605, 27.62 3.01937, 27.9818 3.37269, 28.1625 3.80072, 28.1625 4.30273, 28.1625 4.8018, 27.9807 5.22762, 27.617 5.58094, 27.2534 5.93426, 26.8125 6.11092, 26.295 6.11056, 25.7816 6.11092, 25.3429 5.93426, 24.9789 5.58094, 24.6153 5.22762, 24.4331 4.8018, 24.4331 4.30273, 24.4331 3.80072, 24.6142 3.37269, 24.976 3.01937, 25.3381 2.66605, 25.7776 2.48939, 26.295 2.48902 Z M 26.295 2.98367 C 25.9189 2.98404, 25.5994 3.11175, 25.3366 3.3668, 25.0739 3.62222, 24.9425 3.93211, 24.9425 4.29684, 24.9425 4.65826, 25.0739 4.96778, 25.3366 5.22468, 25.5994 5.48194, 25.9189 5.61039, 26.295 5.61002, 26.6667 5.61039, 26.9851 5.48194, 27.2501 5.22468, 27.5151 4.96778, 27.6472 4.65826, 27.6472 4.29684, 27.6472 3.93211, 27.5158 3.62222, 27.253 3.3668, 26.9903 3.11175, 26.6712 2.98404, 26.295 2.98367 Z" stroke="none" fill="#000000" />
			<rect />
		</svg>
	</g>
	<path d="M -106.482 -97.4322 L -45.6165 22.6067, 45.6165 22.6067" fill="none" stroke="#000000" stroke-width="1.20000005" stroke-linecap="round" stroke-linejoin="round" transform="matrix(0.416667 0 -0 0.416667 -279.701 270.871)" />
	<g transform="matrix(1 0 -0 1 -296.458 263.701)">
		<svg width="144.007935" height="87.0188828">
			<defs />
			<polyline points="-4.221 -1.2663 4.221 -1.2663" fill="none" stroke="#000000" stroke-width="0.4824" stroke-linecap="round" stroke-linejoin="round" transform="matrix(1 0 0 1 4.221 7.16946)" />
			<polyline points="-4.221 1.2663 4.221 1.2663" fill="none" stroke="#000000" stroke-width="0.4824" stroke-linecap="round" stroke-linejoin="round" transform="matrix(1 0 0 1 4.221 7.16946)" />
			<path d="M 11.9699 3.55888 L 13.931 2.62976, 14.1272 2.62976, 14.1272 9.23744 C 14.1272 9.67639, 14.1463 9.94979, 14.1838 10.0573, 14.2213 10.1651, 14.2996 10.2477, 14.4186 10.3054, 14.5376 10.3631, 14.7789 10.3959, 15.1432 10.4032 L 15.1432 10.6167, 12.1124 10.6167, 12.1124 10.4032 C 12.4929 10.3959, 12.7385 10.3642, 12.8496 10.3083, 12.9607 10.2528, 13.0379 10.1777, 13.0812 10.0832, 13.1248 9.9891, 13.1465 9.70705, 13.1465 9.23744 L 13.1465 5.01314 C 13.1465 4.44399, 13.127 4.07862, 13.0873 3.91667, 13.0596 3.79404, 13.0091 3.70351, 12.9358 3.6458, 12.8626 3.58809, 12.7743 3.55924, 12.6711 3.55888, 12.5247 3.55924, 12.3209 3.61875, 12.059 3.73777 Z" stroke="none" fill="#000000" />
			<path d="M 19.0077 6.67516 C 18.3701 6.16768, 17.9589 5.76011, 17.7746 5.45209, 17.5906 5.14443, 17.4983 4.82487, 17.4983 4.49376, 17.4983 3.98628, 17.7006 3.54878, 18.1046 3.18124, 18.5086 2.81407, 19.0456 2.63012, 19.715 2.62976, 20.365 2.63012, 20.888 2.80145, 21.284 3.14373, 21.68 3.48638, 21.878 3.87664, 21.878 4.31486, 21.878 4.60774, 21.7713 4.90602, 21.5574 5.20971, 21.3435 5.51377, 20.8977 5.87156, 20.22 6.28274, 20.9175 6.80645, 21.3789 7.21799, 21.6046 7.51771, 21.9058 7.91049, 22.0562 8.3242, 22.0562 8.75846, 22.0562 9.30886, 21.8405 9.77954, 21.4088 10.1698, 20.9771 10.5604, 20.4104 10.7552, 19.7089 10.7552, 18.9443 10.7552, 18.3481 10.5229, 17.9203 10.0569, 17.5798 9.68396, 17.4092 9.27639, 17.4092 8.83348, 17.4092 8.48758, 17.5293 8.14422, 17.7688 7.80373, 18.0083 7.46325, 18.4213 7.08706, 19.0077 6.67516 Z M 19.9408 6.05768 C 20.4162 5.64253, 20.7174 5.31467, 20.844 5.0741, 20.9709 4.83388, 21.034 4.56157, 21.034 4.25715, 21.034 3.85355, 20.9172 3.53724, 20.6835 3.3082, 20.4497 3.07953, 20.1309 2.96483, 19.7269 2.96447, 19.323 2.96483, 18.994 3.07845, 18.7405 3.30532, 18.4869 3.53255, 18.36 3.79765, 18.36 4.10134, 18.36 4.30188, 18.4126 4.50206, 18.5176 4.70187, 18.6225 4.90205, 18.7722 5.09249, 18.9663 5.27283 Z M 19.2869 6.89446 C 18.9583 7.16425, 18.7149 7.45748, 18.5562 7.77488, 18.3978 8.09228, 18.3185 8.43565, 18.3185 8.80462, 18.3185 9.30128, 18.4584 9.69875, 18.7376 9.99667, 19.0168 10.295, 19.3724 10.4439, 19.8041 10.4436, 20.2319 10.4439, 20.5745 10.3267, 20.8321 10.0919, 21.0896 9.85745, 21.2184 9.57251, 21.2184 9.23744, 21.2184 8.9608, 21.1433 8.71265, 20.9926 8.49299, 20.7112 8.08542, 20.1428 7.5527, 19.2869 6.89446 Z" stroke="none" fill="#000000" />
			<path d="M 23.2793 6.75018 C 23.2793 5.85786, 23.4182 5.08961, 23.6955 4.44507, 23.9729 3.80089, 24.3412 3.32083, 24.8007 3.00487, 25.1574 2.75528, 25.526 2.63012, 25.9062 2.62976, 26.5244 2.63012, 27.0787 2.93598, 27.57 3.54733, 28.1842 4.30549, 28.4912 5.33271, 28.4912 6.62899, 28.4912 7.53719, 28.3566 8.30869, 28.0872 8.94349, 27.8178 9.57828, 27.474 10.0392, 27.056 10.3256, 26.638 10.6124, 26.2347 10.7552, 25.8466 10.7552, 25.078 10.7552, 24.4382 10.3152, 23.9271 9.43365, 23.4954 8.69137, 23.2793 7.79688, 23.2793 6.75018 Z M 24.444 6.89446 C 24.444 7.97217, 24.5807 8.85115, 24.854 9.53176, 25.0798 10.1052, 25.4167 10.392, 25.8643 10.3916, 26.0786 10.392, 26.3004 10.2989, 26.5301 10.1121, 26.7599 9.92562, 26.9341 9.61291, 27.0531 9.17396, 27.2353 8.51247, 27.3262 7.57975, 27.3262 6.37507, 27.3262 5.48275, 27.2313 4.7383, 27.0412 4.14174, 26.8984 3.69954, 26.7141 3.38611, 26.4883 3.20108, 26.326 3.07448, 26.1301 3.011, 25.9 3.01064, 25.631 3.011, 25.3911 3.12822, 25.1808 3.36267, 24.8959 3.68223, 24.7018 4.18466, 24.5987 4.86923, 24.4955 5.55416, 24.444 6.22936, 24.444 6.89446 Z" stroke="none" fill="#000000" />
			<path d="M 31.162 2.48902 C 31.6835 2.48939, 32.1251 2.66605, 32.4869 3.01937, 32.8487 3.37269, 33.0294 3.80072, 33.0294 4.30273, 33.0294 4.8018, 32.8476 5.22762, 32.484 5.58094, 32.1203 5.93426, 31.6794 6.11092, 31.162 6.11056, 30.6486 6.11092, 30.2098 5.93426, 29.8459 5.58094, 29.4822 5.22762, 29.3 4.8018, 29.3 4.30273, 29.3 3.80072, 29.4811 3.37269, 29.8429 3.01937, 30.2051 2.66605, 30.6445 2.48939, 31.162 2.48902 Z M 31.162 2.98367 C 30.7858 2.98404, 30.4664 3.11175, 30.2036 3.3668, 29.9408 3.62222, 29.8094 3.93211, 29.8094 4.29684, 29.8094 4.65826, 29.9408 4.96778, 30.2036 5.22468, 30.4664 5.48194, 30.7858 5.61039, 31.162 5.61002, 31.5337 5.61039, 31.852 5.48194, 32.117 5.22468, 32.382 4.96778, 32.5142 4.65826, 32.5142 4.29684, 32.5142 3.93211, 32.3828 3.62222, 32.12 3.3668, 31.8572 3.11175, 31.5381 2.98404, 31.162 2.98367 Z" stroke="none" fill="#000000" />
			<rect />
		</svg>
	</g>
	<path d="M 156.377 11.5285 L 154.557 26.383 C 141.132 104.726, 69.717 161.516, -11.5919 155.522, -97.9567 149.155, -162.779 74.364, -156.377 -11.5284, -149.975 -97.4209, -74.773 -161.889, 11.5918 -155.522, 93.4717 -149.486, 156.806 -81.6559, 156.806 -0.00034729" fill="none" stroke="#000000" stroke-width="1.80000007" stroke-linecap="round" stroke-linejoin="round" marker-start="url(#CustomMarker-07)" transform="matrix(0.416667 0 -0 0.416667 -276.085 250.006)" />
	<path d="M -81.32 -65.9128 L -46.7591 22.6067, 46.7591 22.6067" fill="none" stroke="#000000" stroke-width="1.20000005" stroke-linecap="round" stroke-linejoin="round" transform="matrix(0.416667 0 -0 0.416667 -258.759 339.321)" />
	<g transform="matrix(1 0 -0 1 -275.992 332.152)">
		<svg width="144.007935" height="87.0188828">
			<defs />
			<polyline points="-4.221 -1.2663 4.221 -1.2663" fill="none" stroke="#000000" stroke-width="0.4824" stroke-linecap="round" stroke-linejoin="round" transform="matrix(1 0 0 1 4.221 7.16946)" />
			<polyline points="-4.221 1.2663 4.221 1.2663" fill="none" stroke="#000000" stroke-width="0.4824" stroke-linecap="round" stroke-linejoin="round" transform="matrix(1 0 0 1 4.221 7.16946)" />
			<path d="M 12.1168 4.28024 C 12.3469 3.75364, 12.6369 3.3468, 12.9875 3.06005, 13.338 2.77367, 13.7748 2.63012, 14.2978 2.62976, 14.9438 2.63012, 15.439 2.83391, 15.7835 3.24148, 16.0453 3.54589, 16.1759 3.87087, 16.1759 4.21676, 16.1759 4.78663, 15.8076 5.37527, 15.0704 5.98265, 15.566 6.17165, 15.9403 6.44108, 16.1939 6.79094, 16.4475 7.14116, 16.5741 7.5527, 16.5741 8.02555, 16.5741 8.70291, 16.3522 9.28974, 15.9082 9.78568, 15.3301 10.4324, 14.4922 10.7552, 13.3947 10.7552, 12.8518 10.7552, 12.4825 10.6899, 12.2863 10.5593, 12.0901 10.4288, 11.992 10.2881, 11.992 10.1377, 11.992 10.0266, 12.0389 9.92851, 12.1319 9.84375, 12.225 9.75935, 12.3368 9.71679, 12.4674 9.71642, 12.5665 9.71679, 12.6675 9.7323, 12.7707 9.76259, 12.8381 9.78207, 12.9907 9.8524, 13.2284 9.97359, 13.4661 10.0948, 13.6305 10.1669, 13.7214 10.1896, 13.8679 10.2322, 14.0244 10.2535, 14.191 10.2531, 14.595 10.2535, 14.9467 10.1016, 15.2457 9.79758, 15.545 9.49389, 15.6944 9.13393, 15.6944 8.71806, 15.6944 8.41437, 15.6251 8.11825, 15.4863 7.82934, 15.3835 7.61438, 15.2706 7.45063, 15.1476 7.33882, 14.9773 7.18516, 14.7436 7.04594, 14.4464 6.92079, 14.1492 6.79599, 13.8462 6.73323, 13.5371 6.73287 L 13.3471 6.73287, 13.3471 6.55974 C 13.6601 6.52151, 13.9739 6.41223, 14.2888 6.23116, 14.604 6.05046, 14.8327 5.83297, 14.9755 5.57905, 15.1184 5.32513, 15.1894 5.04633, 15.1894 4.74191, 15.1894 4.34588, 15.0617 4.02596, 14.806 3.78142, 14.5506 3.53724, 14.2325 3.41496, 13.852 3.4146, 13.2381 3.41496, 12.7249 3.73417, 12.313 4.37257 Z" stroke="none" fill="#000000" />
			<path d="M 23.0798 2.62976 L 23.0798 2.84328 C 22.5568 2.89378, 22.1301 2.99477, 21.7993 3.14662, 21.4686 3.29883, 21.1418 3.53038, 20.8186 3.84201, 20.4958 4.15364, 20.2286 4.50098, 20.0165 4.88366, 19.8044 5.2667, 19.6273 5.72152, 19.4845 6.24812, 20.0551 5.8676, 20.6275 5.67716, 21.2021 5.6768, 21.7528 5.67716, 22.2304 5.89284, 22.6343 6.3235, 23.0383 6.75451, 23.2403 7.30852, 23.2403 7.98516, 23.2403 8.63943, 23.0365 9.236, 22.6282 9.77413, 22.1369 10.4284, 21.4874 10.7552, 20.6791 10.7552, 20.1283 10.7552, 19.6609 10.5785, 19.2764 10.2243, 18.524 9.53608, 18.1474 8.6434, 18.1474 7.54657, 18.1474 6.84685, 18.2921 6.18139, 18.5813 5.5502, 18.8706 4.91937, 19.2836 4.35959, 19.8203 3.87087, 20.357 3.3825, 20.8709 3.05356, 21.3622 2.88404, 21.8534 2.71488, 22.3111 2.63012, 22.7349 2.62976 Z M 19.3835 6.66939 C 19.3121 7.18913, 19.2764 7.6086, 19.2764 7.92745, 19.2764 8.29714, 19.3467 8.69822, 19.4874 9.13104, 19.628 9.56386, 19.8372 9.90723, 20.1142 10.1608, 20.3166 10.3418, 20.5622 10.4324, 20.8511 10.432, 21.1959 10.4324, 21.5043 10.2748, 21.7755 9.95916, 22.0468 9.64393, 22.1824 9.19344, 22.1824 8.60841, 22.1824 7.95089, 22.0479 7.38174, 21.7784 6.90059, 21.509 6.4198, 21.1267 6.17922, 20.6315 6.17886, 20.4811 6.17922, 20.3195 6.21024, 20.1471 6.27156, 19.9747 6.33324, 19.7204 6.46597, 19.3835 6.66939 Z" stroke="none" fill="#000000" />
			<path d="M 24.2314 6.75018 C 24.2314 5.85786, 24.3703 5.08961, 24.6477 4.44507, 24.925 3.80089, 25.2933 3.32083, 25.7528 3.00487, 26.1095 2.75528, 26.4781 2.63012, 26.8583 2.62976, 27.4765 2.63012, 28.0309 2.93598, 28.5221 3.54733, 29.1363 4.30549, 29.4433 5.33271, 29.4433 6.62899, 29.4433 7.53719, 29.3087 8.30869, 29.0393 8.94349, 28.7699 9.57828, 28.4262 10.0392, 28.0081 10.3256, 27.5901 10.6124, 27.1869 10.7552, 26.7988 10.7552, 26.0302 10.7552, 25.3903 10.3152, 24.8792 9.43365, 24.4475 8.69137, 24.2314 7.79688, 24.2314 6.75018 Z M 25.3961 6.89446 C 25.3961 7.97217, 25.5328 8.85115, 25.8062 9.53176, 26.032 10.1052, 26.3688 10.392, 26.8164 10.3916, 27.0307 10.392, 27.2525 10.2989, 27.4823 10.1121, 27.712 9.92562, 27.8862 9.61291, 28.0052 9.17396, 28.1874 8.51247, 28.2783 7.57975, 28.2783 6.37507, 28.2783 5.48275, 28.1834 4.7383, 27.9933 4.14174, 27.8505 3.69954, 27.6662 3.38611, 27.4404 3.20108, 27.2781 3.07448, 27.0823 3.011, 26.8521 3.01064, 26.5831 3.011, 26.3432 3.12822, 26.1329 3.36267, 25.848 3.68223, 25.654 4.18466, 25.5508 4.86923, 25.4477 5.55416, 25.3961 6.22936, 25.3961 6.89446 Z" stroke="none" fill="#000000" />
			<path d="M 32.1141 2.48902 C 32.6356 2.48939, 33.0773 2.66605, 33.439 3.01937, 33.8008 3.37269, 33.9815 3.80072, 33.9815 4.30273, 33.9815 4.8018, 33.7997 5.22762, 33.4361 5.58094, 33.0725 5.93426, 32.6316 6.11092, 32.1141 6.11056, 31.6007 6.11092, 31.162 5.93426, 30.798 5.58094, 30.4344 5.22762, 30.2522 4.8018, 30.2522 4.30273, 30.2522 3.80072, 30.4332 3.37269, 30.795 3.01937, 31.1572 2.66605, 31.5966 2.48939, 32.1141 2.48902 Z M 32.1141 2.98367 C 31.738 2.98404, 31.4185 3.11175, 31.1557 3.3668, 30.8929 3.62222, 30.7615 3.93211, 30.7615 4.29684, 30.7615 4.65826, 30.8929 4.96778, 31.1557 5.22468, 31.4185 5.48194, 31.738 5.61039, 32.1141 5.61002, 32.4858 5.61039, 32.8042 5.48194, 33.0692 5.22468, 33.3342 4.96778, 33.4663 4.65826, 33.4663 4.29684, 33.4663 3.93211, 33.3349 3.62222, 33.0721 3.3668, 32.8093 3.11175, 32.4902 2.98404, 32.1141 2.98367 Z" stroke="none" fill="#000000" />
			<rect />
		</svg>
	</g>
	<path d="M -270.058 0 L 270.058 0" fill="none" stroke="#000000" stroke-width="2.4000001" stroke-linecap="round" stroke-linejoin="round" transform="matrix(0.416667 0 0 0.416667 141.456 95.6633)" />
	<path d="M 0 -136.133 L 0 136.133" fill="none" stroke="#000000" stroke-width="2.4000001" stroke-linecap="round" stroke-linejoin="round" transform="matrix(0.416667 0 0 0.416667 141.456 72.7473)" />
	<path d="M 28.7773 0 L 28.7773 -28.7772, -1.25789e-006 -28.7772" fill="none" stroke="#000000" stroke-width="1.80000007" stroke-linecap="round" stroke-linejoin="round" transform="matrix(0.416667 0 -0 0.416667 141.456 95.6633)" />
	<path d="M 92.0873 0 L 0 0, 0 -92.087" fill="none" stroke="#000000" stroke-width="1.20000005" stroke-linecap="round" stroke-linejoin="round" stroke-dasharray="6.606, 2.994, 0.012, 3.588" transform="matrix(0.416667 0 -0 0.416667 141.456 95.6633)" />
	<path d="M -170.123 149.261 L -39.4198 22.6067, 39.4198 22.6067" fill="none" stroke="#000000" stroke-width="1.20000005" stroke-linecap="round" stroke-linejoin="round" transform="matrix(0.416667 0 -0 0.416667 224.007 24.7637)" />
	<g transform="matrix(1 0 -0 1 209.832 17.5942)">
		<svg width="125.970726" height="87.0188828">
			<defs />
			<polyline points="-4.221 -1.2663 4.221 -1.2663" fill="none" stroke="#000000" stroke-width="0.4824" stroke-linecap="round" stroke-linejoin="round" transform="matrix(1 0 0 1 4.221 7.16946)" />
			<polyline points="-4.221 1.2663 4.221 1.2663" fill="none" stroke="#000000" stroke-width="0.4824" stroke-linecap="round" stroke-linejoin="round" transform="matrix(1 0 0 1 4.221 7.16946)" />
			<path d="M 12.1518 10.7783 L 12.1518 10.5647 C 12.6669 10.5575, 13.1466 10.441, 13.5902 10.216, 14.0338 9.9909, 14.4627 9.59776, 14.8768 9.03582, 15.2908 8.47424, 15.579 7.85675, 15.7413 7.183, 15.1195 7.57182, 14.5568 7.76622, 14.0537 7.76586, 13.4871 7.76622, 13.0016 7.55378, 12.5976 7.12854, 12.1937 6.70366, 11.9913 6.13883, 11.9913 5.43442, 11.9913 4.74985, 12.1937 4.14029, 12.5976 3.60504, 13.0849 2.9551, 13.7208 2.63012, 14.5053 2.62976, 15.1667 2.63012, 15.7334 2.89558, 16.2048 3.42615, 16.7833 4.08439, 17.0726 4.89628, 17.0726 5.86146, 17.0726 6.73143, 16.8529 7.54224, 16.4129 8.29426, 15.9732 9.04664, 15.3612 9.67062, 14.5767 10.1666, 13.939 10.5748, 13.2436 10.7783, 12.4905 10.7783 Z M 15.8365 6.75595 C 15.9079 6.25605, 15.9433 5.85605, 15.9433 5.55561, 15.9433 5.18266, 15.878 4.77978, 15.7474 4.34696, 15.6169 3.91415, 15.4315 3.58232, 15.1916 3.35148, 14.9521 3.12065, 14.6795 3.00523, 14.3743 3.00487, 14.0219 3.00523, 13.7128 3.15924, 13.4474 3.4669, 13.1819 3.77492, 13.0492 4.23263, 13.0492 4.84002, 13.0492 5.65227, 13.2256 6.28707, 13.5779 6.74441, 13.8355 7.07552, 14.1525 7.24107, 14.5291 7.24071, 14.7116 7.24107, 14.9273 7.19887, 15.1768 7.11411, 15.4264 7.02971, 15.6465 6.91033, 15.8365 6.75595 Z" stroke="none" fill="#000000" />
			<path d="M 18.1154 6.75018 C 18.1154 5.85786, 18.2542 5.08961, 18.5316 4.44507, 18.8089 3.80089, 19.1772 3.32083, 19.6367 3.00487, 19.9934 2.75528, 20.362 2.63012, 20.7422 2.62976, 21.3604 2.63012, 21.9148 2.93598, 22.406 3.54733, 23.0203 4.30549, 23.3272 5.33271, 23.3272 6.62899, 23.3272 7.53719, 23.1927 8.30869, 22.9232 8.94349, 22.6538 9.57828, 22.3101 10.0392, 21.8921 10.3256, 21.474 10.6124, 21.0708 10.7552, 20.6827 10.7552, 19.9141 10.7552, 19.2742 10.3152, 18.7631 9.43365, 18.3314 8.69137, 18.1154 7.79688, 18.1154 6.75018 Z M 19.28 6.89446 C 19.28 7.97217, 19.4167 8.85115, 19.6901 9.53176, 19.9159 10.1052, 20.2528 10.392, 20.7004 10.3916, 20.9146 10.392, 21.1364 10.2989, 21.3662 10.1121, 21.5959 9.92562, 21.7701 9.61291, 21.8892 9.17396, 22.0713 8.51247, 22.1622 7.57975, 22.1622 6.37507, 22.1622 5.48275, 22.0673 4.7383, 21.8773 4.14174, 21.7344 3.69954, 21.5501 3.38611, 21.3243 3.20108, 21.162 3.07448, 20.9662 3.011, 20.7361 3.01064, 20.467 3.011, 20.2271 3.12822, 20.0169 3.36267, 19.7319 3.68223, 19.5379 4.18466, 19.4347 4.86923, 19.3316 5.55416, 19.28 6.22936, 19.28 6.89446 Z" stroke="none" fill="#000000" />
			<path d="M 25.998 2.48902 C 26.5195 2.48939, 26.9612 2.66605, 27.323 3.01937, 27.6847 3.37269, 27.8655 3.80072, 27.8655 4.30273, 27.8655 4.8018, 27.6836 5.22762, 27.32 5.58094, 26.9564 5.93426, 26.5155 6.11092, 25.998 6.11056, 25.4846 6.11092, 25.0459 5.93426, 24.6819 5.58094, 24.3183 5.22762, 24.1361 4.8018, 24.1361 4.30273, 24.1361 3.80072, 24.3172 3.37269, 24.679 3.01937, 25.0411 2.66605, 25.4805 2.48939, 25.998 2.48902 Z M 25.998 2.98367 C 25.6219 2.98404, 25.3024 3.11175, 25.0396 3.3668, 24.7768 3.62222, 24.6455 3.93211, 24.6455 4.29684, 24.6455 4.65826, 24.7768 4.96778, 25.0396 5.22468, 25.3024 5.48194, 25.6219 5.61039, 25.998 5.61002, 26.3697 5.61039, 26.6881 5.48194, 26.9531 5.22468, 27.2181 4.96778, 27.3502 4.65826, 27.3502 4.29684, 27.3502 3.93211, 27.2188 3.62222, 26.956 3.3668, 26.6932 3.11175, 26.3742 2.98404, 25.998 2.98367 Z" stroke="none" fill="#000000" />
			<rect />
		</svg>
	</g>
</svg>
