<?xml version="1.0" encoding="utf-8" standalone="no"?>
<!DOCTYPE svg PUBLIC "-//W3C//DTD SVG 1.1//EN"
  "http://www.w3.org/Graphics/SVG/1.1/DTD/svg11.dtd">
<svg xmlns:xlink="http://www.w3.org/1999/xlink" width="504pt" height="360pt" viewBox="0 0 504 360" xmlns="http://www.w3.org/2000/svg" version="1.1">
 <metadata>
  <rdf:RDF xmlns:dc="http://purl.org/dc/elements/1.1/" xmlns:cc="http://creativecommons.org/ns#" xmlns:rdf="http://www.w3.org/1999/02/22-rdf-syntax-ns#">
   <cc:Work>
    <dc:type rdf:resource="http://purl.org/dc/dcmitype/StillImage"/>
    <dc:date>2026-06-09T13:59:23.979893</dc:date>
    <dc:format>image/svg+xml</dc:format>
    <dc:creator>
     <cc:Agent>
      <dc:title>Matplotlib v3.10.8, https://matplotlib.org/</dc:title>
     </cc:Agent>
    </dc:creator>
   </cc:Work>
  </rdf:RDF>
 </metadata>
 <defs>
  <style type="text/css">*{stroke-linejoin: round; stroke-linecap: butt}</style>
 </defs>
 <g id="figure_1">
  <g id="patch_1">
   <path d="M 0 360 
L 504 360 
L 504 0 
L 0 0 
z
" style="fill: #ffffff"/>
  </g>
  <g id="axes_1">
   <g id="patch_2">
    <path d="M 45.11 315.16 
L 493.2 315.16 
L 493.2 27.18375 
L 45.11 27.18375 
z
" style="fill: #ffffff"/>
   </g>
   <g id="matplotlib.axis_1">
    <g id="xtick_1">
     <g id="line2d_1">
      <path d="M 65.477727 315.16 
L 65.477727 27.18375 
" clip-path="url(#pd103af89eb)" style="fill: none; stroke: #b0b0b0; stroke-opacity: 0.3; stroke-width: 0.8; stroke-linecap: square"/>
     </g>
     <g id="line2d_2">
      <defs>
       <path id="m2ec41be800" d="M 0 0 
L 0 3.5 
" style="stroke: #000000; stroke-width: 0.8"/>
      </defs>
      <g>
       <use xlink:href="#m2ec41be800" x="65.477727" y="315.16" style="stroke: #000000; stroke-width: 0.8"/>
      </g>
     </g>
     <g id="text_1">
      <!-- 0 -->
      <g transform="translate(62.545696 330.15375) scale(0.1 -0.1)">
       <defs>
        <path id="MicrosoftYaHei-30" d="M 284 2325 
Q 284 3606 709 4264 
Q 1134 4922 1941 4922 
Q 3478 4922 3478 2441 
Q 3478 1216 3045 567 
Q 2613 -81 1831 -81 
Q 1094 -81 689 534 
Q 284 1150 284 2325 
z
M 909 2353 
Q 909 425 1888 425 
Q 2850 425 2850 2384 
Q 2850 4413 1906 4413 
Q 909 4413 909 2353 
z
" transform="scale(0.015625)"/>
       </defs>
       <use xlink:href="#MicrosoftYaHei-30"/>
      </g>
     </g>
    </g>
    <g id="xtick_2">
     <g id="line2d_3">
      <path d="M 111.885207 315.16 
L 111.885207 27.18375 
" clip-path="url(#pd103af89eb)" style="fill: none; stroke: #b0b0b0; stroke-opacity: 0.3; stroke-width: 0.8; stroke-linecap: square"/>
     </g>
     <g id="line2d_4">
      <g>
       <use xlink:href="#m2ec41be800" x="111.885207" y="315.16" style="stroke: #000000; stroke-width: 0.8"/>
      </g>
     </g>
     <g id="text_2">
      <!-- 9 -->
      <g transform="translate(108.953176 330.15375) scale(0.1 -0.1)">
       <defs>
        <path id="MicrosoftYaHei-39" d="M 578 656 
Q 978 425 1441 425 
Q 2091 425 2448 937 
Q 2806 1450 2806 2394 
Q 2800 2388 2794 2394 
Q 2475 1788 1722 1788 
Q 1113 1788 713 2206 
Q 313 2625 313 3294 
Q 313 4006 750 4464 
Q 1188 4922 1884 4922 
Q 2606 4922 3012 4355 
Q 3419 3788 3419 2703 
Q 3419 1363 2894 641 
Q 2369 -81 1441 -81 
Q 931 -81 578 84 
L 578 656 
z
M 931 3372 
Q 931 2884 1181 2598 
Q 1431 2313 1872 2313 
Q 2253 2313 2512 2573 
Q 2772 2834 2772 3206 
Q 2772 3728 2514 4070 
Q 2256 4413 1834 4413 
Q 1444 4413 1187 4116 
Q 931 3819 931 3372 
z
" transform="scale(0.015625)"/>
       </defs>
       <use xlink:href="#MicrosoftYaHei-39"/>
      </g>
     </g>
    </g>
    <g id="xtick_3">
     <g id="line2d_5">
      <path d="M 163.449074 315.16 
L 163.449074 27.18375 
" clip-path="url(#pd103af89eb)" style="fill: none; stroke: #b0b0b0; stroke-opacity: 0.3; stroke-width: 0.8; stroke-linecap: square"/>
     </g>
     <g id="line2d_6">
      <g>
       <use xlink:href="#m2ec41be800" x="163.449074" y="315.16" style="stroke: #000000; stroke-width: 0.8"/>
      </g>
     </g>
     <g id="text_3">
      <!-- 19 -->
      <g transform="translate(157.585011 330.15375) scale(0.1 -0.1)">
       <defs>
        <path id="MicrosoftYaHei-31" d="M 1781 0 
L 1781 4141 
Q 1638 3997 1295 3819 
Q 953 3641 663 3569 
L 663 4169 
Q 1047 4275 1484 4508 
Q 1922 4741 2156 4947 
L 2388 4947 
L 2388 0 
L 1781 0 
z
" transform="scale(0.015625)"/>
       </defs>
       <use xlink:href="#MicrosoftYaHei-31"/>
       <use xlink:href="#MicrosoftYaHei-39" transform="translate(58.642578 0)"/>
      </g>
     </g>
    </g>
    <g id="xtick_4">
     <g id="line2d_7">
      <path d="M 215.01294 315.16 
L 215.01294 27.18375 
" clip-path="url(#pd103af89eb)" style="fill: none; stroke: #b0b0b0; stroke-opacity: 0.3; stroke-width: 0.8; stroke-linecap: square"/>
     </g>
     <g id="line2d_8">
      <g>
       <use xlink:href="#m2ec41be800" x="215.01294" y="315.16" style="stroke: #000000; stroke-width: 0.8"/>
      </g>
     </g>
     <g id="text_4">
      <!-- 29 -->
      <g transform="translate(209.148878 330.15375) scale(0.1 -0.1)">
       <defs>
        <path id="MicrosoftYaHei-32" d="M 2666 3572 
Q 2666 3963 2419 4186 
Q 2172 4409 1747 4409 
Q 1447 4409 1140 4256 
Q 834 4103 569 3819 
L 569 4413 
Q 806 4659 1107 4790 
Q 1409 4922 1816 4922 
Q 2472 4922 2872 4570 
Q 3272 4219 3272 3619 
Q 3272 3084 3026 2693 
Q 2781 2303 2188 1894 
Q 1581 1475 1376 1294 
Q 1172 1113 1090 947 
Q 1009 781 1009 544 
L 3416 544 
L 3416 0 
L 372 0 
L 372 241 
Q 372 659 486 951 
Q 600 1244 862 1520 
Q 1125 1797 1681 2184 
Q 2250 2584 2458 2886 
Q 2666 3188 2666 3572 
z
" transform="scale(0.015625)"/>
       </defs>
       <use xlink:href="#MicrosoftYaHei-32"/>
       <use xlink:href="#MicrosoftYaHei-39" transform="translate(58.642578 0)"/>
      </g>
     </g>
    </g>
    <g id="xtick_5">
     <g id="line2d_9">
      <path d="M 266.576807 315.16 
L 266.576807 27.18375 
" clip-path="url(#pd103af89eb)" style="fill: none; stroke: #b0b0b0; stroke-opacity: 0.3; stroke-width: 0.8; stroke-linecap: square"/>
     </g>
     <g id="line2d_10">
      <g>
       <use xlink:href="#m2ec41be800" x="266.576807" y="315.16" style="stroke: #000000; stroke-width: 0.8"/>
      </g>
     </g>
     <g id="text_5">
      <!-- 39 -->
      <g transform="translate(260.712744 330.15375) scale(0.1 -0.1)">
       <defs>
        <path id="MicrosoftYaHei-33" d="M 447 809 
Q 944 425 1569 425 
Q 2069 425 2361 670 
Q 2653 916 2653 1328 
Q 2653 2247 1338 2247 
L 934 2247 
L 934 2753 
L 1319 2753 
Q 2484 2753 2484 3616 
Q 2484 4413 1594 4413 
Q 1084 4413 634 4069 
L 634 4647 
Q 1109 4922 1744 4922 
Q 2363 4922 2738 4598 
Q 3113 4275 3113 3759 
Q 3113 2809 2144 2538 
L 2144 2525 
Q 2669 2469 2973 2155 
Q 3278 1841 3278 1372 
Q 3278 719 2808 319 
Q 2338 -81 1556 -81 
Q 869 -81 447 175 
L 447 809 
z
" transform="scale(0.015625)"/>
       </defs>
       <use xlink:href="#MicrosoftYaHei-33"/>
       <use xlink:href="#MicrosoftYaHei-39" transform="translate(58.642578 0)"/>
      </g>
     </g>
    </g>
    <g id="xtick_6">
     <g id="line2d_11">
      <path d="M 318.140673 315.16 
L 318.140673 27.18375 
" clip-path="url(#pd103af89eb)" style="fill: none; stroke: #b0b0b0; stroke-opacity: 0.3; stroke-width: 0.8; stroke-linecap: square"/>
     </g>
     <g id="line2d_12">
      <g>
       <use xlink:href="#m2ec41be800" x="318.140673" y="315.16" style="stroke: #000000; stroke-width: 0.8"/>
      </g>
     </g>
     <g id="text_6">
      <!-- 49 -->
      <g transform="translate(312.276611 330.15375) scale(0.1 -0.1)">
       <defs>
        <path id="MicrosoftYaHei-34" d="M 2906 4841 
L 2906 1644 
L 3631 1644 
L 3631 1138 
L 2906 1138 
L 2906 0 
L 2313 0 
L 2313 1138 
L 53 1138 
L 53 1616 
Q 656 2294 1265 3178 
Q 1875 4063 2272 4841 
L 2906 4841 
z
M 741 1644 
L 2313 1644 
L 2313 3950 
Q 1988 3366 1616 2817 
Q 1244 2269 741 1644 
z
" transform="scale(0.015625)"/>
       </defs>
       <use xlink:href="#MicrosoftYaHei-34"/>
       <use xlink:href="#MicrosoftYaHei-39" transform="translate(58.642578 0)"/>
      </g>
     </g>
    </g>
    <g id="xtick_7">
     <g id="line2d_13">
      <path d="M 369.70454 315.16 
L 369.70454 27.18375 
" clip-path="url(#pd103af89eb)" style="fill: none; stroke: #b0b0b0; stroke-opacity: 0.3; stroke-width: 0.8; stroke-linecap: square"/>
     </g>
     <g id="line2d_14">
      <g>
       <use xlink:href="#m2ec41be800" x="369.70454" y="315.16" style="stroke: #000000; stroke-width: 0.8"/>
      </g>
     </g>
     <g id="text_7">
      <!-- 59 -->
      <g transform="translate(363.840477 330.15375) scale(0.1 -0.1)">
       <defs>
        <path id="MicrosoftYaHei-35" d="M 3294 1494 
Q 3294 784 2823 350 
Q 2353 -84 1559 -84 
Q 878 -84 544 119 
L 544 744 
Q 1034 425 1544 425 
Q 2050 425 2361 704 
Q 2672 984 2672 1447 
Q 2672 1909 2348 2167 
Q 2025 2425 1434 2425 
Q 978 2425 613 2384 
L 791 4841 
L 3053 4841 
L 3053 4303 
L 1306 4303 
L 1206 2931 
L 1647 2950 
Q 2416 2950 2855 2567 
Q 3294 2184 3294 1494 
z
" transform="scale(0.015625)"/>
       </defs>
       <use xlink:href="#MicrosoftYaHei-35"/>
       <use xlink:href="#MicrosoftYaHei-39" transform="translate(58.642578 0)"/>
      </g>
     </g>
    </g>
    <g id="xtick_8">
     <g id="line2d_15">
      <path d="M 421.268406 315.16 
L 421.268406 27.18375 
" clip-path="url(#pd103af89eb)" style="fill: none; stroke: #b0b0b0; stroke-opacity: 0.3; stroke-width: 0.8; stroke-linecap: square"/>
     </g>
     <g id="line2d_16">
      <g>
       <use xlink:href="#m2ec41be800" x="421.268406" y="315.16" style="stroke: #000000; stroke-width: 0.8"/>
      </g>
     </g>
     <g id="text_8">
      <!-- 69 -->
      <g transform="translate(415.404344 330.15375) scale(0.1 -0.1)">
       <defs>
        <path id="MicrosoftYaHei-36" d="M 3181 4219 
Q 2803 4413 2391 4413 
Q 1763 4413 1381 3866 
Q 1000 3319 994 2372 
L 1009 2372 
Q 1353 3038 2106 3038 
Q 2734 3038 3109 2628 
Q 3484 2219 3484 1541 
Q 3484 831 3051 375 
Q 2619 -81 1947 -81 
Q 1209 -81 789 495 
Q 369 1072 369 2131 
Q 369 3413 920 4167 
Q 1472 4922 2372 4922 
Q 2888 4922 3181 4781 
L 3181 4219 
z
M 1031 1584 
Q 1031 1106 1286 765 
Q 1541 425 1963 425 
Q 2363 425 2613 719 
Q 2863 1013 2863 1475 
Q 2863 1975 2627 2253 
Q 2391 2531 1956 2531 
Q 1544 2531 1287 2250 
Q 1031 1969 1031 1584 
z
" transform="scale(0.015625)"/>
       </defs>
       <use xlink:href="#MicrosoftYaHei-36"/>
       <use xlink:href="#MicrosoftYaHei-39" transform="translate(58.642578 0)"/>
      </g>
     </g>
    </g>
    <g id="xtick_9">
     <g id="line2d_17">
      <path d="M 472.832273 315.16 
L 472.832273 27.18375 
" clip-path="url(#pd103af89eb)" style="fill: none; stroke: #b0b0b0; stroke-opacity: 0.3; stroke-width: 0.8; stroke-linecap: square"/>
     </g>
     <g id="line2d_18">
      <g>
       <use xlink:href="#m2ec41be800" x="472.832273" y="315.16" style="stroke: #000000; stroke-width: 0.8"/>
      </g>
     </g>
     <g id="text_9">
      <!-- 79 -->
      <g transform="translate(466.96821 330.15375) scale(0.1 -0.1)">
       <defs>
        <path id="MicrosoftYaHei-37" d="M 3422 4463 
Q 2659 3131 2223 1998 
Q 1788 866 1684 0 
L 1047 0 
Q 1163 853 1594 1947 
Q 2025 3041 2747 4300 
L 347 4300 
L 347 4841 
L 3422 4841 
L 3422 4463 
z
" transform="scale(0.015625)"/>
       </defs>
       <use xlink:href="#MicrosoftYaHei-37"/>
       <use xlink:href="#MicrosoftYaHei-39" transform="translate(58.642578 0)"/>
      </g>
     </g>
    </g>
    <g id="text_10">
     <!-- 分数 (上组界) -->
     <g transform="translate(239.334687 344.633438) scale(0.1 -0.1)">
      <defs>
       <path id="MicrosoftYaHei-5206" d="M 900 2559 
L 5056 2559 
Q 5025 1497 4963 484 
Q 4888 -684 3856 -678 
Q 3350 -684 2788 -647 
Q 2750 -384 2700 -116 
Q 3181 -184 3775 -191 
Q 4400 -203 4463 541 
Q 4513 1216 4538 2097 
L 2616 2097 
Q 2541 1053 2181 416 
Q 1706 -422 588 -878 
Q 425 -666 231 -459 
Q 1269 -72 1725 666 
Q 2053 1225 2103 2097 
L 900 2097 
L 900 2559 
z
M 3488 5159 
L 3938 5353 
Q 4625 3678 6350 2847 
Q 6069 2553 5944 2372 
Q 4225 3366 3488 5159 
z
M 50 2766 
Q 1338 3678 2250 5253 
L 2694 5009 
Q 1744 3347 413 2341 
Q 281 2534 50 2766 
z
" transform="scale(0.015625)"/>
       <path id="MicrosoftYaHei-6570" d="M 4175 5303 
L 4675 5228 
Q 4544 4622 4369 4097 
L 6281 4097 
L 6281 3672 
L 5888 3672 
Q 5731 1834 5088 753 
Q 5594 66 6375 -372 
Q 6175 -647 6038 -866 
Q 5275 -372 4769 309 
Q 4194 -403 3400 -928 
Q 3263 -747 3044 -534 
Q 3919 41 4463 772 
Q 3956 1647 3794 2791 
Q 3663 2559 3519 2359 
Q 3394 2541 3206 2759 
Q 3931 3803 4175 5303 
z
M 150 1697 
L 1100 1697 
Q 1238 1934 1369 2184 
L 1819 2041 
Q 1719 1866 1619 1697 
L 3150 1697 
L 3150 1291 
Q 2913 678 2431 216 
Q 2775 53 3131 -109 
L 2856 -541 
Q 2469 -322 2050 -103 
Q 1344 -609 269 -903 
Q 169 -703 56 -466 
Q 969 -259 1600 128 
Q 1063 403 475 691 
Q 675 978 863 1284 
L 150 1284 
L 150 1697 
z
M 219 3847 
L 1656 3847 
L 1656 5247 
L 2119 5247 
L 2119 3847 
L 3319 3847 
L 3319 3434 
L 2119 3434 
L 2119 3053 
L 2306 3266 
Q 2888 2841 3281 2516 
L 2981 2166 
Q 2638 2491 2119 2897 
L 2119 2184 
L 1656 2184 
L 1656 3059 
Q 1088 2466 331 2016 
Q 213 2197 63 2397 
Q 850 2822 1506 3434 
L 219 3434 
L 219 3847 
z
M 5388 3672 
L 4219 3672 
Q 4188 3591 4150 3516 
Q 4263 2191 4775 1247 
Q 5275 2159 5388 3672 
z
M 1088 834 
Q 1531 634 2000 416 
Q 2431 784 2675 1284 
L 1375 1284 
Q 1231 1053 1088 834 
z
M 3038 5091 
L 3425 4834 
Q 3081 4384 2738 4003 
Q 2594 4128 2400 4266 
Q 2725 4647 3038 5091 
z
M 381 4816 
L 738 5059 
Q 1019 4716 1319 4322 
L 931 4047 
Q 656 4453 381 4816 
z
" transform="scale(0.015625)"/>
       <path id="MicrosoftYaHei-20" transform="scale(0.015625)"/>
       <path id="MicrosoftYaHei-28" d="M 1531 -1100 
Q 478 100 478 1847 
Q 478 3594 1531 4841 
L 2072 4841 
Q 1016 3544 1016 1853 
Q 1016 166 2066 -1100 
L 1531 -1100 
z
" transform="scale(0.015625)"/>
       <path id="MicrosoftYaHei-4e0a" d="M 163 47 
L 2613 47 
L 2613 5209 
L 3181 5209 
L 3181 3328 
L 5750 3328 
L 5750 2828 
L 3181 2828 
L 3181 47 
L 6244 47 
L 6244 -453 
L 163 -453 
L 163 47 
z
" transform="scale(0.015625)"/>
       <path id="MicrosoftYaHei-7ec4" d="M 1994 -516 
L 1994 -66 
L 2738 -66 
L 2738 4941 
L 5763 4941 
L 5763 -66 
L 6313 -66 
L 6313 -516 
L 1994 -516 
z
M 969 1703 
Q 1606 1784 2300 1872 
Q 2275 1603 2256 1447 
Q 1331 1328 400 1191 
L 300 1647 
Q 697 1956 1284 2941 
Q 597 2897 256 2866 
L 131 3278 
Q 619 3866 1200 5291 
L 1706 5116 
Q 1163 4091 681 3316 
Q 1197 3319 1506 3328 
Q 1756 3775 2038 4334 
L 2519 4122 
Q 1806 2859 969 1703 
z
M 5288 4491 
L 3213 4491 
L 3213 3259 
L 5288 3259 
L 5288 4491 
z
M 3213 -66 
L 5288 -66 
L 5288 1166 
L 3213 1166 
L 3213 -66 
z
M 3213 1597 
L 5288 1597 
L 5288 2828 
L 3213 2828 
L 3213 1597 
z
M 181 291 
Q 1088 459 2356 741 
Q 2331 453 2331 266 
Q 1031 -3 319 -184 
L 181 291 
z
" transform="scale(0.015625)"/>
       <path id="MicrosoftYaHei-754c" d="M 5656 5028 
L 5656 2041 
L 5181 2041 
L 5181 2266 
L 3913 2266 
Q 4772 1494 6319 1147 
Q 6113 866 5988 666 
Q 5213 916 4588 1281 
L 4588 -797 
L 4088 -797 
L 4088 1391 
L 4409 1391 
Q 3813 1769 3356 2266 
L 3113 2266 
Q 2619 1809 1994 1416 
L 2350 1416 
Q 2350 472 2044 22 
Q 1750 -447 888 -859 
Q 744 -666 525 -453 
Q 1331 -97 1606 284 
Q 1841 591 1856 1328 
Q 1206 934 425 603 
Q 306 778 94 1009 
Q 1588 1553 2466 2266 
L 1225 2266 
L 1225 2041 
L 750 2041 
L 750 5028 
L 5656 5028 
z
M 3438 2678 
L 5181 2678 
L 5181 3441 
L 3438 3441 
L 3438 2678 
z
M 5181 4616 
L 3438 4616 
L 3438 3853 
L 5181 3853 
L 5181 4616 
z
M 1225 3853 
L 2963 3853 
L 2963 4616 
L 1225 4616 
L 1225 3853 
z
M 1225 2678 
L 2963 2678 
L 2963 3441 
L 1225 3441 
L 1225 2678 
z
" transform="scale(0.015625)"/>
       <path id="MicrosoftYaHei-29" d="M 78 -1100 
Q 1131 163 1131 1853 
Q 1131 3547 72 4841 
L 616 4841 
Q 1672 3603 1672 1847 
Q 1672 91 616 -1100 
L 78 -1100 
z
" transform="scale(0.015625)"/>
      </defs>
      <use xlink:href="#MicrosoftYaHei-5206"/>
      <use xlink:href="#MicrosoftYaHei-6570" transform="translate(100 0)"/>
      <use xlink:href="#MicrosoftYaHei-20" transform="translate(200 0)"/>
      <use xlink:href="#MicrosoftYaHei-28" transform="translate(229.589844 0)"/>
      <use xlink:href="#MicrosoftYaHei-4e0a" transform="translate(262.988281 0)"/>
      <use xlink:href="#MicrosoftYaHei-7ec4" transform="translate(362.988281 0)"/>
      <use xlink:href="#MicrosoftYaHei-754c" transform="translate(462.988281 0)"/>
      <use xlink:href="#MicrosoftYaHei-29" transform="translate(562.988281 0)"/>
     </g>
    </g>
   </g>
   <g id="matplotlib.axis_2">
    <g id="ytick_1">
     <g id="line2d_19">
      <path d="M 45.11 302.07017 
L 493.2 302.07017 
" clip-path="url(#pd103af89eb)" style="fill: none; stroke: #b0b0b0; stroke-opacity: 0.3; stroke-width: 0.8; stroke-linecap: square"/>
     </g>
     <g id="line2d_20">
      <defs>
       <path id="m0c9bae6ae3" d="M 0 0 
L -3.5 0 
" style="stroke: #000000; stroke-width: 0.8"/>
      </defs>
      <g>
       <use xlink:href="#m0c9bae6ae3" x="45.11" y="302.07017" style="stroke: #000000; stroke-width: 0.8"/>
      </g>
     </g>
     <g id="text_11">
      <!-- 0 -->
      <g transform="translate(32.245938 306.067045) scale(0.1 -0.1)">
       <use xlink:href="#MicrosoftYaHei-30"/>
      </g>
     </g>
    </g>
    <g id="ytick_2">
     <g id="line2d_21">
      <path d="M 45.11 249.710852 
L 493.2 249.710852 
" clip-path="url(#pd103af89eb)" style="fill: none; stroke: #b0b0b0; stroke-opacity: 0.3; stroke-width: 0.8; stroke-linecap: square"/>
     </g>
     <g id="line2d_22">
      <g>
       <use xlink:href="#m0c9bae6ae3" x="45.11" y="249.710852" style="stroke: #000000; stroke-width: 0.8"/>
      </g>
     </g>
     <g id="text_12">
      <!-- 10 -->
      <g transform="translate(26.381875 253.707727) scale(0.1 -0.1)">
       <use xlink:href="#MicrosoftYaHei-31"/>
       <use xlink:href="#MicrosoftYaHei-30" transform="translate(58.642578 0)"/>
      </g>
     </g>
    </g>
    <g id="ytick_3">
     <g id="line2d_23">
      <path d="M 45.11 197.351534 
L 493.2 197.351534 
" clip-path="url(#pd103af89eb)" style="fill: none; stroke: #b0b0b0; stroke-opacity: 0.3; stroke-width: 0.8; stroke-linecap: square"/>
     </g>
     <g id="line2d_24">
      <g>
       <use xlink:href="#m0c9bae6ae3" x="45.11" y="197.351534" style="stroke: #000000; stroke-width: 0.8"/>
      </g>
     </g>
     <g id="text_13">
      <!-- 20 -->
      <g transform="translate(26.381875 201.348409) scale(0.1 -0.1)">
       <use xlink:href="#MicrosoftYaHei-32"/>
       <use xlink:href="#MicrosoftYaHei-30" transform="translate(58.642578 0)"/>
      </g>
     </g>
    </g>
    <g id="ytick_4">
     <g id="line2d_25">
      <path d="M 45.11 144.992216 
L 493.2 144.992216 
" clip-path="url(#pd103af89eb)" style="fill: none; stroke: #b0b0b0; stroke-opacity: 0.3; stroke-width: 0.8; stroke-linecap: square"/>
     </g>
     <g id="line2d_26">
      <g>
       <use xlink:href="#m0c9bae6ae3" x="45.11" y="144.992216" style="stroke: #000000; stroke-width: 0.8"/>
      </g>
     </g>
     <g id="text_14">
      <!-- 30 -->
      <g transform="translate(26.381875 148.989091) scale(0.1 -0.1)">
       <use xlink:href="#MicrosoftYaHei-33"/>
       <use xlink:href="#MicrosoftYaHei-30" transform="translate(58.642578 0)"/>
      </g>
     </g>
    </g>
    <g id="ytick_5">
     <g id="line2d_27">
      <path d="M 45.11 92.632898 
L 493.2 92.632898 
" clip-path="url(#pd103af89eb)" style="fill: none; stroke: #b0b0b0; stroke-opacity: 0.3; stroke-width: 0.8; stroke-linecap: square"/>
     </g>
     <g id="line2d_28">
      <g>
       <use xlink:href="#m0c9bae6ae3" x="45.11" y="92.632898" style="stroke: #000000; stroke-width: 0.8"/>
      </g>
     </g>
     <g id="text_15">
      <!-- 40 -->
      <g transform="translate(26.381875 96.629773) scale(0.1 -0.1)">
       <use xlink:href="#MicrosoftYaHei-34"/>
       <use xlink:href="#MicrosoftYaHei-30" transform="translate(58.642578 0)"/>
      </g>
     </g>
    </g>
    <g id="ytick_6">
     <g id="line2d_29">
      <path d="M 45.11 40.27358 
L 493.2 40.27358 
" clip-path="url(#pd103af89eb)" style="fill: none; stroke: #b0b0b0; stroke-opacity: 0.3; stroke-width: 0.8; stroke-linecap: square"/>
     </g>
     <g id="line2d_30">
      <g>
       <use xlink:href="#m0c9bae6ae3" x="45.11" y="40.27358" style="stroke: #000000; stroke-width: 0.8"/>
      </g>
     </g>
     <g id="text_16">
      <!-- 50 -->
      <g transform="translate(26.381875 44.270455) scale(0.1 -0.1)">
       <use xlink:href="#MicrosoftYaHei-35"/>
       <use xlink:href="#MicrosoftYaHei-30" transform="translate(58.642578 0)"/>
      </g>
     </g>
    </g>
    <g id="text_17">
     <!-- 累积频数 -->
     <g transform="translate(19.895938 191.171875) rotate(-90) scale(0.1 -0.1)">
      <defs>
       <path id="MicrosoftYaHei-7d2f" d="M 4550 1991 
Q 5425 1278 5944 772 
L 5600 422 
Q 5356 675 5097 922 
Q 4334 891 3556 856 
L 3556 22 
Q 3556 -753 2775 -753 
Q 2375 -753 1881 -747 
Q 1844 -497 1788 -228 
Q 2269 -272 2650 -272 
Q 3069 -272 3069 184 
L 3069 834 
Q 2231 794 1375 753 
Q 1100 741 844 703 
L 675 1178 
Q 1056 1222 1531 1403 
Q 2172 1650 2916 1984 
Q 2138 1959 1531 1922 
Q 1231 1903 1081 1884 
L 919 2297 
Q 1231 2359 1550 2503 
Q 1969 2691 2378 2909 
L 1206 2909 
L 1206 2728 
L 731 2728 
L 731 5103 
L 5675 5103 
L 5675 2728 
L 5200 2728 
L 5200 2909 
L 3125 2909 
Q 2434 2559 1763 2272 
Q 2581 2294 3669 2334 
Q 4100 2538 4563 2772 
L 4888 2434 
Q 3394 1728 1825 1147 
Q 3403 1216 4684 1297 
Q 4456 1500 4219 1697 
L 4550 1991 
z
M 3431 3272 
L 5200 3272 
L 5200 3841 
L 3431 3841 
L 3431 3272 
z
M 1206 3272 
L 2969 3272 
L 2969 3841 
L 1206 3841 
L 1206 3272 
z
M 5200 4741 
L 3431 4741 
L 3431 4178 
L 5200 4178 
L 5200 4741 
z
M 1206 4178 
L 2969 4178 
L 2969 4741 
L 1206 4741 
L 1206 4178 
z
M 1894 572 
L 2175 184 
Q 1263 -272 381 -616 
Q 288 -422 163 -197 
Q 1094 166 1894 572 
z
M 4431 547 
Q 5363 234 6219 -147 
L 6025 -572 
Q 5188 -191 4219 134 
L 4431 547 
z
" transform="scale(0.015625)"/>
       <path id="MicrosoftYaHei-79ef" d="M 2813 4784 
L 5975 4784 
L 5975 1528 
L 5500 1528 
L 5500 1828 
L 3288 1828 
L 3288 1528 
L 2813 1528 
L 2813 4784 
z
M 88 853 
Q 669 1728 1056 2947 
L 119 2947 
L 119 3384 
L 1119 3384 
L 1119 4378 
Q 713 4347 244 4316 
Q 213 4541 150 4772 
Q 1425 4841 2375 4978 
L 2488 4503 
Q 2106 4459 1581 4416 
L 1581 3384 
L 2513 3384 
L 2513 2947 
L 1581 2947 
L 1581 2066 
L 1831 2297 
Q 2213 1922 2644 1441 
L 2288 1128 
Q 1950 1541 1581 1934 
L 1581 -853 
L 1119 -853 
L 1119 1928 
Q 781 997 306 316 
Q 206 591 88 853 
z
M 5500 4359 
L 3288 4359 
L 3288 2253 
L 5500 2253 
L 5500 4359 
z
M 3475 1128 
L 3888 834 
Q 3175 -66 2519 -759 
Q 2369 -597 2163 -416 
Q 2925 353 3475 1128 
z
M 4775 828 
L 5163 1097 
Q 5738 441 6356 -372 
L 5919 -703 
Q 5369 109 4775 828 
z
" transform="scale(0.015625)"/>
       <path id="MicrosoftYaHei-9891" d="M 3200 3716 
L 4113 3716 
L 4269 4522 
L 2938 4522 
L 2938 4947 
L 6294 4947 
L 6294 4522 
L 4788 4522 
L 4600 3716 
L 6019 3716 
L 6019 478 
L 5550 478 
L 5550 3291 
L 3669 3291 
L 3669 478 
L 3200 478 
L 3200 3716 
z
M 94 3034 
L 525 3034 
L 525 4691 
L 963 4691 
L 963 3034 
L 1600 3034 
L 1600 5272 
L 2050 5272 
L 2050 4291 
L 2925 4291 
L 2925 3878 
L 2050 3878 
L 2050 3034 
L 3006 3034 
L 3006 2609 
L 94 2609 
L 94 3034 
z
M 4356 2884 
L 4825 2884 
L 4825 1934 
Q 4825 1216 4650 716 
Q 5619 128 6375 -403 
L 6075 -841 
Q 5306 -234 4450 303 
Q 4413 241 4369 184 
Q 3913 -447 2763 -884 
Q 2625 -691 2444 -478 
Q 3525 -72 3944 447 
Q 4356 947 4356 1966 
L 4356 2884 
z
M 1550 2459 
L 2000 2459 
L 2000 853 
Q 2394 1309 2663 1866 
L 3100 1609 
Q 2206 -47 394 -909 
Q 275 -741 69 -503 
Q 1125 -47 1819 659 
L 1550 659 
L 1550 2459 
z
M 38 578 
Q 381 1191 669 2084 
L 1113 1947 
Q 806 1028 456 366 
Q 269 472 38 578 
z
" transform="scale(0.015625)"/>
      </defs>
      <use xlink:href="#MicrosoftYaHei-7d2f"/>
      <use xlink:href="#MicrosoftYaHei-79ef" transform="translate(100 0)"/>
      <use xlink:href="#MicrosoftYaHei-9891" transform="translate(200 0)"/>
      <use xlink:href="#MicrosoftYaHei-6570" transform="translate(300 0)"/>
     </g>
    </g>
   </g>
   <g id="line2d_31">
    <path d="M 65.477727 302.07017 
L 111.885207 291.598307 
L 163.449074 265.418648 
L 215.01294 223.531193 
L 266.576807 160.700011 
L 318.140673 108.340693 
L 369.70454 71.68917 
L 421.268406 50.745443 
L 472.832273 40.27358 
" clip-path="url(#pd103af89eb)" style="fill: none; stroke: #006400; stroke-width: 1.5; stroke-linecap: square"/>
    <defs>
     <path id="md07ab75ba2" d="M 0 3 
C 0.795609 3 1.55874 2.683901 2.12132 2.12132 
C 2.683901 1.55874 3 0.795609 3 0 
C 3 -0.795609 2.683901 -1.55874 2.12132 -2.12132 
C 1.55874 -2.683901 0.795609 -3 0 -3 
C -0.795609 -3 -1.55874 -2.683901 -2.12132 -2.12132 
C -2.683901 -1.55874 -3 -0.795609 -3 0 
C -3 0.795609 -2.683901 1.55874 -2.12132 2.12132 
C -1.55874 2.683901 -0.795609 3 0 3 
z
" style="stroke: #006400"/>
    </defs>
    <g clip-path="url(#pd103af89eb)">
     <use xlink:href="#md07ab75ba2" x="65.477727" y="302.07017" style="fill: #006400; stroke: #006400"/>
     <use xlink:href="#md07ab75ba2" x="111.885207" y="291.598307" style="fill: #006400; stroke: #006400"/>
     <use xlink:href="#md07ab75ba2" x="163.449074" y="265.418648" style="fill: #006400; stroke: #006400"/>
     <use xlink:href="#md07ab75ba2" x="215.01294" y="223.531193" style="fill: #006400; stroke: #006400"/>
     <use xlink:href="#md07ab75ba2" x="266.576807" y="160.700011" style="fill: #006400; stroke: #006400"/>
     <use xlink:href="#md07ab75ba2" x="318.140673" y="108.340693" style="fill: #006400; stroke: #006400"/>
     <use xlink:href="#md07ab75ba2" x="369.70454" y="71.68917" style="fill: #006400; stroke: #006400"/>
     <use xlink:href="#md07ab75ba2" x="421.268406" y="50.745443" style="fill: #006400; stroke: #006400"/>
     <use xlink:href="#md07ab75ba2" x="472.832273" y="40.27358" style="fill: #006400; stroke: #006400"/>
    </g>
   </g>
   <g id="line2d_32">
    <path d="M 45.11 171.171875 
L 493.2 171.171875 
" clip-path="url(#pd103af89eb)" style="fill: none; stroke-dasharray: 3.7,1.6; stroke-dashoffset: 0; stroke: #ff0000"/>
   </g>
   <g id="patch_3">
    <path d="M 45.11 315.16 
L 45.11 27.18375 
" style="fill: none; stroke: #000000; stroke-width: 0.8; stroke-linejoin: miter; stroke-linecap: square"/>
   </g>
   <g id="patch_4">
    <path d="M 493.2 315.16 
L 493.2 27.18375 
" style="fill: none; stroke: #000000; stroke-width: 0.8; stroke-linejoin: miter; stroke-linecap: square"/>
   </g>
   <g id="patch_5">
    <path d="M 45.11 315.16 
L 493.2 315.16 
" style="fill: none; stroke: #000000; stroke-width: 0.8; stroke-linejoin: miter; stroke-linecap: square"/>
   </g>
   <g id="patch_6">
    <path d="M 45.11 27.18375 
L 493.2 27.18375 
" style="fill: none; stroke: #000000; stroke-width: 0.8; stroke-linejoin: miter; stroke-linecap: square"/>
   </g>
   <g id="text_18">
    <!-- 中位数位置 (CF=25) -->
    <g style="fill: #ff0000" transform="translate(75.790501 160.700011) scale(0.09 -0.09)">
     <defs>
      <path id="MicrosoftYaHei-4e2d" d="M 525 3972 
L 2931 3972 
L 2931 5334 
L 3469 5334 
L 3469 3972 
L 5900 3972 
L 5900 1122 
L 5388 1122 
L 5388 1459 
L 3469 1459 
L 3469 -866 
L 2931 -866 
L 2931 1459 
L 1038 1459 
L 1038 1122 
L 525 1122 
L 525 3972 
z
M 5388 3509 
L 3469 3509 
L 3469 1922 
L 5388 1922 
L 5388 3509 
z
M 1038 1922 
L 2931 1922 
L 2931 3509 
L 1038 3509 
L 1038 1922 
z
" transform="scale(0.015625)"/>
      <path id="MicrosoftYaHei-4f4d" d="M 1788 -59 
L 4228 -59 
Q 4678 1144 5269 3372 
L 5831 3203 
Q 5453 2044 4756 -59 
L 6319 -59 
L 6319 -522 
L 1788 -522 
L 1788 -59 
z
M 81 2291 
Q 975 3641 1431 5322 
L 1963 5191 
Q 1703 4397 1406 3709 
L 1406 -853 
L 938 -853 
L 938 2731 
Q 644 2181 319 1716 
Q 231 1953 81 2291 
z
M 1919 4191 
L 4122 4191 
Q 3844 4659 3506 5059 
L 3931 5353 
Q 4206 5034 4613 4497 
L 4150 4191 
L 6206 4191 
L 6206 3728 
L 1919 3728 
L 1919 4191 
z
M 2769 3309 
Q 3181 2184 3669 584 
L 3150 434 
Q 2725 1966 2294 3147 
L 2769 3309 
z
" transform="scale(0.015625)"/>
      <path id="MicrosoftYaHei-7f6e" d="M 94 -284 
L 1025 -284 
L 1025 2609 
L 2938 2609 
L 2938 3016 
L 244 3016 
L 244 3366 
L 2938 3366 
L 2938 3697 
L 3388 3697 
L 3388 3366 
L 6150 3366 
L 6150 3016 
L 3388 3016 
L 3388 2609 
L 5431 2609 
L 5431 -284 
L 6294 -284 
L 6294 -647 
L 94 -647 
L 94 -284 
z
M 638 5034 
L 5756 5034 
L 5756 3641 
L 5331 3641 
L 5331 3784 
L 1069 3784 
L 1069 3641 
L 638 3641 
L 638 5034 
z
M 1463 -284 
L 4994 -284 
L 4994 116 
L 1463 116 
L 1463 -284 
z
M 1463 441 
L 4994 441 
L 4994 834 
L 1463 834 
L 1463 441 
z
M 1463 1159 
L 4994 1159 
L 4994 1553 
L 1463 1553 
L 1463 1159 
z
M 4994 2272 
L 1463 2272 
L 1463 1878 
L 4994 1878 
L 4994 2272 
z
M 5331 4697 
L 4181 4697 
L 4181 4122 
L 5331 4122 
L 5331 4697 
z
M 2625 4122 
L 3769 4122 
L 3769 4697 
L 2625 4697 
L 2625 4122 
z
M 1069 4122 
L 2213 4122 
L 2213 4697 
L 1069 4697 
L 1069 4122 
z
" transform="scale(0.015625)"/>
      <path id="MicrosoftYaHei-43" d="M 3938 200 
Q 3403 -81 2597 -81 
Q 1556 -81 934 580 
Q 313 1241 313 2328 
Q 313 3497 1013 4209 
Q 1713 4922 2791 4922 
Q 3484 4922 3938 4725 
L 3938 4072 
Q 3419 4359 2797 4359 
Q 1988 4359 1478 3820 
Q 969 3281 969 2366 
Q 969 1497 1444 986 
Q 1919 475 2688 475 
Q 3406 475 3938 800 
L 3938 200 
z
" transform="scale(0.015625)"/>
      <path id="MicrosoftYaHei-46" d="M 3119 4284 
L 1250 4284 
L 1250 2666 
L 2981 2666 
L 2981 2116 
L 1250 2116 
L 1250 0 
L 625 0 
L 625 4841 
L 3119 4841 
L 3119 4284 
z
" transform="scale(0.015625)"/>
      <path id="MicrosoftYaHei-3d" d="M 3972 2497 
L 788 2497 
L 788 2969 
L 3972 2969 
L 3972 2497 
z
M 3972 1053 
L 788 1053 
L 788 1525 
L 3972 1525 
L 3972 1053 
z
" transform="scale(0.015625)"/>
     </defs>
     <use xlink:href="#MicrosoftYaHei-4e2d"/>
     <use xlink:href="#MicrosoftYaHei-4f4d" transform="translate(100 0)"/>
     <use xlink:href="#MicrosoftYaHei-6570" transform="translate(200 0)"/>
     <use xlink:href="#MicrosoftYaHei-4f4d" transform="translate(300 0)"/>
     <use xlink:href="#MicrosoftYaHei-7f6e" transform="translate(400 0)"/>
     <use xlink:href="#MicrosoftYaHei-20" transform="translate(500 0)"/>
     <use xlink:href="#MicrosoftYaHei-28" transform="translate(529.589844 0)"/>
     <use xlink:href="#MicrosoftYaHei-43" transform="translate(562.988281 0)"/>
     <use xlink:href="#MicrosoftYaHei-46" transform="translate(629.882812 0)"/>
     <use xlink:href="#MicrosoftYaHei-3d" transform="translate(683.007812 0)"/>
     <use xlink:href="#MicrosoftYaHei-32" transform="translate(757.177734 0)"/>
     <use xlink:href="#MicrosoftYaHei-35" transform="translate(815.820312 0)"/>
     <use xlink:href="#MicrosoftYaHei-29" transform="translate(874.462891 0)"/>
    </g>
   </g>
   <g id="text_19">
    <!-- Ogive：考试分数累积频数曲线 -->
    <g transform="translate(186.314687 21.18375) scale(0.12 -0.12)">
     <defs>
      <path id="MicrosoftYaHei-4f" d="M 313 2363 
Q 313 3534 947 4228 
Q 1581 4922 2666 4922 
Q 3675 4922 4290 4244 
Q 4906 3566 4906 2478 
Q 4906 1300 4275 609 
Q 3644 -81 2588 -81 
Q 1556 -81 934 597 
Q 313 1275 313 2363 
z
M 969 2413 
Q 969 1534 1417 1004 
Q 1866 475 2588 475 
Q 3363 475 3805 983 
Q 4247 1491 4247 2403 
Q 4247 3341 3814 3850 
Q 3381 4359 2628 4359 
Q 1888 4359 1428 3821 
Q 969 3284 969 2413 
z
" transform="scale(0.015625)"/>
      <path id="MicrosoftYaHei-67" d="M 3547 291 
Q 3547 -1628 1684 -1628 
Q 1041 -1628 566 -1388 
L 566 -797 
Q 1144 -1119 1675 -1119 
Q 2934 -1119 2934 206 
L 2934 572 
L 2922 572 
Q 2528 -81 1747 -81 
Q 1097 -81 706 384 
Q 316 850 316 1619 
Q 316 2503 747 3020 
Q 1178 3538 1897 3538 
Q 2588 3538 2922 2988 
L 2934 2988 
L 2934 3456 
L 3547 3456 
L 3547 291 
z
M 2934 2056 
Q 2938 2456 2666 2743 
Q 2394 3031 1997 3031 
Q 1497 3031 1219 2664 
Q 941 2297 941 1656 
Q 941 1106 1209 765 
Q 1478 425 1922 425 
Q 2369 425 2653 750 
Q 2938 1075 2934 1575 
L 2934 2056 
z
" transform="scale(0.015625)"/>
      <path id="MicrosoftYaHei-69" d="M 472 4675 
Q 472 4838 583 4948 
Q 694 5059 856 5059 
Q 1022 5059 1136 4950 
Q 1250 4841 1250 4675 
Q 1250 4513 1136 4405 
Q 1022 4297 856 4297 
Q 691 4297 581 4405 
Q 472 4513 472 4675 
z
M 544 0 
L 544 3456 
L 1156 3456 
L 1156 0 
L 544 0 
z
" transform="scale(0.015625)"/>
      <path id="MicrosoftYaHei-76" d="M 3331 3456 
L 1963 0 
L 1344 0 
L 44 3456 
L 713 3456 
L 1556 988 
Q 1659 691 1678 491 
L 1694 491 
Q 1725 753 1803 975 
L 2688 3456 
L 3331 3456 
z
" transform="scale(0.015625)"/>
      <path id="MicrosoftYaHei-65" d="M 3363 1572 
L 944 1572 
Q 959 1019 1246 717 
Q 1534 416 2050 416 
Q 2631 416 3116 788 
L 3116 241 
Q 2659 -81 1906 -81 
Q 1156 -81 736 394 
Q 316 869 316 1713 
Q 316 2506 777 3022 
Q 1238 3538 1922 3538 
Q 2600 3538 2981 3102 
Q 3363 2666 3363 1881 
L 3363 1572 
z
M 2750 2063 
Q 2747 2531 2528 2787 
Q 2309 3044 1913 3044 
Q 1547 3044 1280 2772 
Q 1013 2500 944 2063 
L 2750 2063 
z
" transform="scale(0.015625)"/>
      <path id="MicrosoftYaHei-ff1a" d="M 1606 3531 
Q 1772 3531 1890 3415 
Q 2009 3300 2009 3138 
Q 2009 2975 1893 2858 
Q 1778 2741 1606 2741 
Q 1434 2741 1318 2858 
Q 1203 2975 1203 3138 
Q 1203 3300 1322 3415 
Q 1441 3531 1606 3531 
z
M 1606 716 
Q 1772 716 1890 600 
Q 2009 484 2009 319 
Q 2009 150 1890 36 
Q 1772 -78 1606 -78 
Q 1441 -78 1322 36 
Q 1203 150 1203 319 
Q 1203 484 1322 600 
Q 1441 716 1606 716 
z
" transform="scale(0.015625)"/>
      <path id="MicrosoftYaHei-8003" d="M 225 3334 
L 2413 3334 
L 2413 4128 
L 738 4128 
L 738 4553 
L 2413 4553 
L 2413 5303 
L 2900 5303 
L 2900 4553 
L 4213 4553 
L 4213 4128 
L 2900 4128 
L 2900 3334 
L 3534 3334 
Q 4500 4041 5325 4884 
L 5706 4559 
Q 5000 3900 4278 3334 
L 6200 3334 
L 6200 2903 
L 3709 2903 
Q 3350 2641 2991 2403 
L 5769 2403 
L 5769 1978 
L 2859 1978 
L 2594 1428 
L 5100 1428 
Q 4975 366 4919 128 
Q 4775 -678 3931 -678 
Q 3300 -678 2563 -653 
Q 2519 -384 2431 -109 
Q 3181 -172 3838 -172 
Q 4325 -172 4431 253 
Q 4488 484 4556 1003 
L 2100 1003 
L 2100 1428 
L 2378 1978 
L 2316 1978 
Q 1353 1403 369 984 
Q 231 1222 69 1434 
Q 1606 2053 2906 2903 
L 225 2903 
L 225 3334 
z
" transform="scale(0.015625)"/>
      <path id="MicrosoftYaHei-8bd5" d="M 1913 4078 
L 4194 4078 
Q 4188 4656 4188 5334 
L 4681 5334 
Q 4669 4591 4675 4078 
L 6219 4078 
L 6219 3622 
L 4684 3622 
Q 4747 978 5275 22 
Q 5469 -303 5600 -303 
Q 5706 -303 5750 -53 
Q 5813 328 5844 941 
Q 6113 834 6313 778 
Q 6231 72 6156 -297 
Q 6056 -822 5631 -822 
Q 5281 -822 4938 -341 
Q 4300 584 4206 3622 
L 1913 3622 
L 1913 4078 
z
M 1800 66 
Q 2272 128 2788 209 
L 2788 2147 
L 1894 2147 
L 1894 2591 
L 4056 2591 
L 4056 2147 
L 3250 2147 
L 3250 281 
Q 3741 363 4269 459 
Q 4256 209 4256 -28 
Q 2888 -247 1925 -422 
L 1800 66 
z
M 2038 1334 
Q 2069 984 2106 728 
Q 1688 328 1269 -103 
Q 1075 -303 944 -484 
L 594 -84 
Q 813 159 813 516 
L 813 2816 
L 88 2816 
L 88 3259 
L 1288 3259 
L 1288 572 
Q 1625 897 2038 1334 
z
M 700 5172 
Q 1263 4622 1688 4134 
L 1275 3778 
Q 881 4297 344 4853 
L 700 5172 
z
M 4919 4897 
L 5206 5197 
Q 5706 4828 6000 4547 
L 5656 4197 
Q 5313 4566 4919 4897 
z
" transform="scale(0.015625)"/>
      <path id="MicrosoftYaHei-66f2" d="M 2163 5322 
L 2625 5322 
L 2625 4291 
L 3775 4291 
L 3775 5328 
L 4238 5328 
L 4238 4291 
L 5850 4291 
L 5850 -822 
L 5388 -822 
L 5388 -409 
L 1013 -409 
L 1013 -822 
L 550 -822 
L 550 4291 
L 2163 4291 
L 2163 5322 
z
M 1013 41 
L 2163 41 
L 2163 1753 
L 1013 1753 
L 1013 41 
z
M 4238 41 
L 5388 41 
L 5388 1753 
L 4238 1753 
L 4238 41 
z
M 2625 41 
L 3775 41 
L 3775 1753 
L 2625 1753 
L 2625 41 
z
M 1013 2203 
L 2163 2203 
L 2163 3841 
L 1013 3841 
L 1013 2203 
z
M 5388 3841 
L 4238 3841 
L 4238 2203 
L 5388 2203 
L 5388 3841 
z
M 2625 2203 
L 3775 2203 
L 3775 3841 
L 2625 3841 
L 2625 2203 
z
" transform="scale(0.015625)"/>
      <path id="MicrosoftYaHei-7ebf" d="M 1969 -347 
Q 3144 75 4003 631 
Q 3781 1197 3653 1972 
L 2319 1784 
L 2244 2234 
L 3591 2422 
Q 3538 2859 3513 3356 
L 2381 3228 
L 2306 3678 
L 3488 3809 
Q 3453 4459 3425 5303 
L 3938 5303 
Q 3953 4497 3978 3866 
L 6069 4103 
L 6125 3659 
L 3997 3413 
Q 4019 2919 4069 2488 
L 6225 2791 
L 6281 2347 
L 4128 2041 
Q 4234 1394 4416 916 
Q 5078 1416 5519 2009 
L 5925 1703 
Q 5363 1025 4619 475 
Q 4859 44 5194 -184 
Q 5606 -428 5725 66 
Q 5806 466 5856 953 
Q 6144 828 6338 772 
Q 6231 97 6125 -247 
Q 5944 -778 5506 -778 
Q 5050 -778 4663 -403 
Q 4409 -163 4209 194 
Q 3350 -363 2281 -772 
Q 2169 -597 1969 -347 
z
M 900 1541 
Q 1456 1622 2213 1753 
Q 2175 1522 2156 1272 
Q 1113 1109 325 978 
L 225 1447 
Q 659 1913 1178 2775 
Q 672 2747 225 2703 
L 106 3128 
Q 688 3922 1300 5353 
L 1775 5166 
Q 1131 3897 669 3166 
Q 1041 3178 1422 3194 
Q 1638 3578 1869 4028 
L 2331 3797 
Q 1569 2478 900 1541 
z
M 106 97 
Q 1206 334 2331 616 
Q 2313 366 2313 141 
Q 1269 -103 244 -378 
L 106 97 
z
M 4463 4972 
L 4731 5284 
Q 5175 5003 5681 4609 
L 5381 4247 
Q 4863 4691 4463 4972 
z
" transform="scale(0.015625)"/>
     </defs>
     <use xlink:href="#MicrosoftYaHei-4f"/>
     <use xlink:href="#MicrosoftYaHei-67" transform="translate(81.494141 0)"/>
     <use xlink:href="#MicrosoftYaHei-69" transform="translate(145.458984 0)"/>
     <use xlink:href="#MicrosoftYaHei-76" transform="translate(172.070312 0)"/>
     <use xlink:href="#MicrosoftYaHei-65" transform="translate(223.935547 0)"/>
     <use xlink:href="#MicrosoftYaHei-ff1a" transform="translate(280.673828 0)"/>
     <use xlink:href="#MicrosoftYaHei-8003" transform="translate(380.673828 0)"/>
     <use xlink:href="#MicrosoftYaHei-8bd5" transform="translate(480.673828 0)"/>
     <use xlink:href="#MicrosoftYaHei-5206" transform="translate(580.673828 0)"/>
     <use xlink:href="#MicrosoftYaHei-6570" transform="translate(680.673828 0)"/>
     <use xlink:href="#MicrosoftYaHei-7d2f" transform="translate(780.673828 0)"/>
     <use xlink:href="#MicrosoftYaHei-79ef" transform="translate(880.673828 0)"/>
     <use xlink:href="#MicrosoftYaHei-9891" transform="translate(980.673828 0)"/>
     <use xlink:href="#MicrosoftYaHei-6570" transform="translate(1080.673828 0)"/>
     <use xlink:href="#MicrosoftYaHei-66f2" transform="translate(1180.673828 0)"/>
     <use xlink:href="#MicrosoftYaHei-7ebf" transform="translate(1280.673828 0)"/>
    </g>
   </g>
  </g>
 </g>
 <defs>
  <clipPath id="pd103af89eb">
   <rect x="45.11" y="27.18375" width="448.09" height="287.97625"/>
  </clipPath>
 </defs>
</svg>
