<?xml version="1.0" encoding="utf-8" standalone="no"?>
<!DOCTYPE svg PUBLIC "-//W3C//DTD SVG 1.1//EN"
  "http://www.w3.org/Graphics/SVG/1.1/DTD/svg11.dtd">
<svg xmlns:xlink="http://www.w3.org/1999/xlink" width="432pt" height="324pt" viewBox="0 0 432 324" xmlns="http://www.w3.org/2000/svg" version="1.1">
 <metadata>
  <rdf:RDF xmlns:dc="http://purl.org/dc/elements/1.1/" xmlns:cc="http://creativecommons.org/ns#" xmlns:rdf="http://www.w3.org/1999/02/22-rdf-syntax-ns#">
   <cc:Work>
    <dc:type rdf:resource="http://purl.org/dc/dcmitype/StillImage"/>
    <dc:date>2026-06-09T13:59:23.329409</dc:date>
    <dc:format>image/svg+xml</dc:format>
    <dc:creator>
     <cc:Agent>
      <dc:title>Matplotlib v3.10.8, https://matplotlib.org/</dc:title>
     </cc:Agent>
    </dc:creator>
   </cc:Work>
  </rdf:RDF>
 </metadata>
 <defs>
  <style type="text/css">*{stroke-linejoin: round; stroke-linecap: butt}</style>
 </defs>
 <g id="figure_1">
  <g id="patch_1">
   <path d="M 0 324 
L 432 324 
L 432 0 
L 0 0 
z
" style="fill: #ffffff"/>
  </g>
  <g id="axes_1">
   <g id="patch_2">
    <path d="M 45.11 279.16 
L 421.2 279.16 
L 421.2 26.88 
L 45.11 26.88 
z
" style="fill: #ffffff"/>
   </g>
   <g id="patch_3">
    <path d="M 62.205 279.16 
L 119.188333 279.16 
L 119.188333 118.982222 
L 62.205 118.982222 
z
" clip-path="url(#p1e3c5e3ad0)" style="fill: #90ee90; stroke: #000000; stroke-width: 1.2; stroke-linejoin: miter"/>
   </g>
   <g id="patch_4">
    <path d="M 133.434167 279.16 
L 190.4175 279.16 
L 190.4175 38.893333 
L 133.434167 38.893333 
z
" clip-path="url(#p1e3c5e3ad0)" style="fill: #90ee90; stroke: #000000; stroke-width: 1.2; stroke-linejoin: miter"/>
   </g>
   <g id="patch_5">
    <path d="M 204.663333 279.16 
L 261.646667 279.16 
L 261.646667 172.374815 
L 204.663333 172.374815 
z
" clip-path="url(#p1e3c5e3ad0)" style="fill: #90ee90; stroke: #000000; stroke-width: 1.2; stroke-linejoin: miter"/>
   </g>
   <g id="patch_6">
    <path d="M 275.8925 279.16 
L 332.875833 279.16 
L 332.875833 78.937778 
L 275.8925 78.937778 
z
" clip-path="url(#p1e3c5e3ad0)" style="fill: #90ee90; stroke: #000000; stroke-width: 1.2; stroke-linejoin: miter"/>
   </g>
   <g id="patch_7">
    <path d="M 347.121667 279.16 
L 404.105 279.16 
L 404.105 185.722963 
L 347.121667 185.722963 
z
" clip-path="url(#p1e3c5e3ad0)" style="fill: #90ee90; stroke: #000000; stroke-width: 1.2; stroke-linejoin: miter"/>
   </g>
   <g id="matplotlib.axis_1">
    <g id="xtick_1">
     <g id="line2d_1">
      <defs>
       <path id="mf7d2ab05d1" d="M 0 0 
L 0 3.5 
" style="stroke: #000000; stroke-width: 0.8"/>
      </defs>
      <g>
       <use xlink:href="#mf7d2ab05d1" x="90.696667" y="279.16" style="stroke: #000000; stroke-width: 0.8"/>
      </g>
     </g>
     <g id="text_1">
      <!-- 红色 -->
      <g transform="translate(80.696667 294.15375) scale(0.1 -0.1)">
       <defs>
        <path id="MicrosoftYaHei-7ea2" d="M 2213 16 
L 4038 16 
L 4038 4253 
L 2538 4253 
L 2538 4741 
L 6081 4741 
L 6081 4253 
L 4569 4253 
L 4569 16 
L 6313 16 
L 6313 -472 
L 2213 -472 
L 2213 16 
z
M 919 1597 
Q 2063 1759 2488 1828 
Q 2450 1584 2431 1353 
Q 1644 1247 319 1041 
L 200 1503 
Q 716 2006 1241 2759 
Q 572 2719 256 2691 
L 131 3116 
Q 831 4022 1431 5347 
L 1938 5159 
Q 1319 4022 725 3153 
Q 1138 3163 1516 3175 
Q 1769 3566 2025 4016 
L 2506 3784 
Q 1688 2528 919 1597 
z
M 119 222 
Q 1231 459 2500 747 
Q 2481 497 2481 259 
Q 1475 28 263 -284 
L 119 222 
z
" transform="scale(0.015625)"/>
        <path id="MicrosoftYaHei-8272" d="M 56 3253 
Q 1275 4178 1988 5384 
L 2513 5253 
Q 2344 4984 2153 4728 
L 4625 4728 
L 4625 4284 
Q 4275 3875 3894 3466 
L 5581 3466 
L 5581 1184 
L 5081 1184 
L 5081 1403 
L 1325 1403 
L 1325 297 
Q 1325 -128 1719 -128 
L 5094 -128 
Q 5513 -128 5600 134 
Q 5719 516 5769 1091 
Q 5950 1009 6281 897 
Q 6194 309 6100 -9 
Q 5938 -603 5188 -603 
L 1663 -603 
Q 825 -603 825 253 
L 825 3263 
Q 641 3097 444 2934 
Q 275 3091 56 3253 
z
M 5081 3016 
L 3444 3016 
L 3444 1853 
L 5081 1853 
L 5081 3016 
z
M 1325 1853 
L 2956 1853 
L 2956 3016 
L 1325 3016 
L 1325 1853 
z
M 3994 4291 
L 1809 4291 
Q 1456 3863 1041 3466 
L 3284 3466 
Q 3659 3891 3994 4291 
z
" transform="scale(0.015625)"/>
       </defs>
       <use xlink:href="#MicrosoftYaHei-7ea2"/>
       <use xlink:href="#MicrosoftYaHei-8272" transform="translate(100 0)"/>
      </g>
     </g>
    </g>
    <g id="xtick_2">
     <g id="line2d_2">
      <g>
       <use xlink:href="#mf7d2ab05d1" x="161.925833" y="279.16" style="stroke: #000000; stroke-width: 0.8"/>
      </g>
     </g>
     <g id="text_2">
      <!-- 蓝色 -->
      <g transform="translate(151.925833 294.15375) scale(0.1 -0.1)">
       <defs>
        <path id="MicrosoftYaHei-84dd" d="M 156 -178 
L 925 -178 
L 925 1459 
L 5538 1459 
L 5538 -178 
L 6263 -178 
L 6263 -616 
L 156 -616 
L 156 -178 
z
M 169 4809 
L 1975 4809 
L 1975 5328 
L 2438 5328 
L 2438 4809 
L 4000 4809 
L 4000 5328 
L 4463 5328 
L 4463 4809 
L 6250 4809 
L 6250 4372 
L 4463 4372 
L 4463 4022 
L 4000 4022 
L 4000 4372 
L 2438 4372 
L 2438 4022 
L 1975 4022 
L 1975 4372 
L 169 4372 
L 169 4809 
z
M 2819 1997 
Q 3388 2847 3669 3934 
L 4138 3816 
Q 4069 3594 3997 3391 
L 6150 3391 
L 6150 2966 
L 3841 2966 
Q 3566 2259 3238 1734 
Q 2944 1934 2819 1997 
z
M 5088 1034 
L 4138 1034 
L 4138 -178 
L 5088 -178 
L 5088 1034 
z
M 2756 -178 
L 3700 -178 
L 3700 1034 
L 2756 1034 
L 2756 -178 
z
M 1375 -178 
L 2319 -178 
L 2319 1034 
L 1375 1034 
L 1375 -178 
z
M 2094 3853 
L 2556 3853 
L 2556 1716 
L 2094 1716 
L 2094 3853 
z
M 781 3716 
L 1244 3716 
L 1244 1791 
L 781 1791 
L 781 3716 
z
M 4100 2466 
L 4381 2797 
Q 5025 2378 5544 1972 
L 5238 1609 
Q 4713 2053 4100 2466 
z
" transform="scale(0.015625)"/>
       </defs>
       <use xlink:href="#MicrosoftYaHei-84dd"/>
       <use xlink:href="#MicrosoftYaHei-8272" transform="translate(100 0)"/>
      </g>
     </g>
    </g>
    <g id="xtick_3">
     <g id="line2d_3">
      <g>
       <use xlink:href="#mf7d2ab05d1" x="233.155" y="279.16" style="stroke: #000000; stroke-width: 0.8"/>
      </g>
     </g>
     <g id="text_3">
      <!-- 绿色 -->
      <g transform="translate(223.155 294.15375) scale(0.1 -0.1)">
       <defs>
        <path id="MicrosoftYaHei-7eff" d="M 2138 2972 
L 5088 2972 
L 5131 3566 
L 2575 3566 
L 2575 3978 
L 5159 3978 
L 5200 4559 
L 2475 4559 
L 2475 4984 
L 5694 4984 
L 5550 2972 
L 6313 2972 
L 6313 2547 
L 4456 2547 
L 4456 2272 
Q 4638 1781 4881 1388 
Q 5381 1788 5794 2266 
L 6163 1947 
Q 5728 1497 5141 1025 
Q 5634 416 6338 116 
Q 6106 -78 5919 -284 
Q 5016 213 4456 1294 
L 4456 28 
Q 4456 -772 3681 -772 
Q 3406 -772 2869 -766 
Q 2831 -528 2775 -247 
Q 3256 -297 3563 -297 
Q 3981 -297 3981 147 
L 3981 2547 
L 2138 2547 
L 2138 2972 
z
M 875 1578 
Q 1463 1659 2094 1766 
Q 2056 1522 2038 1291 
Q 1188 1166 319 1022 
L 225 1484 
Q 553 1819 1119 2791 
Q 566 2756 231 2722 
L 113 3147 
Q 669 3891 1275 5347 
L 1744 5159 
Q 1094 3872 656 3184 
Q 997 3194 1353 3200 
Q 1581 3609 1844 4109 
L 2306 3903 
Q 1513 2522 875 1578 
z
M 94 103 
Q 931 278 2025 559 
Q 2006 222 2006 97 
Q 1156 -109 225 -372 
L 94 103 
z
M 3681 1303 
Q 3763 1072 3881 872 
Q 3313 509 2381 -116 
L 2088 297 
Q 2925 778 3681 1303 
z
M 2594 2328 
Q 3013 1984 3444 1559 
Q 3263 1397 3088 1228 
Q 2663 1697 2288 2041 
L 2594 2328 
z
" transform="scale(0.015625)"/>
       </defs>
       <use xlink:href="#MicrosoftYaHei-7eff"/>
       <use xlink:href="#MicrosoftYaHei-8272" transform="translate(100 0)"/>
      </g>
     </g>
    </g>
    <g id="xtick_4">
     <g id="line2d_4">
      <g>
       <use xlink:href="#mf7d2ab05d1" x="304.384167" y="279.16" style="stroke: #000000; stroke-width: 0.8"/>
      </g>
     </g>
     <g id="text_4">
      <!-- 黄色 -->
      <g transform="translate(294.384167 294.15375) scale(0.1 -0.1)">
       <defs>
        <path id="MicrosoftYaHei-9ec4" d="M 900 2759 
L 2963 2759 
L 2963 3303 
L 175 3303 
L 175 3728 
L 1869 3728 
L 1869 4328 
L 369 4328 
L 369 4753 
L 1869 4753 
L 1869 5341 
L 2344 5341 
L 2344 4753 
L 4069 4753 
L 4069 5341 
L 4544 5341 
L 4544 4753 
L 6044 4753 
L 6044 4328 
L 4544 4328 
L 4544 3728 
L 6250 3728 
L 6250 3303 
L 3438 3303 
L 3438 2759 
L 5506 2759 
L 5506 172 
L 5038 172 
L 5038 359 
L 1369 359 
L 1369 172 
L 900 172 
L 900 2759 
z
M 3744 -134 
L 3925 241 
Q 5250 -109 6156 -422 
L 5956 -847 
Q 4788 -453 3744 -134 
z
M 2344 3728 
L 4069 3728 
L 4069 4328 
L 2344 4328 
L 2344 3728 
z
M 2325 241 
L 2600 -153 
Q 1513 -622 456 -909 
Q 369 -722 238 -484 
Q 1363 -209 2325 241 
z
M 5038 2347 
L 3438 2347 
L 3438 1759 
L 5038 1759 
L 5038 2347 
z
M 3438 772 
L 5038 772 
L 5038 1359 
L 3438 1359 
L 3438 772 
z
M 1369 1759 
L 2963 1759 
L 2963 2347 
L 1369 2347 
L 1369 1759 
z
M 1369 772 
L 2963 772 
L 2963 1359 
L 1369 1359 
L 1369 772 
z
" transform="scale(0.015625)"/>
       </defs>
       <use xlink:href="#MicrosoftYaHei-9ec4"/>
       <use xlink:href="#MicrosoftYaHei-8272" transform="translate(100 0)"/>
      </g>
     </g>
    </g>
    <g id="xtick_5">
     <g id="line2d_5">
      <g>
       <use xlink:href="#mf7d2ab05d1" x="375.613333" y="279.16" style="stroke: #000000; stroke-width: 0.8"/>
      </g>
     </g>
     <g id="text_5">
      <!-- 紫色 -->
      <g transform="translate(365.613333 294.15375) scale(0.1 -0.1)">
       <defs>
        <path id="MicrosoftYaHei-7d2b" d="M 4675 1891 
Q 5419 1272 5981 753 
L 5631 428 
Q 5406 653 5188 866 
Q 4384 828 3575 788 
L 3575 3 
Q 3575 -747 2838 -747 
Q 2463 -747 2056 -734 
Q 2031 -522 1981 -241 
Q 2406 -291 2738 -291 
Q 3100 -291 3100 53 
L 3100 763 
Q 2394 728 1688 691 
Q 1269 666 963 609 
L 706 1103 
Q 1188 1197 1538 1328 
Q 2394 1634 3103 1928 
Q 2369 1878 1613 1816 
Q 1381 1791 1150 1753 
L 938 2172 
Q 1219 2234 1519 2359 
Q 2381 2766 2806 3022 
L 3175 2753 
Q 2456 2434 1806 2159 
Q 2909 2219 3931 2294 
Q 4331 2478 4669 2659 
L 5044 2341 
Q 3638 1716 1806 1059 
Q 3494 1125 4825 1209 
Q 4588 1428 4363 1628 
L 4675 1891 
z
M 619 4834 
L 1075 4834 
L 1075 3300 
Q 1469 3350 1844 3400 
L 1844 5303 
L 2306 5303 
L 2306 4603 
L 3356 4603 
L 3356 4203 
L 2306 4203 
L 2306 3463 
Q 2850 3538 3363 3616 
Q 3331 3391 3319 3191 
Q 1838 2997 263 2703 
L 150 3184 
Q 388 3213 619 3241 
L 619 4834 
z
M 5531 5109 
L 5875 4747 
Q 4969 4231 4044 3828 
L 4044 3666 
Q 4044 3272 4413 3272 
L 5294 3272 
Q 5638 3272 5719 3584 
Q 5775 3834 5806 4309 
Q 6050 4191 6275 4109 
Q 6213 3666 6156 3403 
Q 6038 2834 5363 2834 
L 4300 2834 
Q 3581 2834 3581 3572 
L 3581 5309 
L 4044 5309 
L 4044 4303 
Q 4834 4666 5531 5109 
z
M 4131 166 
L 4375 553 
Q 5281 166 6094 -216 
L 5819 -666 
Q 5013 -234 4131 166 
z
M 1869 578 
L 2181 209 
Q 1194 -384 525 -697 
Q 431 -541 269 -278 
Q 938 3 1869 578 
z
" transform="scale(0.015625)"/>
       </defs>
       <use xlink:href="#MicrosoftYaHei-7d2b"/>
       <use xlink:href="#MicrosoftYaHei-8272" transform="translate(100 0)"/>
      </g>
     </g>
    </g>
    <g id="text_6">
     <!-- 颜色 -->
     <g transform="translate(223.155 308.633437) scale(0.1 -0.1)">
      <defs>
       <path id="MicrosoftYaHei-989c" d="M 3413 3728 
L 4250 3728 
L 4381 4572 
L 3250 4572 
L 3250 4997 
L 6294 4997 
L 6294 4572 
L 4869 4572 
L 4713 3728 
L 6025 3728 
L 6025 609 
L 5594 609 
L 5594 3309 
L 3844 3309 
L 3844 609 
L 3413 609 
L 3413 3728 
z
M 438 3066 
L 1994 3066 
Q 2244 3609 2425 4109 
L 2913 3928 
Q 2731 3566 2444 3066 
L 3200 3066 
L 3200 2666 
L 875 2666 
L 875 1372 
Q 881 16 388 -841 
Q 213 -609 56 -422 
Q 438 209 438 1409 
L 438 3066 
z
M 4500 3022 
L 4938 3022 
L 4938 2222 
Q 4938 1341 4750 766 
Q 5631 134 6319 -484 
L 5969 -847 
Q 5325 -209 4569 353 
Q 4181 -316 3188 -903 
Q 3094 -766 2856 -503 
Q 3844 9 4188 609 
Q 4500 1122 4500 2247 
L 4500 3022 
z
M 263 4566 
L 1663 4566 
Q 1550 4809 1350 5147 
L 1750 5334 
Q 1981 5003 2144 4703 
L 1863 4566 
L 3213 4566 
L 3213 4166 
L 263 4166 
L 263 4566 
z
M 1100 -872 
Q 981 -678 838 -484 
Q 1981 -53 2956 703 
L 3238 359 
Q 2181 -434 1100 -872 
z
M 1256 341 
Q 1100 597 994 734 
Q 1975 1091 2838 1684 
L 3100 1347 
Q 2150 709 1256 341 
z
M 1256 1441 
Q 1119 1678 994 1834 
Q 1800 2066 2688 2616 
L 2938 2266 
Q 2063 1759 1256 1441 
z
M 750 3922 
L 1144 4109 
Q 1419 3666 1600 3309 
L 1169 3097 
Q 1000 3497 750 3922 
z
" transform="scale(0.015625)"/>
      </defs>
      <use xlink:href="#MicrosoftYaHei-989c"/>
      <use xlink:href="#MicrosoftYaHei-8272" transform="translate(100 0)"/>
     </g>
    </g>
   </g>
   <g id="matplotlib.axis_2">
    <g id="ytick_1">
     <g id="line2d_6">
      <defs>
       <path id="m92b63508b6" d="M 0 0 
L -3.5 0 
" style="stroke: #000000; stroke-width: 0.8"/>
      </defs>
      <g>
       <use xlink:href="#m92b63508b6" x="45.11" y="279.16" style="stroke: #000000; stroke-width: 0.8"/>
      </g>
     </g>
     <g id="text_7">
      <!-- 0 -->
      <g transform="translate(32.245938 283.156875) scale(0.1 -0.1)">
       <defs>
        <path id="MicrosoftYaHei-30" d="M 284 2325 
Q 284 3606 709 4264 
Q 1134 4922 1941 4922 
Q 3478 4922 3478 2441 
Q 3478 1216 3045 567 
Q 2613 -81 1831 -81 
Q 1094 -81 689 534 
Q 284 1150 284 2325 
z
M 909 2353 
Q 909 425 1888 425 
Q 2850 425 2850 2384 
Q 2850 4413 1906 4413 
Q 909 4413 909 2353 
z
" transform="scale(0.015625)"/>
       </defs>
       <use xlink:href="#MicrosoftYaHei-30"/>
      </g>
     </g>
    </g>
    <g id="ytick_2">
     <g id="line2d_7">
      <g>
       <use xlink:href="#m92b63508b6" x="45.11" y="252.463704" style="stroke: #000000; stroke-width: 0.8"/>
      </g>
     </g>
     <g id="text_8">
      <!-- 2 -->
      <g transform="translate(32.245938 256.460579) scale(0.1 -0.1)">
       <defs>
        <path id="MicrosoftYaHei-32" d="M 2666 3572 
Q 2666 3963 2419 4186 
Q 2172 4409 1747 4409 
Q 1447 4409 1140 4256 
Q 834 4103 569 3819 
L 569 4413 
Q 806 4659 1107 4790 
Q 1409 4922 1816 4922 
Q 2472 4922 2872 4570 
Q 3272 4219 3272 3619 
Q 3272 3084 3026 2693 
Q 2781 2303 2188 1894 
Q 1581 1475 1376 1294 
Q 1172 1113 1090 947 
Q 1009 781 1009 544 
L 3416 544 
L 3416 0 
L 372 0 
L 372 241 
Q 372 659 486 951 
Q 600 1244 862 1520 
Q 1125 1797 1681 2184 
Q 2250 2584 2458 2886 
Q 2666 3188 2666 3572 
z
" transform="scale(0.015625)"/>
       </defs>
       <use xlink:href="#MicrosoftYaHei-32"/>
      </g>
     </g>
    </g>
    <g id="ytick_3">
     <g id="line2d_8">
      <g>
       <use xlink:href="#m92b63508b6" x="45.11" y="225.767407" style="stroke: #000000; stroke-width: 0.8"/>
      </g>
     </g>
     <g id="text_9">
      <!-- 4 -->
      <g transform="translate(32.245938 229.764282) scale(0.1 -0.1)">
       <defs>
        <path id="MicrosoftYaHei-34" d="M 2906 4841 
L 2906 1644 
L 3631 1644 
L 3631 1138 
L 2906 1138 
L 2906 0 
L 2313 0 
L 2313 1138 
L 53 1138 
L 53 1616 
Q 656 2294 1265 3178 
Q 1875 4063 2272 4841 
L 2906 4841 
z
M 741 1644 
L 2313 1644 
L 2313 3950 
Q 1988 3366 1616 2817 
Q 1244 2269 741 1644 
z
" transform="scale(0.015625)"/>
       </defs>
       <use xlink:href="#MicrosoftYaHei-34"/>
      </g>
     </g>
    </g>
    <g id="ytick_4">
     <g id="line2d_9">
      <g>
       <use xlink:href="#m92b63508b6" x="45.11" y="199.071111" style="stroke: #000000; stroke-width: 0.8"/>
      </g>
     </g>
     <g id="text_10">
      <!-- 6 -->
      <g transform="translate(32.245938 203.067986) scale(0.1 -0.1)">
       <defs>
        <path id="MicrosoftYaHei-36" d="M 3181 4219 
Q 2803 4413 2391 4413 
Q 1763 4413 1381 3866 
Q 1000 3319 994 2372 
L 1009 2372 
Q 1353 3038 2106 3038 
Q 2734 3038 3109 2628 
Q 3484 2219 3484 1541 
Q 3484 831 3051 375 
Q 2619 -81 1947 -81 
Q 1209 -81 789 495 
Q 369 1072 369 2131 
Q 369 3413 920 4167 
Q 1472 4922 2372 4922 
Q 2888 4922 3181 4781 
L 3181 4219 
z
M 1031 1584 
Q 1031 1106 1286 765 
Q 1541 425 1963 425 
Q 2363 425 2613 719 
Q 2863 1013 2863 1475 
Q 2863 1975 2627 2253 
Q 2391 2531 1956 2531 
Q 1544 2531 1287 2250 
Q 1031 1969 1031 1584 
z
" transform="scale(0.015625)"/>
       </defs>
       <use xlink:href="#MicrosoftYaHei-36"/>
      </g>
     </g>
    </g>
    <g id="ytick_5">
     <g id="line2d_10">
      <g>
       <use xlink:href="#m92b63508b6" x="45.11" y="172.374815" style="stroke: #000000; stroke-width: 0.8"/>
      </g>
     </g>
     <g id="text_11">
      <!-- 8 -->
      <g transform="translate(32.245938 176.37169) scale(0.1 -0.1)">
       <defs>
        <path id="MicrosoftYaHei-38" d="M 306 1350 
Q 306 1769 556 2122 
Q 806 2475 1200 2625 
Q 884 2803 700 3081 
Q 516 3359 516 3684 
Q 516 4028 692 4312 
Q 869 4597 1183 4759 
Q 1497 4922 1875 4922 
Q 2256 4922 2572 4761 
Q 2888 4600 3063 4315 
Q 3238 4031 3238 3684 
Q 3238 3366 3058 3086 
Q 2878 2806 2559 2625 
Q 2953 2472 3200 2119 
Q 3447 1766 3447 1350 
Q 3447 938 3250 611 
Q 3053 284 2690 103 
Q 2328 -78 1875 -78 
Q 1425 -78 1065 103 
Q 706 284 506 612 
Q 306 941 306 1350 
z
M 906 1378 
Q 906 947 1172 687 
Q 1438 428 1878 428 
Q 2309 428 2582 692 
Q 2856 956 2856 1378 
Q 2856 1778 2579 2051 
Q 2303 2325 1878 2325 
Q 1456 2325 1181 2058 
Q 906 1791 906 1378 
z
M 1081 3634 
Q 1081 3309 1312 3076 
Q 1544 2844 1878 2844 
Q 2206 2844 2445 3078 
Q 2684 3313 2684 3634 
Q 2684 3963 2454 4191 
Q 2225 4419 1878 4419 
Q 1534 4419 1307 4195 
Q 1081 3972 1081 3634 
z
" transform="scale(0.015625)"/>
       </defs>
       <use xlink:href="#MicrosoftYaHei-38"/>
      </g>
     </g>
    </g>
    <g id="ytick_6">
     <g id="line2d_11">
      <g>
       <use xlink:href="#m92b63508b6" x="45.11" y="145.678519" style="stroke: #000000; stroke-width: 0.8"/>
      </g>
     </g>
     <g id="text_12">
      <!-- 10 -->
      <g transform="translate(26.381875 149.675394) scale(0.1 -0.1)">
       <defs>
        <path id="MicrosoftYaHei-31" d="M 1781 0 
L 1781 4141 
Q 1638 3997 1295 3819 
Q 953 3641 663 3569 
L 663 4169 
Q 1047 4275 1484 4508 
Q 1922 4741 2156 4947 
L 2388 4947 
L 2388 0 
L 1781 0 
z
" transform="scale(0.015625)"/>
       </defs>
       <use xlink:href="#MicrosoftYaHei-31"/>
       <use xlink:href="#MicrosoftYaHei-30" transform="translate(58.642578 0)"/>
      </g>
     </g>
    </g>
    <g id="ytick_7">
     <g id="line2d_12">
      <g>
       <use xlink:href="#m92b63508b6" x="45.11" y="118.982222" style="stroke: #000000; stroke-width: 0.8"/>
      </g>
     </g>
     <g id="text_13">
      <!-- 12 -->
      <g transform="translate(26.381875 122.979097) scale(0.1 -0.1)">
       <use xlink:href="#MicrosoftYaHei-31"/>
       <use xlink:href="#MicrosoftYaHei-32" transform="translate(58.642578 0)"/>
      </g>
     </g>
    </g>
    <g id="ytick_8">
     <g id="line2d_13">
      <g>
       <use xlink:href="#m92b63508b6" x="45.11" y="92.285926" style="stroke: #000000; stroke-width: 0.8"/>
      </g>
     </g>
     <g id="text_14">
      <!-- 14 -->
      <g transform="translate(26.381875 96.282801) scale(0.1 -0.1)">
       <use xlink:href="#MicrosoftYaHei-31"/>
       <use xlink:href="#MicrosoftYaHei-34" transform="translate(58.642578 0)"/>
      </g>
     </g>
    </g>
    <g id="ytick_9">
     <g id="line2d_14">
      <g>
       <use xlink:href="#m92b63508b6" x="45.11" y="65.58963" style="stroke: #000000; stroke-width: 0.8"/>
      </g>
     </g>
     <g id="text_15">
      <!-- 16 -->
      <g transform="translate(26.381875 69.586505) scale(0.1 -0.1)">
       <use xlink:href="#MicrosoftYaHei-31"/>
       <use xlink:href="#MicrosoftYaHei-36" transform="translate(58.642578 0)"/>
      </g>
     </g>
    </g>
    <g id="ytick_10">
     <g id="line2d_15">
      <g>
       <use xlink:href="#m92b63508b6" x="45.11" y="38.893333" style="stroke: #000000; stroke-width: 0.8"/>
      </g>
     </g>
     <g id="text_16">
      <!-- 18 -->
      <g transform="translate(26.381875 42.890208) scale(0.1 -0.1)">
       <use xlink:href="#MicrosoftYaHei-31"/>
       <use xlink:href="#MicrosoftYaHei-38" transform="translate(58.642578 0)"/>
      </g>
     </g>
    </g>
    <g id="text_17">
     <!-- 人数 -->
     <g transform="translate(19.895938 163.02) rotate(-90) scale(0.1 -0.1)">
      <defs>
       <path id="MicrosoftYaHei-4eba" d="M 100 -303 
Q 2825 1272 2981 5222 
L 3531 5222 
Q 3497 4553 3400 3947 
Q 4175 822 6313 -166 
Q 6050 -453 5850 -709 
Q 3994 341 3203 3006 
Q 2519 431 494 -778 
Q 325 -547 100 -303 
z
" transform="scale(0.015625)"/>
       <path id="MicrosoftYaHei-6570" d="M 4175 5303 
L 4675 5228 
Q 4544 4622 4369 4097 
L 6281 4097 
L 6281 3672 
L 5888 3672 
Q 5731 1834 5088 753 
Q 5594 66 6375 -372 
Q 6175 -647 6038 -866 
Q 5275 -372 4769 309 
Q 4194 -403 3400 -928 
Q 3263 -747 3044 -534 
Q 3919 41 4463 772 
Q 3956 1647 3794 2791 
Q 3663 2559 3519 2359 
Q 3394 2541 3206 2759 
Q 3931 3803 4175 5303 
z
M 150 1697 
L 1100 1697 
Q 1238 1934 1369 2184 
L 1819 2041 
Q 1719 1866 1619 1697 
L 3150 1697 
L 3150 1291 
Q 2913 678 2431 216 
Q 2775 53 3131 -109 
L 2856 -541 
Q 2469 -322 2050 -103 
Q 1344 -609 269 -903 
Q 169 -703 56 -466 
Q 969 -259 1600 128 
Q 1063 403 475 691 
Q 675 978 863 1284 
L 150 1284 
L 150 1697 
z
M 219 3847 
L 1656 3847 
L 1656 5247 
L 2119 5247 
L 2119 3847 
L 3319 3847 
L 3319 3434 
L 2119 3434 
L 2119 3053 
L 2306 3266 
Q 2888 2841 3281 2516 
L 2981 2166 
Q 2638 2491 2119 2897 
L 2119 2184 
L 1656 2184 
L 1656 3059 
Q 1088 2466 331 2016 
Q 213 2197 63 2397 
Q 850 2822 1506 3434 
L 219 3434 
L 219 3847 
z
M 5388 3672 
L 4219 3672 
Q 4188 3591 4150 3516 
Q 4263 2191 4775 1247 
Q 5275 2159 5388 3672 
z
M 1088 834 
Q 1531 634 2000 416 
Q 2431 784 2675 1284 
L 1375 1284 
Q 1231 1053 1088 834 
z
M 3038 5091 
L 3425 4834 
Q 3081 4384 2738 4003 
Q 2594 4128 2400 4266 
Q 2725 4647 3038 5091 
z
M 381 4816 
L 738 5059 
Q 1019 4716 1319 4322 
L 931 4047 
Q 656 4453 381 4816 
z
" transform="scale(0.015625)"/>
      </defs>
      <use xlink:href="#MicrosoftYaHei-4eba"/>
      <use xlink:href="#MicrosoftYaHei-6570" transform="translate(100 0)"/>
     </g>
    </g>
   </g>
   <g id="patch_8">
    <path d="M 45.11 279.16 
L 45.11 26.88 
" style="fill: none; stroke: #000000; stroke-width: 0.8; stroke-linejoin: miter; stroke-linecap: square"/>
   </g>
   <g id="patch_9">
    <path d="M 421.2 279.16 
L 421.2 26.88 
" style="fill: none; stroke: #000000; stroke-width: 0.8; stroke-linejoin: miter; stroke-linecap: square"/>
   </g>
   <g id="patch_10">
    <path d="M 45.11 279.16 
L 421.2 279.16 
" style="fill: none; stroke: #000000; stroke-width: 0.8; stroke-linejoin: miter; stroke-linecap: square"/>
   </g>
   <g id="patch_11">
    <path d="M 45.11 26.88 
L 421.2 26.88 
" style="fill: none; stroke: #000000; stroke-width: 0.8; stroke-linejoin: miter; stroke-linecap: square"/>
   </g>
   <g id="text_18">
    <!-- 棒形图：学生最喜欢的颜色 -->
    <g transform="translate(161.155 20.88) scale(0.12 -0.12)">
     <defs>
      <path id="MicrosoftYaHei-68d2" d="M 2244 547 
L 3856 547 
L 3856 1159 
L 2788 1159 
L 2788 1519 
Q 2481 1231 2100 972 
Q 2000 1103 1775 1334 
Q 2563 1831 3006 2466 
L 2069 2466 
L 2069 2866 
L 3247 2866 
Q 3372 3113 3450 3378 
L 2431 3378 
L 2431 3778 
L 3550 3778 
Q 3600 4019 3634 4284 
L 2250 4284 
L 2250 4684 
L 3678 4684 
Q 3703 4981 3713 5309 
L 4175 5309 
Q 4163 4981 4138 4684 
L 6044 4684 
L 6044 4284 
L 4094 4284 
Q 4063 4016 4013 3778 
L 5875 3778 
L 5875 3378 
L 3925 3378 
Q 3859 3116 3753 2866 
L 6294 2866 
L 6294 2466 
L 5006 2466 
Q 5484 1775 6344 1459 
Q 6181 1247 6050 1034 
Q 5663 1241 5350 1503 
L 5350 1159 
L 4313 1159 
L 4313 547 
L 5944 547 
L 5944 147 
L 4313 147 
L 4313 -847 
L 3856 -847 
L 3856 147 
L 2244 147 
L 2244 547 
z
M 38 1403 
Q 603 2319 947 3666 
L 113 3666 
L 113 4103 
L 963 4103 
L 963 5322 
L 1400 5322 
L 1400 4103 
L 2125 4103 
L 2125 3666 
L 1400 3666 
L 1400 2606 
L 1625 2784 
Q 1931 2441 2175 2141 
L 1850 1866 
Q 1656 2144 1400 2456 
L 1400 -841 
L 963 -841 
L 963 2672 
Q 650 1547 238 853 
Q 156 1122 38 1403 
z
M 3856 2097 
L 4313 2097 
L 4313 1559 
L 5284 1559 
Q 4841 1953 4556 2466 
L 3550 2466 
Q 3269 1984 2825 1559 
L 3856 1559 
L 3856 2097 
z
" transform="scale(0.015625)"/>
      <path id="MicrosoftYaHei-5f62" d="M 175 2647 
L 1019 2647 
L 1019 4422 
L 350 4422 
L 350 4872 
L 3775 4872 
L 3775 4422 
L 3006 4422 
L 3006 2647 
L 3975 2647 
L 3975 2197 
L 3006 2197 
L 3006 -791 
L 2525 -791 
L 2525 2197 
L 1497 2197 
Q 1500 128 406 -841 
Q 256 -622 75 -428 
Q 1025 366 1016 2197 
L 175 2197 
L 175 2647 
z
M 1500 2647 
L 2525 2647 
L 2525 4422 
L 1500 4422 
L 1500 2647 
z
M 6319 1353 
Q 5331 166 3738 -834 
Q 3631 -666 3388 -422 
Q 4925 397 5956 1672 
L 6319 1353 
z
M 6138 3172 
Q 5250 2159 4019 1347 
Q 3888 1528 3694 1722 
Q 4856 2441 5775 3484 
L 6138 3172 
z
M 6038 4934 
Q 5194 4009 3988 3266 
Q 3875 3428 3675 3666 
Q 4838 4322 5675 5253 
L 6038 4934 
z
" transform="scale(0.015625)"/>
      <path id="MicrosoftYaHei-56fe" d="M 431 5072 
L 5944 5072 
L 5944 -809 
L 5475 -809 
L 5475 -509 
L 900 -509 
L 900 -809 
L 431 -809 
L 431 5072 
z
M 5475 4622 
L 900 4622 
L 900 -59 
L 5475 -59 
L 5475 4622 
z
M 1113 3091 
Q 1969 3709 2519 4547 
L 2931 4353 
Q 2816 4181 2681 4016 
L 4894 4016 
L 4894 3647 
Q 4434 3091 3722 2644 
Q 4381 2422 5338 2297 
Q 5194 2016 5131 1828 
Q 4022 2081 3256 2400 
Q 2491 2056 1225 1728 
Q 1138 1934 1013 2128 
Q 2109 2353 2825 2644 
Q 2384 2947 2066 3341 
Q 1769 3056 1419 2784 
Q 1294 2916 1113 3091 
z
M 1563 672 
L 1694 1103 
Q 3256 897 4700 622 
L 4531 147 
Q 3150 453 1563 672 
z
M 4275 3628 
L 2347 3628 
Q 2338 3616 2328 3606 
Q 2691 3141 3244 2841 
Q 3891 3188 4275 3628 
z
M 2219 1503 
L 2344 1922 
Q 3263 1784 4275 1609 
L 4144 1172 
Q 3119 1378 2219 1503 
z
" transform="scale(0.015625)"/>
      <path id="MicrosoftYaHei-ff1a" d="M 1606 3531 
Q 1772 3531 1890 3415 
Q 2009 3300 2009 3138 
Q 2009 2975 1893 2858 
Q 1778 2741 1606 2741 
Q 1434 2741 1318 2858 
Q 1203 2975 1203 3138 
Q 1203 3300 1322 3415 
Q 1441 3531 1606 3531 
z
M 1606 716 
Q 1772 716 1890 600 
Q 2009 484 2009 319 
Q 2009 150 1890 36 
Q 1772 -78 1606 -78 
Q 1441 -78 1322 36 
Q 1203 150 1203 319 
Q 1203 484 1322 600 
Q 1441 716 1606 716 
z
" transform="scale(0.015625)"/>
      <path id="MicrosoftYaHei-5b66" d="M 144 1359 
L 3069 1359 
L 3069 1709 
L 4263 2384 
L 1325 2384 
L 1325 2841 
L 4994 2841 
L 4994 2316 
L 3575 1497 
L 3575 1359 
L 6263 1359 
L 6263 903 
L 3575 903 
L 3575 -41 
Q 3575 -778 2831 -778 
Q 2419 -778 1863 -766 
Q 1844 -553 1788 -234 
Q 2288 -284 2744 -291 
Q 3069 -297 3069 53 
L 3069 903 
L 144 903 
L 144 1359 
z
M 356 3909 
L 6056 3909 
L 6056 2647 
L 5563 2647 
L 5563 3453 
L 850 3453 
L 850 2647 
L 356 2647 
L 356 3909 
z
M 4313 4272 
Q 4731 4722 5100 5241 
L 5550 4909 
Q 5144 4447 4681 3941 
L 4313 4272 
z
M 2538 5116 
L 2944 5353 
Q 3325 4853 3650 4334 
L 3200 4078 
Q 2925 4566 2538 5116 
z
M 850 4928 
L 1219 5197 
Q 1600 4778 1969 4291 
L 1544 3991 
Q 1194 4522 850 4928 
z
" transform="scale(0.015625)"/>
      <path id="MicrosoftYaHei-751f" d="M 125 16 
L 3025 16 
L 3025 1609 
L 813 1609 
L 813 2091 
L 3025 2091 
L 3025 3534 
L 1375 3534 
Q 959 2784 419 2178 
Q 288 2384 81 2616 
Q 963 3603 1475 5028 
L 1988 4891 
Q 1822 4434 1622 4016 
L 3025 4016 
L 3025 5341 
L 3563 5341 
L 3563 4016 
L 5950 4016 
L 5950 3534 
L 3563 3534 
L 3563 2091 
L 5775 2091 
L 5775 1609 
L 3563 1609 
L 3563 16 
L 6288 16 
L 6288 -453 
L 125 -453 
L 125 16 
z
" transform="scale(0.015625)"/>
      <path id="MicrosoftYaHei-6700" d="M 169 -28 
Q 475 3 781 38 
L 781 2416 
L 94 2416 
L 94 2791 
L 6288 2791 
L 6288 2416 
L 3025 2416 
L 3025 331 
Q 3325 375 3625 422 
Q 3619 309 3631 22 
Q 3338 -19 3025 -63 
L 3025 -859 
L 2600 -859 
L 2600 -125 
Q 1525 -278 281 -472 
L 169 -28 
z
M 1038 5053 
L 5363 5053 
L 5363 3047 
L 4925 3047 
L 4925 3191 
L 1475 3191 
L 1475 3047 
L 1038 3047 
L 1038 5053 
z
M 3338 1609 
L 3338 1972 
L 5819 1972 
L 5819 1609 
Q 5500 844 4981 278 
Q 5516 -113 6306 -316 
Q 6144 -553 6025 -753 
Q 5219 -488 4666 -34 
Q 4128 -516 3413 -822 
Q 3306 -634 3125 -428 
Q 3834 -156 4347 266 
Q 3825 825 3603 1609 
L 3338 1609 
z
M 1475 3553 
L 4925 3553 
L 4925 3953 
L 1475 3953 
L 1475 3553 
z
M 4925 4691 
L 1475 4691 
L 1475 4291 
L 4925 4291 
L 4925 4691 
z
M 5344 1609 
L 4025 1609 
Q 4222 994 4659 556 
Q 5094 1013 5344 1609 
z
M 2600 269 
L 2600 691 
L 1206 691 
L 1206 88 
Q 1913 172 2600 269 
z
M 1206 1916 
L 2600 1916 
L 2600 2416 
L 1206 2416 
L 1206 1916 
z
M 1206 1053 
L 2600 1053 
L 2600 1553 
L 1206 1553 
L 1206 1053 
z
" transform="scale(0.015625)"/>
      <path id="MicrosoftYaHei-559c" d="M 975 666 
L 5413 666 
L 5413 -828 
L 4975 -828 
L 4975 -591 
L 1413 -591 
L 1413 -828 
L 975 -828 
L 975 666 
z
M 1038 3216 
L 5363 3216 
L 5363 1834 
L 4925 1834 
L 4925 2034 
L 1475 2034 
L 1475 1834 
L 1038 1834 
L 1038 3216 
z
M 713 3953 
L 2975 3953 
L 2975 4353 
L 300 4353 
L 300 4741 
L 2975 4741 
L 2975 5303 
L 3425 5303 
L 3425 4741 
L 6113 4741 
L 6113 4353 
L 3425 4353 
L 3425 3953 
L 5688 3953 
L 5688 3566 
L 713 3566 
L 713 3953 
z
M 163 1397 
L 2072 1397 
Q 1919 1603 1750 1809 
L 2119 2009 
Q 2366 1716 2591 1397 
L 3850 1397 
Q 4081 1703 4281 2028 
L 4700 1797 
Q 4556 1609 4372 1397 
L 6250 1397 
L 6250 1009 
L 163 1009 
L 163 1397 
z
M 4975 291 
L 1413 291 
L 1413 -216 
L 4975 -216 
L 4975 291 
z
M 4925 2841 
L 1475 2841 
L 1475 2409 
L 4925 2409 
L 4925 2841 
z
" transform="scale(0.015625)"/>
      <path id="MicrosoftYaHei-6b22" d="M 644 3659 
Q 1150 2913 1584 2263 
Q 1859 3078 1944 4153 
L 244 4153 
L 244 4622 
L 2438 4622 
L 2438 4178 
Q 2272 2713 1916 1763 
Q 2381 1059 2750 484 
L 2319 184 
Q 1994 725 1678 1234 
Q 1231 372 388 -509 
Q 263 -316 81 -53 
Q 934 794 1369 1725 
Q 806 2613 269 3403 
L 644 3659 
z
M 4450 3622 
Q 4453 3072 4416 2609 
Q 4869 584 6319 -291 
Q 6094 -503 5906 -753 
Q 4722 91 4256 1572 
Q 3975 228 2256 -841 
Q 2119 -647 1913 -428 
Q 3150 291 3550 1128 
Q 3969 1891 3963 3622 
L 4450 3622 
z
M 2456 2847 
Q 3013 4009 3300 5341 
L 3800 5222 
Q 3684 4781 3563 4378 
L 6181 4378 
L 6181 3941 
Q 5831 3166 5556 2747 
Q 5381 2847 5094 2953 
Q 5406 3416 5619 3928 
L 3422 3928 
Q 3184 3213 2919 2634 
Q 2719 2747 2456 2847 
z
" transform="scale(0.015625)"/>
      <path id="MicrosoftYaHei-7684" d="M 356 4284 
L 988 4284 
Q 1219 4853 1369 5322 
L 1894 5172 
Q 1697 4694 1513 4284 
L 2763 4284 
L 2763 -691 
L 2263 -691 
L 2263 -203 
L 856 -203 
L 856 -734 
L 356 -734 
L 356 4284 
z
M 2856 3003 
Q 3444 3934 3850 5322 
L 4375 5191 
Q 4216 4719 4050 4303 
L 6063 4303 
Q 5988 1091 5938 259 
Q 5894 -722 4906 -722 
Q 4338 -722 3750 -684 
Q 3713 -372 3650 -128 
L 3669 -128 
Q 4294 -216 4813 -216 
Q 5381 -216 5425 384 
Q 5494 1316 5525 3834 
L 3850 3834 
Q 3578 3231 3288 2772 
Q 3119 2891 2856 3003 
z
M 856 266 
L 2263 266 
L 2263 1847 
L 856 1847 
L 856 266 
z
M 2263 3816 
L 856 3816 
L 856 2297 
L 2263 2297 
L 2263 3816 
z
M 3406 2578 
L 3788 2859 
Q 4481 2041 4894 1441 
L 4431 1116 
Q 3988 1841 3406 2578 
z
" transform="scale(0.015625)"/>
     </defs>
     <use xlink:href="#MicrosoftYaHei-68d2"/>
     <use xlink:href="#MicrosoftYaHei-5f62" transform="translate(100 0)"/>
     <use xlink:href="#MicrosoftYaHei-56fe" transform="translate(200 0)"/>
     <use xlink:href="#MicrosoftYaHei-ff1a" transform="translate(300 0)"/>
     <use xlink:href="#MicrosoftYaHei-5b66" transform="translate(400 0)"/>
     <use xlink:href="#MicrosoftYaHei-751f" transform="translate(500 0)"/>
     <use xlink:href="#MicrosoftYaHei-6700" transform="translate(600 0)"/>
     <use xlink:href="#MicrosoftYaHei-559c" transform="translate(700 0)"/>
     <use xlink:href="#MicrosoftYaHei-6b22" transform="translate(800 0)"/>
     <use xlink:href="#MicrosoftYaHei-7684" transform="translate(900 0)"/>
     <use xlink:href="#MicrosoftYaHei-989c" transform="translate(1000 0)"/>
     <use xlink:href="#MicrosoftYaHei-8272" transform="translate(1100 0)"/>
    </g>
   </g>
  </g>
 </g>
 <defs>
  <clipPath id="p1e3c5e3ad0">
   <rect x="45.11" y="26.88" width="376.09" height="252.28"/>
  </clipPath>
 </defs>
</svg>
